<svg width="259" height="525" viewBox="0 0 259 525" fill="none" xmlns="http://www.w3.org/2000/svg">
<path d="M40.622 384.454C40.6091 385.654 42.8962 389.979 44.0414 391.991L51.0142 394.566L54.5032 395.604L57.0353 392.631L58.1102 385.642L60.1959 377.664L58.2282 374.642L48.7073 376.541C46.0175 378.678 40.6348 383.254 40.622 384.454Z" fill="#9A9D9F"/>
<path d="M193.924 403.751C196.425 408.031 196.387 412.846 196.714 417.551C196.924 420.556 196.555 423.611 196.813 426.611C197.086 429.783 195.832 432.091 193.598 434.073C190.765 436.585 187.928 439.091 185.086 441.591C183.65 441.145 184.423 440.103 184.556 439.338C185.173 435.768 185.77 432.202 185.603 428.24C178.637 433.114 174.258 439.342 172.826 447.557C172.616 448.758 172.879 450.251 171.305 450.853C166.529 453.467 161.776 456.117 156.966 458.666C155.794 459.287 155.792 460.179 155.768 461.242C155.382 477.654 152.008 493.495 147.095 509.117C144.785 516.464 139.825 520.147 132.819 521.908C131.867 522.147 130.75 521.976 130.05 522.917L128.486 522.901C127.769 522.265 126.467 523.089 125.967 521.896C125.622 520.977 125.708 520.017 125.718 519.071C125.856 505.317 126.003 491.563 126.16 477.81C126.173 476.61 126.047 475.373 126.718 474.276C127.538 473.177 128.833 473.182 129.993 472.99C134.383 472.251 138.166 470.337 141.446 467.352C143.568 465.421 143.717 464.8 142.321 462.275C140.286 458.591 139.079 454.675 138.803 450.463C138.733 449.392 138.695 448.39 139.565 447.593C142.256 446.213 145.352 446.887 148.119 445.898C149.531 445.704 150.851 445.138 152.243 444.855C152.599 444.762 152.94 444.617 153.254 444.425C157.176 439.871 159.72 434.661 160.778 428.737C161.184 425.301 161.508 421.867 163.171 418.71C164.015 417.108 165.041 415.818 166.702 415.071C174.919 411.381 183.043 407.488 191.271 403.825C192.138 403.443 193.017 402.958 193.924 403.751Z" fill="#24782D"/>
<path d="M69.4444 440.022C66.0945 437.025 62.5581 434.224 59.7365 430.676C59.1453 429.934 58.5323 429.267 58.5327 428.189C58.538 421.18 58.297 414.154 59.8696 407.252C60.2873 405.421 60.9704 403.65 61.5336 401.853C63.4075 401.506 64.8477 402.662 66.3454 403.39C73.2557 406.755 80.0566 410.354 87.1119 413.407C90.4123 414.839 92.4205 417.075 93.2569 420.54C93.8674 423.068 94.2611 425.624 94.6149 428.192C95.1606 433.96 97.8262 438.838 101.056 443.469C102.226 445.069 104.084 444.737 105.689 445.113C106.059 445.217 106.416 445.356 106.775 445.495C107.027 445.573 107.276 445.663 107.52 445.766C110.106 446.573 112.994 445.849 115.443 447.335C116.693 452.321 114.854 456.677 112.544 460.88C110.424 464.742 110.509 465.343 113.936 468.119C116.035 469.817 118.353 471.12 120.76 472.296C121.658 473.228 122.902 473.212 124.052 473.47C124.341 473.571 124.624 473.669 124.918 473.758C126.733 474.377 126.37 475.914 126.357 477.255C126.243 489.652 126.111 502.049 125.964 514.446C125.937 516.959 126.002 519.473 125.813 521.984C125.725 522.308 125.57 522.61 125.358 522.871L124.311 522.859C122.747 521.935 120.918 521.943 119.228 521.442C112.691 519.496 108.346 515.605 106.364 508.836C101.889 493.56 98.8203 478.084 98.7414 462.121C98.7286 459.602 97.9952 458.121 95.624 456.912C91.2443 454.677 87.1078 451.965 82.87 449.452C82.1838 448.323 81.9179 447.068 81.6908 445.781C80.3825 438.385 76.7076 432.42 70.7149 427.888C70.3761 427.633 70.0313 427.355 69.3548 427.602C69.5259 430.79 69.7699 434.024 70.2598 437.246C70.4175 438.238 71.0833 439.507 69.4444 440.022Z" fill="#134E1A"/>
<path d="M67.1025 211.547C60.003 200.104 58.2138 187.338 57.6485 174.22C56.9388 157.819 57.1158 141.442 58.7239 125.102C61.1715 100.227 66.0687 75.952 77.272 53.3536C85.476 36.8036 96.6846 22.8332 112.861 13.3253C113.601 12.8899 114.392 12.5382 115.158 12.1478C116.029 13.1226 115.461 14.1225 115.145 15.0671C112.945 21.6134 111.195 28.3062 108.709 34.758C107.8 37.1218 107.462 39.593 107.184 42.0802C106.111 44.0234 104.583 45.7208 103.937 47.9094C103.54 49.256 103.35 50.498 105.232 50.8351C105.495 50.8268 105.756 50.8011 106.015 50.7583C113.151 48.1018 120.614 47.3699 128.129 46.9701C129.332 46.9062 130.568 46.8999 131.534 47.8444C132.14 49.1074 132.405 50.5763 133.652 51.4797C133.311 52.5623 132.412 52.4222 131.58 52.4349C118.342 50.8144 106.256 53.0905 96.2876 62.7313C94.6061 64.358 93.87 66.7662 91.7673 68.0108C86.9052 68.1681 82.8499 69.8699 80.0577 74.0572C79.2834 75.2189 78.6142 76.4111 78.2449 77.7678C75.5857 87.533 72.8757 97.2844 70.307 107.073C69.1931 111.316 68.9332 115.429 71.565 119.293C72.5866 120.793 74.2302 121.797 74.9019 123.566C75.5092 126.265 74.6351 128.911 74.6289 131.574C74.6118 142.485 74.1409 153.385 74.6075 164.315C75.4848 184.886 78.2553 205.193 82.0422 225.398C82.5706 228.221 83.7645 230.847 84.1727 233.683C83.7254 236.32 81.6382 236.961 79.4835 237.518C77.7628 236.535 76.6414 235.027 75.8882 233.243C74.5302 230.027 73.5805 226.698 73.7105 223.17C73.7764 221.394 73.0962 220.092 71.9618 218.753C70.0867 216.545 67.731 214.611 67.1025 211.547Z" fill="#134E1A"/>
<path d="M94.0829 428.283C93.609 425.849 93.0952 423.421 92.6689 420.978C92.0254 417.289 89.7063 415.267 86.3914 413.759C79.5984 410.665 72.9476 407.262 66.2297 404.001C64.6798 403.248 63.0963 402.566 61.5284 401.856C58.669 401.053 55.6653 400.676 53.0887 399.028C52.7006 397.054 52.1239 395.091 52.7302 393.058C52.8213 392.775 52.9798 392.518 53.1921 392.31C53.4045 392.102 53.6642 391.949 53.949 391.864C59.3256 390.944 60.9763 388.349 59.5275 383.113C59.0926 381.542 58.3816 380.046 58.2268 378.396C59.7881 372.418 61.2131 366.391 65.0115 361.29C65.6351 360.453 66.1522 359.575 67.1932 359.205L74.0025 360.193C74.3214 359.945 74.7202 359.822 75.1235 359.848C76.0461 359.969 76.9601 360.172 77.9019 360.132C78.8797 360.122 79.8628 360.133 80.8333 360.284C83.5179 360.788 86.211 360.885 88.9159 360.471C89.7468 360.288 90.59 360.255 91.4357 360.258C93.0571 360.206 94.5788 359.617 96.1625 359.364C97.9797 359.219 99.615 358.332 101.399 358.049C102.686 358.074 103.739 359.046 105.309 358.425C106.361 358.008 108.144 358.735 108.8 360.044C109.445 361.331 108.215 362.201 107.472 363.121C106.537 364.276 104.82 364.862 104.839 366.716C103.856 368.844 101.913 369.547 99.8499 370.029C97.4885 370.581 95.085 370.959 92.741 371.577C90.0252 372.292 89.8313 373.119 91.8708 375.237C96.4981 380.046 101.975 383.723 108.067 386.319C114.317 388.977 120.884 390.584 127.772 390.386C128.415 390.4 129.052 390.459 129.637 390.755C129.309 392.278 128.584 393.648 127.937 395.056C120.278 396.009 112.943 394.68 105.966 391.577C102.198 389.901 98.3615 388.163 95.7236 384.738C95.5859 384.554 95.4836 384.328 95.2451 384.227C95.3761 384.451 95.5816 384.625 95.685 384.882C97.5367 389.277 99.1613 393.747 100.78 398.219C101.496 400.197 102.769 401.572 104.534 402.665C109.603 405.805 115.213 407.033 121.051 407.489C123.29 407.664 125.523 407.821 127.663 408.589C128.388 409.322 128.421 410.167 128.077 411.077C127.394 415.613 127.753 420.182 127.686 424.733C127.637 428.074 127.199 431.436 127.882 434.768C128.168 435.788 128.055 436.681 127.068 437.291C123.401 438.04 119.693 437.72 116.033 437.429C113.29 437.212 110.551 437.022 107.81 436.929C107.535 436.912 107.256 436.872 106.986 436.828C106.743 436.78 106.506 436.702 106.282 436.595C106.209 436.562 106.144 436.511 106.095 436.446C106.046 436.382 106.013 436.307 106 436.227C105.993 436.193 105.924 436.171 105.883 436.144C106.284 438.954 105.651 441.796 106.146 444.603C106.189 444.987 106.122 445.33 105.786 445.573C103.923 445.405 101.811 445.975 100.612 443.832C100.433 441.589 100.52 439.341 100.604 437.101C100.665 435.477 100.13 434.303 98.808 433.345C96.9205 431.971 95.1604 430.435 94.0829 428.283Z" fill="#043D0A"/>
<path d="M75.225 264.752C72.2125 259.539 68.559 254.698 66.117 249.153C67.0829 248.359 68.0994 248.846 69.0724 249.086C72.6698 249.97 76.2403 250.958 79.7955 251.993C81.9571 252.624 84.1092 253.036 85.8374 251.227C87.5917 249.39 87.0266 247.256 86.1514 245.186C85.947 244.708 85.7945 244.215 85.8414 243.682C85.9935 243.049 86.4249 242.798 87.0436 242.805C88.566 243.259 88.6591 244.734 89.1287 245.873C92.9498 255.146 96.7996 264.404 101.319 273.37C103.306 277.311 105.337 281.222 107.944 284.803C108.564 285.651 109.062 286.552 109.23 287.609C111.717 304.691 114.234 321.766 116.781 338.835C117.282 342.174 117.993 345.493 118.058 348.89C118.144 350.759 117.124 351.841 115.608 352.802C112.217 354.951 108.425 356.192 104.8 357.804C103.568 358.349 102.23 358.544 101.576 356.826C101.138 353.392 101.028 349.909 101.034 346.488C101.044 338.965 100.247 331.461 100.62 323.935C100.826 319.781 99.9031 315.663 100.226 311.505C100.312 310.388 100.216 309.254 100.483 308.156C100.631 307.344 101.371 306.775 101.426 305.919C101.57 304.639 101.5 303.343 101.67 302.063C101.81 301.009 101.531 300.195 100.437 299.832C100.088 299.815 99.7417 299.835 99.3951 299.797C98.245 299.461 97.8614 298.376 97.1969 297.562C95.4523 295.167 93.9554 292.599 92.113 290.271C90.983 288.454 89.8474 286.643 88.4867 284.981C86.3046 281.383 83.7172 278.063 81.3606 274.586C80.5035 273.181 79.4143 271.926 78.5769 270.502C77.6975 269.083 76.7605 267.704 75.8361 266.317C75.5298 265.831 75.3708 265.292 75.225 264.752Z" fill="#134E1A"/>
<path d="M106.571 42.1365C106.573 39.0858 107.416 36.2277 108.446 33.3856C110.976 26.4004 113.214 19.3212 115.159 12.1478C117.895 7.01677 122.058 3.61414 127.602 1.88432L132.012 1.9316C133.026 3.1125 132.724 4.54736 132.729 5.89965C132.769 15.7357 132.272 25.5702 132.639 35.4076C132.668 36.1919 132.59 36.9604 132.174 37.6534C131.472 38.709 130.346 38.8477 129.226 39.0508C122.992 40.1798 116.749 41.2333 110.905 43.8982C108.687 44.9083 107.787 44.3953 106.571 42.1365Z" fill="#043D0A"/>
<path d="M86.123 243.678C86.5405 244.534 87.0554 245.357 87.3524 246.253C87.9844 248.138 88.1691 250.131 86.6418 251.625C85.1817 253.055 83.3951 253.727 81.179 253.103C76.185 251.691 71.1401 250.46 66.1157 249.155C59.4897 245.977 57.2336 241.787 58.0629 234.334C58.2886 232.302 59.478 231.307 61.3558 231.507C62.9887 231.68 62.9634 230.983 62.8658 229.791C62.5208 225.56 62.0956 221.313 62.9676 217.1C63.4758 214.648 63.8741 212.022 67.1005 211.553C69.1967 214.309 71.0674 217.251 73.6405 219.616C74.5395 220.445 74.275 221.532 74.3075 222.548C74.4849 228.016 75.6121 233.148 79.4858 237.319C80.8323 237.763 81.8046 238.784 82.9416 239.554C84.3269 240.675 85.8009 241.735 86.123 243.678Z" fill="#242425"/>
<path d="M39.8692 373.53C38.4724 372.952 37.3687 371.88 37.4722 370.433C37.611 368.491 36.6273 368.012 35.1093 367.475C24.7527 363.792 14.4429 359.977 4.07476 356.329C2.22414 355.681 1.91048 354.975 2.69945 353.23C3.83782 350.706 4.82675 348.118 5.66109 345.478C6.23927 343.658 6.83131 343.084 8.87244 343.875C19.1219 347.847 29.4503 351.617 39.7357 355.498C41.1441 356.029 42.4026 356.476 43.8815 355.581C45.1502 354.814 46.3909 355.295 47.4036 356.323C48.0758 357.265 47.5661 358.171 47.2572 359.039C45.7171 363.365 43.8306 367.557 42.2724 371.879C41.8996 372.909 41.4371 374.099 39.8692 373.53Z" fill="#333235"/>
<path d="M39.8693 373.53C40.7062 373.628 41.0871 373.141 41.3517 372.434C43.3619 367.06 45.3792 361.689 47.4037 356.319C54.5091 353.792 60.7845 356.967 67.1964 359.201C62.4013 364.709 60.9518 371.717 58.6218 378.33C58.0075 378.894 57.3419 378.584 56.6877 378.44C52.3946 377.504 50.4903 378.671 49.3938 382.917C49.2656 383.412 49.1861 383.92 49.0223 384.412C48.6787 385.778 47.8718 386.531 46.4058 386.282C44.514 385.961 42.4014 386.887 40.7363 385.286C40.575 384.633 40.5571 383.894 40.2271 383.342C38.7487 380.867 38.7438 378.396 40.0216 375.87C40.4318 375.058 40.5897 374.266 39.8693 373.53Z" fill="#9A9D9F"/>
<path d="M69.4443 440.022C70.5094 439.621 69.8632 438.858 69.7563 438.28C69.0137 434.263 68.8359 430.199 68.5407 426.083C76.0985 429.295 82.5189 439.529 82.877 449.448L69.4443 440.022Z" fill="#CFCDD0"/>
<path d="M75.2249 264.752C75.6233 265.048 75.9866 265.365 76.0086 265.915C76.7208 267.36 76.8146 268.903 76.7977 270.48C76.4848 299.016 76.1716 327.552 75.8582 356.088C75.8428 357.525 76.13 359.073 74.9717 360.289L74.0077 360.191C74.067 357.851 74.1528 355.515 74.1793 353.174C74.5004 324.129 74.8176 295.085 75.1308 266.041C75.1319 265.611 75.1875 265.182 75.2249 264.752Z" fill="#282727"/>
<path d="M43.421 391.153C46.7402 391.345 50.0185 391.773 53.1792 392.875C53.1503 394.926 53.1213 396.976 53.0923 399.026C52.8037 397.681 51.6678 397.59 50.6204 397.254C47.3919 396.219 44.2333 395.055 43.421 391.153Z" fill="#9B9C9D"/>
<path d="M192.885 250.479C190.308 256.002 186.553 260.801 183.362 265.949C183.039 266.322 183.122 266.83 182.934 267.249C182.015 268.73 180.93 270.096 179.949 271.535C178.667 272.942 177.883 274.691 176.752 276.203C174.106 279.462 171.734 282.921 169.385 286.393C167.886 288.003 166.886 289.964 165.626 291.745C163.645 294.11 161.832 296.609 160.199 299.226C158.073 301.659 157.738 304.531 157.563 307.668C156.851 320.366 156.785 333.094 155.712 345.772C155.486 348.447 155.794 351.145 155.399 353.813C155.323 354.411 154.977 354.959 154.991 355.566C155.073 359.183 153.788 359.078 150.975 358.005C147.261 356.588 143.786 354.685 140.366 352.68C139.614 352.24 138.9 351.757 138.66 350.836C138.523 347.252 139.494 343.809 140.092 340.331C142.897 324.044 145.481 307.717 148.388 291.451C148.647 290.005 149.036 288.585 149.213 287.123C153.868 280.196 157.816 272.867 161.413 265.349C166.889 253.911 172.022 242.311 176.33 230.39C178.599 224.11 179.32 217.374 180.576 210.811C183.091 197.675 184.593 184.41 185.841 171.096C186.903 159.756 187.114 148.405 187.068 137.042C187.052 133.074 186.489 129.105 186.523 125.119C187.547 123.185 189.37 121.884 190.514 120.018C192.425 116.897 193.025 113.716 192.161 110.081C189.744 99.9572 187.28 89.8467 184.603 79.7897C182.82 73.0827 178.765 69.7888 171.935 69.0587C171.677 69.0246 171.423 68.9646 171.177 68.8795C169.767 68.1852 169.159 66.7678 168.408 65.5562C166.359 62.2531 162.95 60.3806 160.362 57.6588C159.787 57.2171 161.547 56.8401 160.365 56.2689C159.77 55.9833 159.784 55.3126 160.45 54.8841C160.737 54.6443 160.765 54.3792 160.528 54.0891C160.67 54.4236 160.73 54.7405 160.343 54.9653C158.955 55.6974 157.491 54.9097 156.08 55.1892C155.457 55.1196 154.896 54.8825 154.361 54.5654C154.085 54.3856 153.835 54.1695 153.617 53.9229C153.349 53.6212 153.169 52.5456 152.698 53.8062C151.939 53.9237 151.271 53.7211 150.687 53.2325C150.136 51.6586 150.392 50.7252 152.348 51.1399C152.975 51.2737 153.529 51.0297 154.082 50.7794C155.114 50.7158 156.06 50.8425 156.584 51.9009C156.536 52.1922 156.305 52.242 156.084 52.366C155.956 52.4379 156.244 52.469 156.332 52.5209C157.567 53.2532 158.45 52.8619 159.054 51.6369C160.012 49.3008 159.042 47.3302 157.927 45.3593C157.379 44.395 156.584 43.5927 156.171 42.5481C155.989 35.4611 152.56 29.2321 150.869 22.545C150.254 20.1146 149.499 17.7134 148.838 15.2922C148.59 14.3869 148.246 13.4387 149.072 12.6119C161.777 19.607 171.36 29.8099 179.016 41.9392C189.289 58.2154 195.101 76.1967 198.714 94.9307C204.589 125.395 205.181 156.079 201.857 186.865C200.849 196.209 197.613 204.849 192.778 212.894C191.966 215.876 189.639 217.824 187.778 220.067C186.798 221.249 186.151 222.398 185.97 223.965C185.57 227.408 185.098 230.85 183.584 234.052C182.375 236.606 180.874 238.827 178.458 240.458C175.996 242.119 173.907 244.226 172.554 246.938C171.686 248.679 171.422 250.458 172.832 252.048C174.162 253.549 175.837 253.965 177.797 253.394C181.55 252.305 185.396 251.578 189.159 250.514C190.354 250.179 191.638 249.505 192.885 250.479Z" fill="#24782D"/>
<path d="M149.075 12.614C150.434 19.981 152.971 27.013 155.297 34.0965C156.221 36.91 156.949 39.6676 156.63 42.634C155.938 44.8975 154.617 45.5032 152.148 44.3354C149.417 43.0439 146.677 41.8724 143.726 41.1511C140.298 40.3136 136.838 39.628 133.401 38.8407C132.73 38.6157 132.043 38.4163 131.596 37.8028C132.438 36.2166 131.613 34.6091 131.638 33.0121C131.795 22.6525 131.894 12.2923 132.013 1.93227L136.728 1.96258C142.281 3.84764 146.316 7.48757 149.075 12.614Z" fill="#095A12"/>
<path d="M192.886 250.479C188.01 251.65 183.107 252.722 178.269 254.036C175.794 254.708 173.728 254.235 172.148 252.407C170.423 250.414 171.034 248.168 172.181 246.092C173.46 243.78 175.217 241.763 177.428 240.41C182.108 237.547 184.097 233.012 184.632 228.061C185.129 223.463 186.42 219.64 189.879 216.529C191.016 215.506 191.823 214.116 192.781 212.894C195.773 213.949 196.893 216.167 196.816 220.891C196.451 223.124 196.424 225.4 196.738 227.641C196.98 229.381 196.436 231.066 196.31 233.114C197.861 232.832 199.463 232.616 200.549 233.961C201.62 235.29 201.35 236.929 201.289 238.46C201.06 244.244 198.724 248.596 192.886 250.479Z" fill="#2B2A2C"/>
<path d="M209.353 358.016C210.293 357.016 211.557 356.619 212.649 357.308C214.301 358.349 215.695 357.834 217.274 357.275C227.548 353.645 237.862 350.123 248.117 346.436C249.935 345.783 250.682 346.029 251.225 347.898C252.051 350.721 253.021 353.501 254.13 356.225C254.783 357.838 254.356 358.381 252.778 358.904C242.186 362.413 231.629 366.029 221.059 369.607C220.25 369.881 219.367 369.987 218.743 370.665C218.216 371.497 218.396 372.375 218.594 373.252C218.401 374.404 217.448 374.855 216.603 375.405C215.265 375.885 214.637 374.977 214.263 374.014C212.467 369.377 210.802 364.692 209.169 359.994C208.938 359.328 208.935 358.642 209.353 358.016Z" fill="#3E3D41"/>
<path fill-rule="evenodd" clip-rule="evenodd" d="M212.026 394.292L202.457 400.69C201.359 394.345 198.763 381.449 197.172 380.632L197.188 379.132L197.281 379.107C197.22 378.889 197.16 378.671 197.099 378.453C195.347 372.164 193.594 365.875 189.549 360.529C190.67 360.174 191.789 359.812 192.908 359.45C195.613 358.576 198.318 357.702 201.05 356.912C202.368 356.53 203.638 356.879 204.913 357.229C205.632 357.426 206.353 357.624 207.084 357.69C207.609 357.738 208.129 357.822 208.649 357.905C208.884 357.943 209.118 357.981 209.353 358.015C210.299 361.566 211.595 364.995 212.891 368.423C213.674 370.497 214.458 372.571 215.164 374.671C215.417 375.424 215.969 375.463 216.603 375.404C215.543 376.107 215.875 377.034 216.285 377.884C217.451 380.303 216.059 384.981 216.059 384.981L216.607 386.841L215.569 390.33L213.039 393.16L213.037 393.303L212.027 394.292L212.026 394.292Z" fill="#BBBFC0"/>
<path d="M182.507 361.364L181.809 361.404C180.754 360.119 181.122 358.588 181.136 357.15C181.407 330.039 181.692 302.928 181.992 275.818C182.006 274.519 182.042 273.22 181.993 271.921C181.802 270.174 182.044 268.483 182.755 266.868C182.799 266.456 182.947 266.115 183.362 265.949C183.28 276.261 183.197 286.573 183.113 296.885C182.919 318.378 182.717 339.871 182.507 361.364Z" fill="#343333"/>
<path d="M196.74 227.643C196.018 225.385 196.035 223.134 196.818 220.893C197.09 223.146 197.006 225.396 196.74 227.643Z" fill="#1E1E20"/>
<path d="M218.594 373.251C218.002 372.352 217.907 371.481 218.743 370.664C219.043 371.548 218.976 372.408 218.594 373.251Z" fill="#2F2E32"/>
<path d="M171.303 450.857C172.078 450.237 171.94 449.343 172.058 448.501C173.366 439.1 178.346 432.15 186.515 426.795C186.393 431.619 185.955 435.963 185.023 440.259C184.927 440.703 184.415 441.181 185.086 441.594C183.076 442.985 183.078 442.807 182.002 443.747C180.049 445.452 178.539 446.436 176.523 447.915C174.853 449.139 173.286 450.62 171.303 450.857Z" fill="#F9F9FB"/>
<path d="M139.703 447.948C138.988 450.892 139.771 453.732 140.568 456.484C141.256 458.865 142.184 461.218 143.771 463.22C144.718 464.417 144.206 465.429 143.297 466.418C139.02 471.068 133.796 473.684 127.435 473.901C127.223 474.098 127.01 474.092 126.794 473.909C125.991 471.733 127.504 471.308 129.061 470.911C131.088 470.698 132.763 469.654 134.743 468.485C132.65 469.602 130.951 470.832 128.767 470.81C127.743 470.747 126.895 470.475 126.857 469.228C127.964 467.996 129.577 468.507 130.907 468.053C132.293 467.447 133.776 467.044 134.911 466.308C133.488 467.025 131.87 467.717 130.154 468.184C129.221 468.12 128.152 468.942 127.394 467.759C127.323 467.519 127.34 467.262 127.442 467.034C129.424 465.737 131.904 465.667 133.63 464.496C131.666 464.97 129.714 466.735 127.166 466.022C126.52 465.134 126.425 464.076 126.416 463.061C126.378 458.934 126.201 454.8 126.762 450.689C126.89 449.754 126.927 448.784 127.751 448.117C129.156 447.411 130.764 447.897 132.191 447.326C134.713 447.263 137.295 446.575 139.703 447.948Z" fill="#095A12"/>
<path d="M139.703 447.948L131.986 448.011C126.379 448.454 126.3 448.451 126.481 442.767C126.544 440.808 125.67 438.516 127.839 437.012C134.215 436.859 140.592 436.739 146.967 436.526C148.294 436.482 148.799 436.785 148.73 438.204C148.597 440.958 148.639 443.718 148.609 446.478C145.732 447.522 142.628 447.193 139.703 447.948Z" fill="#F9FAFC"/>
<path d="M153.431 439.934C152.969 436.06 154.859 433.523 157.997 431.561C159.22 430.797 160.204 429.649 161.297 428.676C160.365 434.918 157.877 440.408 153.44 444.962C152.911 443.287 152.828 441.612 153.431 439.934Z" fill="#F7F2F2"/>
<path d="M126.894 473.871L127.433 473.903C126.923 474.759 126.909 475.704 126.9 476.663C126.752 491.889 126.598 507.115 126.438 522.341L125.375 522.39C125.532 507.356 125.652 492.321 125.895 477.288C125.924 475.505 125.476 474.414 123.801 473.868C124.832 473.008 125.863 473.101 126.894 473.871Z" fill="#16501C"/>
<path d="M153.431 439.934C153.435 441.61 153.439 443.285 153.443 444.961C153.22 445.136 152.996 445.311 152.773 445.484L152.879 435.66L153.241 435.652C153.304 437.079 153.367 438.506 153.431 439.934Z" fill="#095A12"/>
<path d="M126.894 473.871L123.8 473.869C122.795 473.419 121.605 473.514 120.686 472.811C116.753 471.281 113.315 469.087 110.693 465.687C109.787 464.513 109.869 463.695 110.722 462.503C113.885 458.086 115.571 453.168 115.222 447.663C119.474 446.306 123.611 446.878 127.685 448.418C127.074 454.269 126.608 460.121 127.557 465.983C126.368 467.104 125.357 465.953 124.294 465.698C122.882 465.36 121.57 464.73 120.276 464.075C122.504 465.552 125.287 465.71 127.528 467.161L127.516 467.69C126.785 469.471 125.541 468.157 124.522 468.187C122.894 467.737 121.363 467.019 119.805 466.378C121.001 466.999 122.279 467.417 123.515 467.938C124.623 468.488 126.061 468.15 126.974 469.223C127.351 470.219 128.212 470.283 129.088 470.318C127.233 471.995 125.314 470.665 123.464 470.35C121.974 470.097 120.77 469.033 119.925 468.589C122.172 470.829 125.731 470.752 129.055 471.41C127.653 471.633 126.999 472.512 126.894 473.871Z" fill="#043D0A"/>
<path d="M127.683 448.418L115.221 447.663C112.488 446.832 109.507 447.322 106.848 446.093C106.087 442.783 105.657 439.479 106.995 436.199C113.781 436.165 120.531 437.252 127.332 436.82L127.839 437.012C126.741 440.193 127.484 443.485 127.272 446.719C127.213 447.626 127.873 447.829 128.644 447.851C129.761 447.885 130.873 447.955 131.986 448.009C130.593 448.589 129.101 448.117 127.683 448.418Z" fill="#D0CDD0"/>
<path d="M94.0827 428.283C96.2145 430.121 98.3513 431.959 100.472 433.811C100.78 434.08 101.262 434.448 101.242 434.746C101.039 437.774 101.932 440.882 100.617 443.83C97.2463 439.146 94.4141 434.241 94.0827 428.283Z" fill="#CFCCCF"/>
<path d="M106.994 436.199C106.969 438.521 106.913 440.843 106.943 443.165C106.955 444.026 106.62 444.92 107.708 445.675C108.201 446.017 107.113 445.844 106.848 446.093C106.776 446.123 106.697 446.133 106.62 446.124C106.543 446.115 106.469 446.086 106.406 446.041C105.678 442.743 105.507 439.45 106.507 436.169L106.756 436.102L106.994 436.199Z" fill="#D1D9DD"/>
<path d="M106.507 436.169L106.405 446.041L105.79 445.57C105.786 445.208 105.781 444.846 105.776 444.483C105.57 441.714 105.461 438.947 105.97 436.193L106.507 436.169Z" fill="#043D0A"/>
<path d="M150.742 53.0383L152.799 53.6411C153.463 53.3299 153.829 53.9698 154.347 54.1255L155.765 54.7899C157.59 55.2437 159.483 55.5691 160.583 57.3736C164.849 60.2655 168.374 63.8616 170.997 68.3164C172.376 69.3015 173.215 70.6962 173.994 72.1595C179.054 81.6591 182.425 91.7465 184.612 102.26C185.957 108.727 186.761 115.268 187.565 121.815C187.697 122.89 187.497 123.882 187.169 124.876C187.878 135.175 188.021 145.504 187.597 155.818C186.865 173.689 184.808 191.423 181.679 209.028C180.694 214.572 179.549 220.088 178.41 225.604C176.801 233.395 173.18 240.454 170.138 247.71C165.377 259.067 160.315 270.293 153.997 280.893C152.712 283.048 151.163 285.045 149.736 287.115C149.249 288.995 147.967 290.196 146.327 291.062C145.571 291.46 144.734 291.901 144.147 290.766C143.247 281.623 141.991 272.526 141.862 263.3C141.8 258.787 141.952 254.295 142.185 249.812C142.592 241.972 145.571 234.82 148.789 227.765C152.086 220.54 156.817 214.193 161.005 207.511C166.458 198.81 171.036 189.709 173.983 179.811C175.146 175.902 176.231 172.017 176.833 167.97C177.627 162.645 175.804 158.424 171.953 154.952C167.515 150.952 162.052 148.94 156.428 147.349C149.228 145.313 141.867 144.163 134.416 143.47C132.447 143.286 131.672 144.009 131.721 145.895C131.744 146.761 131.702 147.63 131.693 148.498C131.201 194.409 130.707 240.32 130.211 286.23C130.197 287.527 130.336 288.852 129.902 290.104C129.697 290.698 129.418 291.531 128.527 290.671C127.973 289.525 128.073 288.293 128.086 287.085C128.583 239.512 129.089 191.939 129.604 144.365C129.61 143.757 129.666 143.152 129.698 142.546C129.621 134.993 129.802 127.442 129.877 119.891C130.087 98.7096 130.317 77.5288 130.57 56.3481C130.586 54.8278 130.243 53.1864 131.459 51.8842C132.183 51.7349 132.981 51.9508 133.633 51.4461C135.729 49.9146 138.139 50.5959 140.359 50.7363C143.905 50.9607 147.617 50.7904 150.742 53.0383Z" fill="#424242"/>
<path d="M131.461 51.8842C131.132 82.0975 130.803 112.31 130.474 142.523C129.694 143.235 128.721 143.155 127.769 143.208C116.882 143.815 106.199 145.429 96.1109 149.822C93.8086 150.836 91.6319 152.114 89.6245 153.63C84.4473 157.51 82.6627 162.621 83.9017 168.997C86.0049 179.823 90.0037 189.906 94.8716 199.765C98.5747 207.265 103.729 213.85 107.565 221.236C111.585 228.973 114.808 237.014 116.231 245.643C117.207 251.564 117.228 257.577 116.714 263.553C116.224 269.249 115.963 274.97 115.096 280.629C114.603 283.852 114.403 287.142 113.178 290.223C110.464 290.953 109.735 288.729 108.585 287.132C99.3227 273.507 93.6985 258.115 87.2249 243.137C85.6793 241.663 85.487 239.533 84.6026 237.738C84.0887 236.592 83.7878 235.363 83.7148 234.11C80.3045 223.98 79.0309 213.413 77.4849 202.919C75.7185 190.941 74.5154 178.901 73.8755 166.797C73.3354 156.404 73.4293 146.018 73.7362 135.629C73.8566 131.567 74.1724 127.511 74.3947 123.452C73.8254 117.924 75.2423 112.588 76.206 107.251C78.4191 94.9968 82.0562 83.1805 88.2278 72.2648C89.1988 70.5467 89.9371 68.6383 91.7451 67.5352C96.7421 59.7434 103.851 54.8721 112.759 52.6751C118.908 51.1563 125.162 50.6334 131.461 51.8842Z" fill="#373636"/>
<path d="M91.741 67.5345C81.3686 84.0222 76.9219 102.365 74.852 121.457C74.7784 122.131 74.5479 122.788 74.3907 123.454C69.7417 119.359 67.5563 114.503 69.3019 108.212C72.19 97.8056 74.8679 87.3404 77.7832 76.9419C79.4082 71.1441 85.5461 67.1504 91.741 67.5345Z" fill="#A2A29F"/>
<path d="M131.596 37.8028L133.186 38.2889C131.784 40.5993 132.333 43.1463 132.306 45.6208C132.292 46.8982 133.776 46.9832 134.205 47.9246C133.397 49.137 132.463 48.8966 131.486 48.1671C123.5 47.398 115.724 48.4281 108.108 50.8722C107.225 51.1553 106.407 51.7559 105.396 51.5273C105.183 51.3742 105.171 51.1304 105.117 50.9058C105.114 51.1403 105.088 51.3676 104.88 51.5239C102.695 51.3427 102.884 49.7991 103.158 48.3493C103.615 45.9254 105.185 44.0727 106.571 42.1371C107.682 43.4649 108.851 44.4423 110.739 43.4244C116.703 40.2073 123.315 39.349 129.859 38.2484C130.446 38.1493 131.017 37.9536 131.596 37.8028Z" fill="#C9CDCD"/>
<path d="M131.486 48.1671L134.091 47.8229C134.43 47.3526 134.935 47.1974 135.462 47.2324C140.825 47.5894 146.204 47.8432 151.402 49.4054C152.388 49.7015 153.45 49.937 153.868 51.0885C153.913 51.8569 153.389 51.8994 152.865 51.7954C151.766 51.5784 150.74 51.4061 150.742 53.0376C145.143 51.7102 139.384 51.1744 133.636 51.4461C130.933 51.6552 131.517 49.7096 131.486 48.1671Z" fill="#24782D"/>
<path d="M83.7134 234.106L85.0745 237.424C85.0511 238.109 84.5085 238.561 84.3024 239.161C84.2686 239.363 84.163 239.546 84.005 239.675C83.5593 240.011 83.0142 239.658 82.5516 239.884C81.4841 239.08 80.2525 238.472 79.487 237.308C80.7236 236.017 83.0448 236.152 83.7134 234.106Z" fill="#16501C"/>
<path d="M81.3562 231.708C82.8914 232.463 82.4931 233.47 82.9159 234.15L82.249 234.41C82.0008 233.657 81.7533 232.907 81.3562 231.708Z" fill="#16501C"/>
<path d="M80.1244 234.536C80.3795 234.323 80.5634 234.041 80.74 234.045C81.256 234.058 81.4471 234.465 81.4659 234.924C81.4809 235.292 81.2856 235.726 80.9116 235.561C80.5843 235.416 80.4086 234.93 80.1244 234.536Z" fill="#16501C"/>
<path d="M104.879 51.5239C104.664 50.9177 104.448 50.3108 104.179 49.5533C105.759 49.6191 105.283 50.7519 105.396 51.5273L104.879 51.5239Z" fill="#D1C8CF"/>
<path d="M81.7247 274.194C84.2891 277.565 86.7544 281.002 88.8827 284.673C89.6628 286.294 89.6296 288.024 89.6102 289.766C89.3733 311.088 89.1409 332.411 88.9133 353.734C88.8872 356.162 88.8815 358.587 89.1049 361.007C86.299 361.656 83.5023 361.58 80.7127 360.904C79.8584 359.886 79.8904 358.654 79.9028 357.44C80.1747 330.817 80.4633 304.196 80.7687 277.575C80.7829 276.38 80.6555 275.106 81.7247 274.194Z" fill="#353535"/>
<path d="M128.187 356.674C131.147 356.973 134.157 356.433 137.09 357.198C136.164 358.257 134.9 357.979 133.741 357.994C129.411 358.05 129.411 358.032 128.537 362.08C127.806 363.228 126.615 362.984 125.537 363.042C124.6 363.092 123.652 362.986 122.73 363.212C119.504 364.003 118.933 366.338 121.004 370.254C121.717 371.579 122.978 370.884 123.993 371.044C125.457 371.275 127.101 370.631 128.345 371.951C128.948 373.493 128.783 375.068 128.536 376.643C128.098 378.069 126.906 378.063 125.774 377.994C121.408 377.729 117.076 377.109 113.26 374.839C108.932 372.264 104.676 373.42 100.449 374.792C98.3254 375.481 99.8572 376.556 100.633 377.162C105.104 380.647 109.813 383.718 115.319 385.384C118.729 386.409 122.209 387.187 125.732 387.711C126.578 387.838 127.491 387.792 128.114 388.561C128.539 389.45 128.458 390.276 127.815 391.033C112.986 390.989 100.66 385.201 90.4296 374.674C88.7449 372.94 89.0177 371.919 91.4191 371.225C93.985 370.485 96.6234 369.959 99.259 369.489C101.487 369.094 103.36 368.197 104.779 366.417C104.843 366.187 104.957 365.973 105.113 365.792C106.229 364.852 107.058 363.658 107.979 362.542C112.525 355.385 119.734 355.914 126.794 356.036C127.329 356.045 127.785 356.32 128.187 356.674Z" fill="#6D6F71"/>
<path d="M127.985 377.005C127.998 375.264 128.01 373.523 128.023 371.782C127.842 371.526 127.864 371.291 128.087 371.07C128.302 370.913 128.545 370.8 128.804 370.737C130.169 370.498 131.555 370.737 132.926 370.576C135.373 370.288 136.979 368.693 136.936 366.634C136.895 364.713 135.292 363.336 132.862 363.143C131.493 363.035 130.103 363.244 128.75 362.871C128.502 362.776 128.288 362.609 128.135 362.393C128.191 357.167 128.191 357.173 133.498 357.232C134.695 357.245 135.893 357.211 137.091 357.2C141.316 357.031 144.65 358.591 147.094 362.125C150.731 367.381 155.552 370.671 162.115 371.254C163.827 371.407 166.422 371.518 166.771 373.417C167.093 375.176 164.976 376.493 163.59 377.749C158.703 382.165 153.021 385.291 147.053 387.95C146.809 388.414 146.405 388.775 145.915 388.965C141.297 390.697 136.425 391.655 131.494 391.799C130.891 391.818 130.286 391.7 129.79 391.292L127.817 391.032C127.821 390.175 127.825 389.319 127.829 388.462C128.578 387.666 129.573 387.836 130.508 387.793C140.395 387.358 148.958 383.592 156.6 377.474C157.882 376.448 157.845 375.639 156.283 375.12C151.603 373.566 146.982 372.779 142.199 375.095C138.612 376.831 134.77 377.984 130.666 377.707C129.728 377.647 128.738 377.776 127.985 377.005Z" fill="#848688"/>
<path d="M132.448 408.429C130.883 409.088 129.22 408.482 127.629 408.799C122.292 408.288 116.918 408.088 111.712 406.583C108.851 405.755 106.211 404.48 103.659 402.995C102.033 402.049 100.934 400.697 100.282 398.877C98.5595 394.066 96.7216 389.295 94.9301 384.509C94.8449 383.983 95.0565 383.793 95.5688 383.946C104.816 392.58 116.032 395.172 128.276 394.599C128.355 394.717 128.432 394.835 128.513 394.951C128.642 398.031 128.422 401.109 128.361 404.187C128.32 406.271 128.632 407.771 131.167 407.692C131.429 407.681 131.688 407.745 131.914 407.875C132.141 408.005 132.326 408.197 132.448 408.429Z" fill="#727483"/>
<path d="M92.4961 289.951C94.4455 292.264 96.0812 294.793 97.6267 297.385C97.8058 298.853 97.8397 300.319 97.8231 301.799C97.6184 319.682 97.419 337.565 97.2249 355.448C97.2085 356.978 97.5095 358.607 96.3702 359.94C94.8109 360.328 93.2926 360.926 91.644 360.845C90.8099 360.022 90.8501 358.946 90.8597 357.915C91.0598 336.216 91.294 314.516 91.5625 292.817C91.5756 291.789 91.5691 290.704 92.4961 289.951Z" fill="#343535"/>
<path d="M96.3704 359.94C96.5793 339.976 96.7933 320.012 97.0124 300.049C97.0222 299.137 96.7113 298.106 97.6283 297.385C98.272 298.141 98.9156 298.898 99.5593 299.656C101.857 301.296 102.33 303.611 101.137 307.393C101.332 317.848 101.528 328.303 101.726 338.759C101.85 344.982 102.012 351.205 102.154 357.428C102.408 358.027 101.896 358.183 101.567 358.445C99.8565 359.021 98.2373 359.911 96.3704 359.94Z" fill="#1E1A1B"/>
<path d="M81.7245 274.194C81.6086 282.264 81.4711 290.335 81.3804 298.406C81.1464 319.237 80.9231 340.069 80.7104 360.901C79.6682 360.847 78.6264 360.792 77.5851 360.736C76.6396 359.748 76.7712 358.486 76.784 357.288C77.0617 329.436 77.3658 301.585 77.6965 273.734C77.7102 272.462 77.292 270.885 79.0098 270.179C79.9154 271.518 80.8203 272.856 81.7245 274.194Z" fill="#1D1A1B"/>
<path d="M92.4964 289.951C92.2935 306.311 92.0912 322.671 91.8892 339.031C91.8006 346.303 91.7189 353.574 91.6442 360.845C90.7973 360.898 89.9508 360.951 89.1048 361.004C87.8877 360.797 88.0143 359.867 88.0243 358.998C88.3104 334.223 88.5967 309.447 88.8833 284.671C90.3377 286.256 91.5134 288.04 92.4964 289.951Z" fill="#1E1B1B"/>
<path d="M79.0125 270.179C78.1991 271.067 78.5526 272.164 78.5412 273.162C78.2083 302.354 77.8904 331.545 77.5877 360.737C76.6892 360.871 75.7713 360.714 74.9682 360.29C75.3152 328.832 75.662 297.374 76.0085 265.917C77.2739 267.151 78.1228 268.679 79.0125 270.179Z" fill="#343535"/>
<path d="M101.563 358.445C101.759 358.107 101.955 357.768 102.15 357.429C102.812 357.913 103.511 357.649 104.106 357.38C108.224 355.53 112.513 354.053 116.352 351.586C117.384 350.923 117.243 350.052 117.402 349.169C119.217 351.705 121.5 353.465 124.762 353.606C125.87 354.064 127.25 353.575 128.2 354.584C128.192 355.282 128.188 355.978 128.185 356.671C124.738 356.783 121.292 356.705 117.843 357.034C114.548 357.348 111.885 358.506 109.948 361.261C109.413 362.024 108.621 362.606 107.947 363.27C106.965 364.196 106.031 365.171 105.148 366.191C105.052 366.304 104.921 366.382 104.777 366.414C104.061 365.918 103.917 365.395 104.66 364.78C105.319 364.234 106.015 363.713 106.583 363.081C107.388 362.188 109.086 361.388 108.205 360.102C107.895 359.651 106.081 357.609 104.312 359.676C103.501 360.628 102.714 358.45 101.563 358.445Z" fill="#043D0A"/>
<path d="M129.789 391.294C135.708 391.031 141.443 389.813 147.053 387.952C147.824 389.262 148.414 390.865 150.498 389.903C151.018 389.662 151.517 389.814 151.823 390.362C151.738 391.417 150.884 391.769 150.108 392.081C143.623 394.69 136.886 395.83 129.898 395.424C129.295 395.389 128.697 395.279 128.248 394.804L128.28 394.603C127.833 393.065 127.493 391.58 129.789 391.294Z" fill="#095A12"/>
<path d="M127.612 410.34C127.522 418.675 127.433 427.01 127.344 435.344C126.684 434.841 126.831 434.114 126.838 433.44C126.907 426.372 126.983 419.303 127.065 412.233C127.076 411.559 126.945 410.83 127.612 410.34Z" fill="#043D0A"/>
<path d="M105.971 436.193L105.778 444.483C105.338 444.387 104.896 444.253 105.039 443.671C105.605 441.378 105.496 439.073 105.224 436.761C105.16 436.218 105.275 435.505 105.731 435.425C106.644 435.264 105.86 435.928 105.971 436.193Z" fill="#043D0A"/>
<path d="M95.5696 383.947L94.935 384.509C94.5619 384.078 93.9582 383.521 94.5691 383.078C94.959 382.791 95.3439 383.5 95.5696 383.947Z" fill="#825055"/>
<path d="M124.475 354.059C120.329 353.76 118.486 352.489 117.404 349.171C116.007 339.429 114.611 329.688 113.215 319.946C111.661 309.01 110.118 298.072 108.585 287.133C110.077 288.057 110.964 289.768 112.736 290.328C114.189 290.291 115.358 291.172 116.682 291.557C120.47 292.667 124.31 293.183 128.257 292.777C128.554 292.773 128.849 292.823 129.128 292.926C129.73 293.197 130.159 293.602 130.202 294.308C129.901 311.221 129.857 328.137 129.625 345.054C129.598 347.049 129.593 349.046 129.504 351.041C129.362 354.221 129.196 354.382 125.995 354.293C125.478 354.279 124.945 354.365 124.475 354.059Z" fill="#1E1A1B"/>
<path d="M82.553 239.888C82.9596 239.356 83.5468 239.49 84.0938 239.473C82.7765 237.999 85.0149 238.238 85.0773 237.427L87.2256 243.137C86.7799 243.157 86.3677 243.243 86.1256 243.677L82.553 239.888Z" fill="#16501C"/>
<path d="M101.138 307.394C100.779 304.781 101.607 301.926 99.5605 299.657L100.126 299.051C101.678 299.867 102.182 301.109 101.952 302.855C101.824 303.819 101.598 304.885 102.144 305.848C102.132 306.574 102.18 307.338 101.138 307.394Z" fill="#16501C"/>
<path d="M102.144 305.848C101.414 305.261 101.571 304.423 101.672 303.701C101.931 301.866 101.367 300.36 100.126 299.051C102.01 299.163 102.537 300.258 102.349 301.983C102.209 303.264 102.21 304.559 102.144 305.848Z" fill="#16501C"/>
<path d="M57.7595 366.598C55.0805 365.569 52.4592 364.829 50.1215 363.566C48.6579 362.776 50.385 361.528 50.4907 360.459C50.5687 359.692 50.8742 358.882 52.0196 359.325C54.3563 360.228 56.7 361.114 59.0506 361.983C60.176 362.402 59.8555 363.183 59.4828 363.872C58.9713 364.821 59.1884 366.322 57.7595 366.598Z" fill="white"/>
<path d="M124.475 354.059C128.686 354.018 128.72 354.018 128.77 349.769C128.957 333.753 129.171 317.737 129.241 301.721C129.254 298.991 128.807 296.274 129.897 293.651C130.311 293.154 130.887 293.043 131.483 292.976C135.932 293.14 140.222 292.106 144.527 291.207C146.823 290.554 148.296 288.855 149.739 287.115C148.554 294.356 147.385 301.598 146.183 308.835C143.848 322.893 141.504 336.948 139.15 351.002C138.054 352.79 136.054 353.185 134.385 354.084C132.619 355.531 130.71 355.441 128.732 354.606L128.204 354.586C126.973 354.313 125.623 354.875 124.475 354.059Z" fill="#231F20"/>
<path d="M176.614 361.959L174.515 362.355C172.318 362.471 170.051 363.41 168.002 361.797C167.92 356.862 168.081 351.93 168.111 346.998C168.228 327.603 168.697 308.211 168.588 288.815C168.583 287.853 168.645 286.912 169.003 286.009C171.235 282.458 173.684 279.048 176.335 275.798C177.518 275.784 177.387 276.762 177.525 277.46C177.829 278.999 177.775 280.566 177.758 282.128C177.492 306.925 177.226 331.723 176.961 356.521C176.945 358.335 176.894 360.154 176.614 361.959Z" fill="#424243"/>
<path d="M187.168 124.876C186.21 116.548 185.279 108.217 183.418 100.025C180.875 88.8285 176.958 78.1753 170.996 68.3156C177.859 68.2084 183.491 72.4092 185.14 78.9828C187.625 88.8918 189.844 98.8727 192.558 108.718C194.433 115.516 192.127 120.545 187.168 124.876Z" fill="#C4C4C2"/>
<path d="M164.658 361.586C163.048 361.429 161.46 361.168 159.944 360.574C159.021 359.574 159.145 358.321 159.157 357.121C159.34 338.826 159.532 320.532 159.733 302.238C159.748 300.839 160.096 299.496 160.216 298.118C161.766 295.756 163.317 293.395 165.209 291.282C166.375 291.263 166.302 292.206 166.418 292.924C166.654 294.379 166.671 295.854 166.655 297.325C166.443 317.148 166.225 336.972 166.002 356.796C165.98 358.483 166.302 360.328 164.658 361.586Z" fill="#424143"/>
<path d="M164.658 361.586C164.996 360.427 165.169 359.226 165.169 358.019C165.369 337.414 165.586 316.81 165.82 296.206C165.838 294.535 165.773 292.879 165.208 291.283C166.437 289.494 167.413 287.527 169.008 286.002C169.7 288.174 169.51 290.426 169.488 292.646C169.274 314.742 169.036 336.838 168.774 358.933C168.764 359.923 169.141 361.042 168.18 361.858C167.521 362.396 166.848 362.345 166.169 361.907L164.658 361.586Z" fill="#231F20"/>
<path d="M160.215 298.118C161.499 299.426 160.534 300.953 160.523 302.337C160.385 321.75 160.153 341.162 159.943 360.574C154.963 359.437 154.963 359.437 154.709 354.327C155.246 341.807 155.784 329.287 156.322 316.767C156.508 312.45 156.744 308.136 156.925 303.819C157.028 301.329 159.016 299.959 160.215 298.118Z" fill="#231F20"/>
<path d="M182.759 266.868C182.764 268.512 182.768 270.156 182.772 271.8C182.264 272.692 182.5 273.67 182.489 274.604C182.174 302.618 181.866 330.632 181.565 358.646C181.555 359.584 181.768 360.558 181.311 361.461C180.651 362.012 179.891 361.851 179.143 361.76C177.578 360.787 177.897 359.19 177.907 357.764C177.974 347.519 178.106 337.274 178.215 327.029C178.397 310.099 178.576 293.17 178.755 276.24C178.773 274.495 178.8 272.763 179.647 271.168C180.501 269.603 181.495 268.137 182.759 266.868Z" fill="#3F3F41"/>
<path d="M179.645 271.168C179.341 300.266 179.038 329.363 178.738 358.461C178.726 359.572 178.504 360.722 179.141 361.76L176.614 361.959C176.188 361.823 175.918 361.682 175.925 361.086C176.278 334.221 176.609 307.356 176.917 280.491C176.934 278.915 177.272 277.265 176.338 275.791C177.426 274.24 178.217 272.476 179.645 271.168Z" fill="#231F20"/>
<path d="M153.868 51.0884C148.514 48.9548 142.869 48.4008 137.187 48.0571C136.155 47.9951 135.125 47.9017 134.092 47.8222C132.017 47.9263 131.23 47.0236 131.507 44.9113C131.718 43.3079 131.648 41.6617 131.575 40.0399C131.518 38.8176 132.044 38.3165 133.186 38.2889C139.764 39.3291 146.331 40.418 152.277 43.6868C154.067 44.6707 155.57 44.6038 156.63 42.6346C158.297 44.4306 159.571 46.4576 160.141 48.8617C160.408 49.9948 160.239 51.0967 159.522 52.0663C158.526 52.8934 157.521 52.9838 156.504 52.1038C155.717 51.5264 154.851 51.1548 153.868 51.0884Z" fill="#F4F9F9"/>
<path d="M160.587 57.3729L155.769 54.7892C157.383 54.0386 158.995 54.9523 160.608 54.7832C160.408 55.2536 160.093 55.7899 160.733 56.12C161.871 56.713 160.679 56.9648 160.587 57.3729Z" fill="#24782D"/>
<path d="M156.75 51.6869L159.769 51.6494C158.421 54.8756 156.496 51.9822 154.617 52.3893C155.367 51.4431 156.117 51.8211 156.75 51.6869Z" fill="#24782D"/>
<path d="M160.605 54.7831C160.522 54.1134 159.28 54.5839 159.499 53.7003C159.578 53.3731 160.037 53.2405 160.364 53.4234C160.953 53.7529 161.348 54.1844 160.608 54.7831L160.605 54.7831Z" fill="#24782D"/>
<path d="M154.347 54.124C153.733 54.2759 153.266 53.9616 152.8 53.6397C153.798 52.2668 153.868 53.8466 154.347 54.124Z" fill="#24782D"/>
<path d="M128.248 394.799C135.369 394.998 142.367 394.364 149.061 391.717C150.012 391.341 150.904 390.816 151.823 390.36C152.981 390.054 154.046 389.572 154.929 388.74C155.518 387.652 156.414 387.016 157.654 386.88L160.773 384.679C161.605 385.281 160.945 385.827 160.765 386.28C158.919 390.931 156.976 395.544 155.174 400.211C154.376 402.275 152.636 403.231 150.922 404.144C145.163 407.224 138.923 408.362 132.448 408.423C127.648 408.031 127.615 408.03 127.715 402.997C127.771 400.265 127.459 397.495 128.248 394.799Z" fill="#898C9D"/>
<path d="M181.311 361.46C181.617 332.386 181.926 303.311 182.239 274.236C182.248 273.404 181.966 272.473 182.772 271.798C182.452 301.666 182.132 331.534 181.811 361.402C181.653 361.467 181.48 361.487 181.311 361.46Z" fill="#444547"/>
<path d="M166.167 361.906L168.179 361.858C170.243 362.653 172.414 362.058 174.518 362.351C170.862 363.168 167.133 363.498 163.44 363.08C162.069 362.926 160.538 363.127 158.888 362.269C160.794 361.074 162.325 362.247 163.852 362.462C164.739 362.589 165.691 363.356 166.167 361.906Z" fill="#095A12"/>
<path d="M128.729 354.605L134.383 354.084C135.757 355.006 137.262 354.658 138.871 354.313C138.675 354.681 138.621 354.931 138.515 354.955C135.441 355.648 132.326 355.681 129.205 355.436C129.027 355.423 128.887 354.895 128.729 354.605Z" fill="#095A12"/>
<path d="M175.057 364.235C177.596 364.472 180.017 362.922 182.446 364.314L175.057 364.235Z" fill="#095A12"/>
<path d="M157.654 386.882C156.894 387.718 155.941 388.273 154.929 388.742L153.734 388.432C154.95 387.697 155.654 385.648 157.654 386.882Z" fill="#095A12"/>
<path d="M205.453 360.393C207.253 365.004 207.253 365.004 202.623 366.68C201.973 366.916 201.321 367.148 200.669 367.381C198.267 368.238 196.914 367.215 196.805 364.589C196.756 363.396 197.68 363.457 198.32 363.194C200.685 362.222 203.232 361.726 205.453 360.393Z" fill="white"/>
<path d="M127.526 467.161C124.208 466.478 120.994 465.555 118.385 463.217C121.639 463.531 124.266 465.839 127.555 465.983C130.39 465.438 132.926 463.971 135.787 463.423C133.451 465.586 130.496 466.39 127.526 467.161Z" fill="#2F1F1C"/>
<path d="M129.053 471.408C122.979 471.266 120.078 470.194 118.153 467.139C121.833 468.793 124.9 471.659 129.086 470.318C131.62 470.003 133.66 468.513 135.972 467.604C134.219 469.84 131.807 470.917 129.053 471.408Z" fill="#321E1C"/>
<path d="M126.973 469.223C125.806 468.67 124.392 468.971 123.301 468.15C123.536 467.734 124.047 467.99 124.339 467.719C125.4 467.919 126.465 468.65 127.514 467.69C128.367 468.414 129.274 467.709 130.151 467.788C130.446 468.052 130.952 467.817 131.184 468.229C129.898 469.061 128.309 468.606 126.973 469.223Z" fill="#4D1D1E"/>
<path d="M131.182 468.229L130.149 467.788C132.236 467.392 133.998 466.128 136.601 465.211C134.854 467.264 132.968 467.653 131.182 468.229Z" fill="#492020"/>
<path d="M124.339 467.719L123.301 468.15C121.435 467.633 119.568 467.12 118.366 465.294L124.339 467.719Z" fill="#411D18"/>
<path d="M128.863 293.104C123.13 294.253 117.744 293.379 112.734 290.327C113.625 287.614 113.94 284.737 114.251 281.977C115.263 272.975 116.412 263.954 116.217 254.864C116.094 249.187 115.281 243.649 113.652 238.117C111.249 229.954 107.586 222.458 103.343 215.178C102.347 213.47 100.974 211.981 99.9772 210.273C95.7044 202.952 91.8019 195.477 88.6388 187.561C86.1551 181.345 84.4787 175.005 83.1866 168.503C81.6929 161.008 85.2997 154.964 91.9171 151.248C99.2849 147.111 107.159 145.082 115.285 143.771C120.288 142.964 125.35 142.122 130.48 142.519C129.949 192.02 129.42 241.52 128.893 291.019C129.961 291.73 129.619 292.419 128.863 293.104Z" fill="#3A3C3E"/>
<path d="M128.863 293.104C128.892 292.411 129.38 291.723 128.886 291.023C129.829 290.079 129.405 288.879 129.417 287.803C129.948 240.477 130.463 193.151 130.96 145.824C130.997 142.424 131.456 142.175 134.709 142.635C140.422 143.443 146.169 144.015 151.795 145.36C159.591 147.225 167.37 149.327 173.315 155.075C177.002 158.64 178.578 163.202 177.57 168.515C175.777 178.01 172.535 186.917 168.398 195.68C164.339 204.275 158.685 211.781 153.886 219.857C149.107 227.899 145.26 236.341 143.447 245.606C143.131 247.226 142.851 248.818 142.848 250.481C142.838 255.907 142.651 261.333 142.718 266.758C142.796 273.142 143.672 279.467 144.414 285.801C144.623 287.584 144.87 289.396 144.522 291.204C140.478 293.679 135.949 293.538 131.462 293.626C130.685 293.033 129.644 293.712 128.863 293.104Z" fill="#484A4B"/>
<path d="M127.985 377.005C133.664 377.41 138.743 375.675 144.006 373.594C148.602 371.775 153.8 372.701 158.271 375.317C160.082 376.376 158.118 377.09 157.592 377.555C153.862 380.852 149.609 383.364 145.015 385.248C139.522 387.501 133.843 388.917 127.828 388.464C117.39 387.898 108.162 384.204 100.061 377.656C99.2755 377.019 98.0182 376.333 98.141 375.359C98.2762 374.284 99.7155 374.216 100.687 373.931C105.409 372.546 109.881 371.903 114.621 374.689C118.579 377.015 123.254 377.816 127.985 377.005Z" fill="#C0BDC8"/>
<path d="M128.476 371.019C128.332 371.106 128.184 371.185 128.033 371.256C125.58 371.439 123.085 372.132 120.773 370.643C119.439 369.036 117.958 367.482 119.124 365.119C120.301 362.734 122.343 362.226 124.764 362.398C125.881 362.48 127.01 362.399 128.133 362.393C128.285 362.454 128.434 362.522 128.581 362.596C128.955 365.394 128.919 368.232 128.476 371.019Z" fill="#043D0A"/>
<path d="M120.775 370.643C123.14 371.506 125.619 370.999 128.035 371.256L128.025 371.782C125.656 371.756 123.287 371.731 120.918 371.692C120.516 371.687 119.988 371.698 120.012 371.128C120.016 370.957 120.505 370.804 120.775 370.643Z" fill="#67726E"/>
<path d="M128.476 371.019C127.793 368.248 127.83 365.349 128.581 362.596C130.134 362.577 131.69 362.505 133.242 362.553C135.743 362.629 137.735 364.447 137.799 366.619C137.868 368.936 135.936 371.029 133.387 371.173C131.758 371.266 130.113 371.084 128.476 371.019Z" fill="#095A12"/>
<path d="M128.864 293.104C129.742 293.228 130.732 292.798 131.467 293.629L129.897 293.65C129.474 293.617 129.081 293.528 128.864 293.104Z" fill="#3A3C3E"/>
<path d="M84.6329 239.23C84.7857 239.378 85.0336 239.505 85.0536 239.662C85.0974 240.006 84.9761 240.379 84.5227 240.268C84.3548 240.228 84.2085 239.928 84.1305 239.718C83.9716 239.293 84.4231 239.456 84.6329 239.23Z" fill="#16501C"/>
<path d="M59.2017 377.153L53.0359 392.588L65.5888 387.722L59.2017 377.153Z" fill="#043D0A"/>
<path fill-rule="evenodd" clip-rule="evenodd" d="M139.147 351.001C143.11 353.713 147.386 355.811 151.833 357.604C153.575 358.306 154.579 358.306 154.273 356.012C154.195 355.427 154.221 354.799 154.71 354.327C154.93 354.474 155.195 354.677 155.184 354.909C154.975 358.393 157.221 359.486 160.088 359.983C161.072 360.255 162.07 360.465 163.068 360.675L163.068 360.675L163.068 360.675C163.646 360.797 164.224 360.919 164.8 361.052C165.334 361.133 165.839 361.287 166.249 361.659C166.48 362.316 166.392 362.667 166.139 362.851C167.302 362.778 168.458 362.591 169.613 362.404L169.614 362.404L169.614 362.404C171.203 362.147 172.789 361.89 174.385 361.933C174.657 361.871 174.93 361.818 175.204 361.766L175.204 361.766L175.204 361.766C175.683 361.674 176.162 361.582 176.63 361.439C177.385 361.265 178.153 361.24 178.922 361.248C179.656 361.271 180.389 361.239 181.108 361.073C181.351 361.029 181.598 361.02 181.843 361.046C182.076 361.126 182.298 361.233 182.506 361.364L189.55 360.532C191.996 362.227 193.332 364.87 194.342 367.407C195.86 371.218 197.146 375.175 197.803 379.275C198.07 379.632 198.493 380.391 198.916 381.151C199.407 382.031 199.898 382.912 200.145 383.164C200.528 383.556 202.434 390.718 202.519 394.348C202.616 394.371 202.712 394.395 202.809 394.418L202.847 399.645C202.958 400.881 202.147 401.224 201.152 401.469C199.759 401.812 198.37 402.177 196.983 402.541C196.304 402.72 195.626 402.898 194.947 403.074C194.942 403.077 194.937 403.079 194.931 403.082L193.923 403.754C191.182 404.479 188.643 405.688 186.105 406.898L186.105 406.898C184.929 407.458 183.754 408.018 182.558 408.53C177.337 410.768 172.157 413.115 167.054 415.61C163.487 417.355 162.762 420.828 162.051 424.237L162.051 424.238C161.986 424.551 161.92 424.863 161.853 425.174C161.763 425.591 161.777 426.025 161.791 426.46C161.815 427.23 161.84 428 161.29 428.679C160.782 430.351 159.497 431.326 158.21 432.304L158.209 432.304C158.044 432.43 157.879 432.555 157.716 432.682C155.906 434.084 154.18 435.506 154.456 438.201C154.519 438.84 154.539 440.013 153.191 439.646C153.225 439.901 153.263 440.157 153.302 440.413C153.558 442.123 153.815 443.832 152.767 445.487L148.603 446.48C147.625 445.123 147.724 443.63 147.823 442.142C147.861 441.564 147.899 440.987 147.875 440.419C147.755 437.677 147.628 437.39 144.911 437.395C143.098 437.399 141.289 437.506 139.479 437.613C136.792 437.772 134.104 437.931 131.406 437.753C131.088 437.731 130.767 437.726 130.447 437.72C129.642 437.707 128.837 437.693 128.054 437.428C127.755 437.306 127.501 437.095 127.326 436.823C127.265 436.626 127.352 436.429 127.439 436.231C127.569 435.938 127.699 435.644 127.342 435.347C126.926 433.532 127.02 431.701 127.114 429.875L127.114 429.875C127.144 429.3 127.173 428.725 127.187 428.151C127.233 426.178 127.222 424.203 127.211 422.228C127.189 418.263 127.166 414.296 127.609 410.343C127.964 410.041 127.843 409.735 127.722 409.428C127.64 409.219 127.557 409.01 127.626 408.802C128.39 408.071 129.306 408.082 130.222 408.093C130.833 408.101 131.444 408.108 132.009 407.895C136.86 407.668 141.633 407.044 146.281 405.482C150.936 403.913 154.592 401.553 156.065 396.415C156.806 393.826 157.88 391.325 158.965 388.798L158.965 388.798C159.297 388.025 159.63 387.25 159.955 386.469C159.538 386.451 159.212 386.624 158.9 386.789C158.599 386.949 158.312 387.101 157.968 387.069C157.719 387.112 157.454 387.13 157.188 387.147C156.109 387.22 155.027 387.292 155.061 389.031C154.321 390.317 153.116 390.661 151.75 390.689C151.219 390.547 150.692 390.627 150.165 390.707C149.676 390.78 149.187 390.854 148.695 390.751C147.785 390.56 147.765 390.498 148.201 389.474C148.215 389.441 148.08 389.448 147.977 389.453L147.977 389.453C147.954 389.454 147.933 389.455 147.915 389.456C147.169 389.481 146.83 389.08 146.768 388.38C146.962 387.103 147.966 386.691 148.919 386.301L148.919 386.301C149.072 386.239 149.223 386.177 149.37 386.112C154.492 383.85 159.097 380.796 163.321 377.143C163.456 377.026 163.438 377.048 163.423 377.065C163.409 377.081 163.399 377.093 163.524 376.981C163.655 376.864 163.792 376.746 163.93 376.627L163.93 376.626C164.883 375.805 165.915 374.915 165.642 373.637C165.351 372.273 163.83 372.117 162.635 371.995C162.574 371.988 162.513 371.982 162.453 371.976C162.428 371.973 162.403 371.97 162.377 371.968C155.561 371.221 150.3 368.024 146.452 362.365C144.093 358.898 140.566 357.721 136.543 357.672C135.324 357.383 134.078 357.411 132.833 357.44C131.303 357.475 129.773 357.51 128.296 356.955C127.651 356.405 127.622 355.71 127.824 354.964C127.87 354.84 127.943 354.728 128.037 354.634C128.131 354.541 128.245 354.47 128.37 354.426C129.917 355.113 131.528 355.006 133.14 354.899C133.764 354.858 134.388 354.817 135.008 354.821C134.753 354.685 134.523 354.473 134.33 354.14C135.228 352.809 136.585 352.191 137.942 351.574L137.942 351.574C138.348 351.389 138.754 351.205 139.147 351.001ZM163.224 362.689C163.32 362.717 163.416 362.745 163.511 362.772C162.909 362.688 162.304 362.551 161.696 362.346C162.227 362.396 162.728 362.543 163.224 362.689ZM153.109 438.265C153.104 438.445 153.1 438.624 153.101 438.803C153.066 438.346 153.061 437.89 153.111 437.436C153.121 437.712 153.115 437.988 153.109 438.265Z" fill="#095A12"/>
</svg>
