<svg width="364" height="772" viewBox="0 0 364 772" fill="none" xmlns="http://www.w3.org/2000/svg">
<g clip-path="url(#clip0_370_1612)">
<path d="M204.874 770.363C204.858 770.61 204.845 770.856 204.836 771.103L177.842 771.1C177.603 770.611 177.71 770.214 178.163 769.911C179.468 769.157 180.917 769.281 182.337 769.213C188.436 769.025 194.525 769.125 200.619 769.154C202.122 769.161 203.7 769.102 204.874 770.363Z" fill="#DEE0E1"/>
<path d="M177.902 770.38C177.872 770.62 177.854 770.86 177.846 771.1L161.649 771.098C161.422 770.568 161.555 770.155 162.048 769.857C167.365 768.933 172.68 768.206 177.902 770.38Z" fill="#C0C0C2"/>
<path d="M161.576 770.398C161.605 770.632 161.627 770.865 161.646 771.098L155.476 771.097C155.476 770.865 155.46 770.633 155.435 770.403C157.481 768.802 159.528 768.8 161.576 770.398Z" fill="#DBDDDE"/>
<path d="M204.874 770.363L181.629 770.284C180.313 768.787 180.465 766.932 180.464 765.15C180.446 719.163 180.452 673.176 180.481 627.189C180.481 625.651 180.458 624.096 181.174 622.664C182.086 621.274 183.556 621.227 184.952 621.274C188.047 621.37 191.086 620.954 194.119 620.484C215.512 619.408 236.023 614.542 255.715 606.136C272.51 598.965 287.093 588.67 299.462 575.25C304.189 570.116 308.089 564.401 311.862 558.566C313.436 556.134 313.022 553.683 312.252 551.159C307.826 536.66 303.543 522.115 299.096 507.627C295.929 497.309 292.999 486.92 289.772 476.622C287.847 470.498 285.756 469.407 279.728 471.844C260.915 479.45 241.501 484.688 221.362 487.225C209.365 488.736 197.331 489.514 185.236 489.128C183.588 489.076 181.802 489.216 180.956 487.25C180.359 485.367 180.49 483.429 180.489 481.508C180.488 413.328 180.495 345.147 180.508 276.966C180.508 276.067 180.496 275.168 180.535 274.269C180.728 269.73 181.271 269.194 186.029 268.8C202.919 268.453 219.776 269.363 236.64 270.083C245.969 270.482 255.294 270.932 264.616 271.435C266.857 271.554 267.576 270.548 267.69 268.558C267.797 266.674 267.433 264.678 268.774 263.027C270.938 263.064 270.511 264.863 270.768 266.097C271.025 267.332 270.82 268.658 271.103 269.92C271.541 271.861 273.13 272.087 274.676 272.166C276.381 272.259 276.747 270.981 276.88 269.61C276.988 268.461 276.957 267.304 276.957 266.151C276.961 229.609 276.97 193.066 276.984 156.521C276.984 153.688 276.795 150.887 276.215 148.123C275.945 146.652 276.737 144.994 275.444 143.694C274.094 141.473 273.677 138.843 272.322 136.622C269.884 132.12 266.023 128.882 262.143 125.81C249.103 115.489 233.965 109.87 217.811 106.691C215.804 106.295 213.8 105.88 211.776 105.564C209.858 105.115 207.934 104.708 205.977 104.456C204.289 104.367 202.587 104.467 200.922 104.071C198.504 103.294 195.931 103.963 193.502 103.272C190.966 102.63 188.386 103.015 185.83 102.911C181.544 102.735 180.648 101.985 180.593 97.6276C180.462 87.1063 180.556 76.5839 180.552 66.0626C180.552 63.3684 180.514 60.6742 180.615 57.9799C180.722 55.1883 182.028 53.7425 184.917 53.7354C187.996 53.7271 191.077 53.7415 194.151 53.6958C218.404 53.979 242.269 56.9842 265.579 63.9253C266.953 64.3341 269.016 66.1793 269.847 63.8189C270.617 61.6306 270.715 58.9225 268.362 57.136C267.117 56.1894 265.609 55.7646 264.147 55.2863C250.888 50.9486 237.195 48.8656 223.38 47.4232C215.598 46.6126 207.776 46.3165 199.988 45.5828C198.755 45.219 197.491 44.9836 196.236 44.7096C191.785 43.9304 187.326 44.1973 182.86 44.5679C182.408 44.6201 181.95 44.5807 181.513 44.4522C181.294 44.378 181.099 44.2468 180.947 44.0719C180.796 43.897 180.694 43.6849 180.652 43.4574C181.025 37.9385 179.676 32.3221 181.584 26.8878C186.416 24.9193 191.487 25.7478 196.389 26.0629C211.622 27.0455 226.809 28.6175 241.824 31.506C243.964 31.917 246.139 32.1868 248.166 33.0417C254.41 41.5583 264.429 43.0751 273.366 46.6517C286.217 51.7958 299.338 56.3409 311.341 63.41C315.803 66.7819 320.328 70.0681 325.056 73.072C329.363 76.9989 331.311 82.3887 333.734 87.4277C338.901 98.1721 343.286 109.211 344.738 121.184C344.83 121.946 345.043 122.693 344.524 123.385C345.538 126.507 345.495 129.654 344.857 132.845C343.898 137.635 344.311 142.534 343.958 147.374C342.697 164.701 340.401 181.891 338.589 199.14C337.482 209.683 338.385 220.435 338.378 231.093C338.378 231.735 338.313 232.37 338.278 233.009C336.272 232.567 336.411 230.726 336.095 229.358C334.705 223.349 331.296 219.404 325.326 217.428C320.34 215.778 315.579 213.469 310.595 211.771C304.221 209.602 300.687 211.905 300.099 218.626C299.151 229.481 299.005 240.377 298.427 251.248C297.992 259.436 298.08 267.644 297.375 275.823C296.881 281.674 296.654 287.546 296.427 293.397C295.96 305.392 295.149 317.388 295.507 329.409C295.36 341.353 295.43 353.294 295.478 365.234C295.633 366.384 295.56 367.541 295.529 368.695C295.035 387.056 296.702 405.387 296.363 423.742C295.839 452.448 303.907 479.552 311.472 506.764C313.702 514.786 316.232 522.722 318.821 531.568C319.295 522.576 319.91 514.484 320.228 506.353C321.424 475.805 321.107 445.247 320.756 414.704C320.566 398.155 320.724 381.579 319.978 365.053C319.475 353.88 319.865 342.716 319.304 331.575C318.91 323.752 318.534 315.943 318.625 308.111C318.647 306.315 318.587 304.514 318.934 302.736C320.147 300.293 318.492 296.919 321.414 295.027C325.25 294.739 328.217 296.97 331.42 298.507C333.147 299.335 334.591 300.686 336.471 301.337C337.7 300.143 337.144 298.649 337.148 297.329C337.191 278.315 337.161 259.302 337.208 240.288C337.208 238.299 336.707 236.126 338.423 234.462C339.718 236.174 339.198 238.173 339.201 240.041C339.243 260.957 339.709 281.887 339.132 302.786C337.369 366.654 338.902 430.528 338.315 494.394C337.988 496.794 335.747 497.021 334.164 497.782C331.591 499.016 330.582 500.593 331.292 503.514C332.104 506.849 333.168 510.106 333.996 513.427C334.637 515.994 337.109 516.998 338.304 519.049C338.309 533.425 338.526 547.806 338.215 562.176C338.086 568.147 340.958 573.276 341.637 579.017C342.526 586.504 343.196 594.017 343.511 601.502C344.029 613.802 344.257 626.177 343.526 638.457C341.853 666.479 334.864 692.981 318.25 716.193C307.889 730.671 294.644 741.988 279.064 750.611C262.063 760.021 243.778 765.581 224.706 768.602C218.167 769.635 211.558 770.643 204.874 770.363Z" fill="#FBB244"/>
<path d="M344.526 123.392C341.677 106.852 335.486 91.5553 327.304 76.989C326.537 75.6209 325.459 74.5801 324.377 73.5093C320.684 67.8626 316.287 62.9047 310.468 59.3455C295.74 49.7978 279.868 42.8042 263.053 37.8276C258.39 36.4462 253.403 36.3589 248.958 34.1786C226.809 29.5896 204.463 26.8531 181.804 27.1113C180.393 28.2812 178.688 28.1559 177.025 28.1803C156.421 28.5543 136.05 31.0043 115.859 35.018C93.5188 39.3502 72.4398 46.9501 53.208 59.3002C47.9869 63.5201 42.1742 67.1912 39.6727 73.9313C30.4829 87.6495 24.7158 102.793 20.88 118.757C20.4732 120.452 20.8988 122.755 18.3382 123.303C16.2657 104.751 22.0127 87.6131 27.857 70.4837C29.4241 65.8847 31.1602 61.3061 32.173 56.5799C33.8678 48.6749 38.6953 43.2015 44.7125 38.3336C61.6771 24.6088 81.3898 16.613 102.142 10.9394C125.127 4.6553 148.636 1.68047 172.423 0.781731C177.854 -0.446533 183.388 0.813053 188.841 0.0981812C189.996 0.935793 191.434 0.0428795 192.616 0.715784C220.971 2.33429 248.95 6.05014 275.915 15.4645C291.459 20.8913 306.117 27.9821 318.983 38.4654C324.862 43.2535 329.292 48.7174 331.374 56.365C334.689 68.5478 338.861 80.4954 342.711 92.5316C345.861 102.387 345.277 112.544 345.199 122.658C345.198 122.905 344.76 123.148 344.526 123.392Z" fill="#010101"/>
<path d="M296.574 275.122C296.844 255.628 297.786 236.161 299.042 216.71C299.397 211.219 303.999 208.214 309.191 210.09C316.279 212.651 323.242 215.565 330.23 218.394C332.767 219.42 334.258 221.568 335.205 223.994C336.362 226.951 337.267 230.007 338.279 233.021C338.328 233.501 338.376 233.98 338.423 234.46L338.414 304.905C333.32 300.172 327.566 297.38 321.33 295.502C320.36 295.78 319.444 295.575 318.548 295.2C311.546 290.521 305.035 285.15 297.985 280.545C295.761 279.091 296.171 277.152 296.574 275.122Z" fill="#020202"/>
<path d="M338.304 519.047C335.522 518.467 334.007 516.671 333.284 514.007C332.221 510.094 331.132 506.184 329.958 502.303C329.226 499.885 330.104 498.559 332.347 497.597C334.415 496.714 336.333 495.474 338.316 494.389C344.95 491.135 351.665 488.044 358.17 484.551C361.089 482.992 361.658 484.019 362.3 486.642C364.193 494.354 362.481 501.26 357.375 507.07C352.269 512.88 346.504 517.995 338.304 519.047Z" fill="#020302"/>
<path d="M192.617 0.718962C191.333 0.648214 189.904 1.5069 188.842 0.10136L192.619 0.189507C192.609 0.36583 192.609 0.542563 192.617 0.718962Z" fill="#CAC9C9"/>
<path d="M18.3353 123.306C19.9662 121.762 19.6198 119.586 20.0726 117.685C23.4364 103.443 28.8683 90.0333 36.0807 77.3192C36.9112 75.855 37.9075 74.5845 39.2034 73.5333C42.8601 69.2929 48.0286 66.9983 52.201 63.4189C65.012 56.202 78.7291 51.0634 92.4355 45.9065C96.4022 44.4096 100.345 42.8357 104.42 41.6469C108.7 40.3949 111.545 37.2304 114.564 34.2777C136.721 29.4834 159.118 26.9396 181.804 27.1135C181.385 32.7554 182.65 38.4755 181.007 44.0595C178.07 46.0966 174.684 45.9177 171.377 45.8916C152.33 45.7438 133.465 47.394 114.807 51.2464C109.277 52.388 103.791 53.7222 98.4617 55.6296C97.2536 56.0573 96.0006 56.4294 94.9722 57.2175C93.5939 58.2719 92.7556 62.6827 93.7837 63.9909C95.1028 65.6681 96.617 64.3249 97.946 63.9187C115.709 58.4832 133.951 55.8489 152.411 54.4148C164.94 53.4419 177.473 52.637 190.046 52.9466C191.853 52.9906 194.005 52.3855 195.123 54.651C191.67 54.6987 188.216 54.8384 184.766 54.7567C182.714 54.7094 181.741 55.2398 181.752 57.5244C181.822 71.3638 181.82 85.2025 181.747 99.0405C181.735 101.287 182.639 101.822 184.709 101.884C187.863 101.982 191.091 101.219 194.172 102.489C192.019 104.513 189.347 103.444 186.903 103.665C185.267 103.81 183.607 103.696 181.959 103.715C175.397 104.099 168.813 103.337 162.258 104.052C160.165 104.654 157.94 104.138 155.853 104.8C154.297 105.228 152.643 105.033 151.103 105.557C133.22 108.702 116.278 114.216 101.723 125.539C97.6792 128.687 93.9893 132.254 90.9799 136.447C89.715 138.389 89.1604 140.652 88.18 142.722C87.1965 144.014 87.0744 145.479 87.3321 147.023C86.9637 149.184 86.3685 151.293 85.8675 153.425C85.2328 154.613 84.7266 155.834 84.8548 157.23C84.8268 158.728 84.8684 160.234 84.4958 161.706C82.6247 176.438 81.9081 191.233 81.8785 206.07C81.0352 224.563 80.376 243.055 81.8289 261.542C81.9559 264.496 81.5768 267.461 81.9252 270.409C82.1497 272.305 82.8878 273.525 85.1125 272.802C85.4956 272.75 85.8701 272.723 86.2531 272.701C87.2707 272.594 88.2648 272.357 89.2706 272.242C91.7199 271.961 92.8093 270.657 92.754 268.178C92.7029 265.899 92.5555 263.597 92.9282 261.338C93.1006 260.295 93.0355 258.601 95.0513 259.489C96.3403 262.314 95.6926 265.311 95.7885 268.229C95.8664 270.667 96.7415 271.545 99.3192 271.407C115.192 270.572 131.082 269.997 146.954 269.268C158.483 268.74 170.05 269.553 181.542 268.122C183.345 267.897 185.474 267.54 186.614 269.762C182.252 269.301 181.665 271.542 181.671 275.43C181.793 346.312 181.82 417.195 181.752 488.078C180.592 489.394 179.006 489.167 177.523 489.187C173.243 489.245 168.955 489.192 164.676 489.222C137.662 487.897 111.369 483.055 86.264 472.715C82.4229 471.132 78.7475 470.179 74.7326 471.636C73.0206 471.551 71.6383 470.481 70.0409 470.003C66.2617 468.874 66.4255 468.45 67.5195 464.526C68.1768 462.165 68.0551 459.46 67.8254 456.932C67.5582 453.999 67.6698 451.306 70.0733 449.18C71.1338 448.244 71.1319 446.904 71.1641 445.611C71.1986 444.202 71.0992 442.78 71.5028 441.405C71.7672 440.505 72.2456 439.587 73.2557 439.611C74.453 439.634 74.4582 440.757 74.487 441.63C74.5286 442.887 74.6568 444.155 74.6213 445.402C73.0732 435.285 72.3212 425.149 73.416 414.699C72.1 414.217 70.4743 416.457 69.0664 414.864C67.7537 413.379 68.1573 411.463 68.1201 409.695C68.0424 405.977 68.2119 402.255 67.9599 398.528C67.8723 370.833 68.0116 343.147 67.8844 315.462C67.8385 305.608 67.2908 295.758 66.5334 285.928C66.3752 283.878 66.3198 281.831 66.594 279.796C66.8628 278.348 67.3102 276.941 67.8186 275.552C67.9439 275.211 68.0327 274.867 67.9429 274.502C67.9525 274.97 67.7695 275.327 67.3307 275.538C67.122 275.537 66.9178 275.477 66.7411 275.366C66.5644 275.255 66.4221 275.097 66.3303 274.91C65.9278 274.099 65.7435 273.197 65.7957 272.294C66.2248 263.191 65.1195 254.135 64.8959 245.05C64.6648 235.722 64.3246 226.376 63.366 217.079C62.9107 212.666 59.61 209.977 55.286 211.17C47.6244 213.285 40.2613 216.319 33.1453 219.875C31.0052 220.944 29.8878 223.067 28.8582 225.163C28.2514 226.397 27.9623 227.889 26.4171 228.434C24.9385 227.563 25.6417 226.126 25.6322 224.967C25.5658 216.779 25.6224 208.591 25.5667 200.403C25.5604 199.476 26.1533 198.371 25.1123 197.582C23.3497 191.293 23.0359 184.766 22.3262 178.342C20.4458 161.327 19.1064 144.262 18.3081 127.146C18.2526 125.868 18.3266 124.586 18.3353 123.306Z" fill="#E38800"/>
<path d="M25.1607 494.278C25.1051 494.027 25.1052 493.766 25.1608 493.515C25.9368 492.197 25.5517 490.749 25.553 489.37C25.5831 429.918 25.5903 370.467 25.5748 311.014C25.5749 309.64 25.9956 308.188 25.1547 306.885C24.2026 305.675 24.299 304.248 24.2992 302.833C24.3068 281.637 24.3172 260.441 24.3305 239.245C24.3307 237.608 24.0452 235.883 25.1069 234.397C26.8283 236.06 26.3241 238.232 26.3271 240.222C26.362 260.771 26.3605 281.319 26.3355 302.132C31.1895 298.867 35.914 295.802 41.6183 294.85C43.5389 295.377 43.8651 297.096 44.4641 298.625C44.66 299.331 44.7882 300.054 44.8469 300.784C44.9129 321.053 44.277 341.306 43.5041 361.556C43.3023 366.818 43.5231 372.081 43.377 377.341C42.2882 416.728 42.7371 456.125 42.5686 495.509C42.261 499.344 42.451 503.199 42.3906 507.048C42.3766 507.947 42.4225 508.856 42.2073 509.733C41.9311 510.866 41.5896 512.228 40.1141 511.941C38.9179 511.71 38.8827 510.352 38.9781 509.36C39.4142 504.78 40.1423 500.228 39.8636 495.592C39.7408 493.56 39.8149 491.518 39.493 489.489C40.4899 492.819 39.2782 496.175 39.8449 499.555C40.2106 501.736 37.6531 503.678 35.3675 503.464C34.8432 503.415 35.1716 503.978 35.1427 504.234C34.9381 506.035 34.5912 507.806 33.7094 509.396C32.9313 510.799 32.0699 511.014 31.4089 509.252C31.0239 507.173 31.8427 505.26 32.3009 503.316C32.8854 500.838 32.0692 499.292 29.8469 498.048C28.1115 497.081 25.5413 496.973 25.1607 494.278Z" fill="#E38800"/>
<path d="M42.1894 295.477C35.9702 297.418 30.1352 300.075 25.0895 305.041L25.0981 234.398L25.3295 232.274C25.7951 230.939 25.4818 229.368 26.5637 228.222C28.1224 221.971 32.0081 218.13 38.1812 216.157C43.5315 214.447 48.6592 212.055 53.9571 210.162C59.4144 208.213 64.1167 211.042 64.4873 216.661C65.769 236.105 66.6751 255.568 66.9605 275.06C68.3277 277.556 66.9964 279.261 65.1301 280.596C58.4741 285.355 52.0502 290.434 45.2593 295.006C44.6074 295.317 43.9174 295.542 43.2069 295.675C42.8557 295.709 42.5022 295.64 42.1894 295.477Z" fill="#020202"/>
<path d="M25.161 494.278C25.7655 494.699 26.3326 495.194 26.9799 495.532C34.1988 499.293 34.1988 499.286 32.2461 507.357C32.1284 507.844 32.139 508.36 32.0854 508.862C31.3652 509.66 32.0114 510.535 31.9482 511.372C31.6698 512.967 31.0918 514.46 30.3876 515.911C30.1431 516.405 29.863 516.88 29.5495 517.334C28.3873 518.714 27.0337 519.604 25.1216 519.051C15.3922 517.967 3.66188 507.361 1.12824 497.36C-0.0953722 493.449 0.497885 489.577 1.34367 485.701C1.80189 483.586 2.62797 483.197 4.70153 484.237C11.4914 487.636 18.033 491.559 25.161 494.278Z" fill="#020302"/>
<path d="M25.1497 306.89C26.4646 308.001 25.9423 309.518 25.9421 310.862C25.9605 370.419 25.9533 429.976 25.9203 489.533C25.9201 490.88 26.4378 492.391 25.158 493.521C25.1233 488.52 25.0597 483.519 25.0592 478.519C25.0589 422.976 25.0656 367.434 25.0796 311.891C25.0787 310.22 25.1249 308.553 25.1497 306.89Z" fill="#E38800"/>
<path d="M26.562 228.222C26.2558 229.605 26.2032 231.063 25.3278 232.273C25.2579 220.707 25.188 209.143 25.118 197.578C26.5735 195.473 25.9473 197.793 25.9483 198.026C25.9826 206.734 25.9558 215.442 25.9965 224.151C26.0027 225.513 25.5371 226.984 26.562 228.222Z" fill="#E38800"/>
<path d="M181.734 622.357C181.722 669.484 181.711 716.611 181.698 763.739C181.698 765.92 181.654 768.102 181.63 770.284C180.386 770.316 179.142 770.348 177.898 770.38L161.577 770.398L155.435 770.398C135.194 768.742 115.426 765.092 96.8325 756.497C96.4955 755.967 96.8069 755.549 97.0563 755.118C97.0428 751.696 95.3172 749.015 93.3583 746.425C93.1737 746.099 93.0228 745.754 92.908 745.396C89.0679 735.277 84.4573 725.48 80.5595 715.384C68.7214 684.312 58.8962 652.636 52.3228 620.019C50.4529 610.742 48.8279 601.41 47.4481 592.025C47.2802 590.872 47.2846 589.723 47.5993 588.594C49.7269 585.245 49.8023 581.709 48.8461 577.941C48.1264 575.109 47.3991 572.233 47.3492 569.284C47.3184 567.585 46.8852 565.687 48.606 564.416C49.7423 564.82 49.7604 565.721 49.8287 566.626C49.8351 566.713 49.0861 567.268 50.0737 567.119C53.7396 566.559 53.3156 569.152 53.2682 571.418C53.2018 571.645 53.0595 571.833 52.9611 572.039C52.793 572.387 52.3083 572.285 52.166 572.642C52.4527 572.444 52.777 572.29 52.9814 571.974C54.9418 571.111 56.6422 569.32 59.1021 570.322C62.7172 573.585 65.9632 577.217 69.3932 580.665C84.3084 595.658 102.454 605.141 122.283 611.727C135.479 616.114 149.067 618.776 162.869 620.215C167.565 620.703 172.285 621.285 177.036 621.297C178.65 621.306 180.415 620.922 181.734 622.357Z" fill="#E38800"/>
<path d="M97.6368 755.669L96.8321 756.501C85.2144 752.08 74.8629 745.525 65.3311 737.642C39.922 716.631 27.066 688.865 21.9884 656.921C18.8108 636.92 19.3557 616.848 20.3608 596.737C20.7437 589.056 21.2337 581.42 22.7283 573.857C23.1384 571.785 23.787 569.928 25.0958 568.296C26.0365 567.706 24.9966 566.168 26.3106 565.755C30.6976 566.262 31.0015 566.07 31.0192 561.755C31.0687 550.73 31.0422 539.705 31.0392 528.679C31.0395 526.32 30.6514 524.105 29.205 522.139C28.6305 521.358 27.8505 520.56 28.5312 519.38C30.0049 516.826 37.8246 516.541 39.2046 519.141C40.2744 521.154 41.0552 523.526 40.8195 525.731C40.1478 532.042 40.604 538.165 42.113 544.33C42.7269 546.832 41.2178 549.54 41.791 552.223C41.525 549.467 42.2443 546.798 42.4629 544.084C42.5412 543.105 42.9029 542.224 44.1248 543.229C45.3687 546.936 44.4898 550.756 44.7344 554.516C44.8732 556.655 44.4909 558.819 45.1273 560.922C45.8752 570.355 46.5471 579.799 47.4394 589.227C48.5144 600.593 50.6691 611.788 52.8795 622.949C57.6434 647.006 64.5764 670.489 72.7132 693.613C75.3872 701.228 78.0838 708.842 81.2705 716.264C84.8538 726.319 89.4783 735.932 93.786 745.679C93.786 745.918 93.7784 746.159 93.7752 746.399C95.5372 749.293 97.5763 752.069 97.6368 755.669Z" fill="#E38800"/>
<path d="M25.9351 565.987C25.8986 566.843 26.0825 567.781 25.0959 568.293L25.1339 519.717C25.4664 519.396 25.8116 519.384 26.1697 519.678C26.5688 520.163 26.7913 520.726 26.9346 521.332C27.2287 522.615 27.0017 523.918 27.1053 525.213C27.1873 536.99 27.1581 548.762 27.1256 560.532C27.1211 562.41 27.4547 564.416 25.9351 565.987Z" fill="#E38800"/>
<path d="M25.9232 519.734L25.1346 519.718C25.0833 519.5 25.0789 519.273 25.1218 519.053C26.4637 518.244 28.3319 518.326 29.1764 516.675C30.3114 518.79 29.3494 519.693 25.9232 519.734Z" fill="#E38800"/>
<path d="M181.734 622.357C163.306 622.007 145.176 619.598 127.461 614.414C100.227 606.444 76.6 592.77 58.3751 570.593C53.4535 566.968 50.8112 561.701 48.3551 556.367C47.5988 554.724 48.4272 552.837 48.9603 551.108C56.4534 526.83 63.5901 502.437 71.0585 478.148C71.8164 475.688 71.8403 472.693 74.6086 471.189C77.4134 468.568 80.4629 469.201 83.5754 470.499C100.712 477.648 118.46 482.609 136.821 485.382C145.847 486.762 154.937 487.383 164.012 488.211C174.001 488.927 184.003 488.313 193.997 488.541C195.51 488.575 197.07 488.208 198.667 488.939C197.937 491.051 196.079 490.717 194.561 490.828C191.746 491.032 188.915 490.858 186.092 490.943C184.059 491.005 183.025 491.941 183.002 494.008C182.989 495.162 182.959 496.318 182.959 497.472C182.954 535.843 182.95 574.215 182.945 612.587C182.945 613.485 183.01 614.389 182.945 615.281C182.719 618.428 184.183 619.513 187.277 619.6C189.845 619.672 192.967 618.288 194.816 621.482L181.734 622.357Z" fill="#262525"/>
<path d="M194.818 621.484C191.652 619.922 188.284 620.896 185.022 620.824C182.567 620.769 181.668 620.105 181.672 617.532C181.742 575.925 181.749 534.319 181.694 492.714C181.694 490.334 182.515 489.566 184.831 489.637C189.165 489.771 193.506 489.676 197.843 488.911C188.427 488.91 179.011 488.953 169.595 488.87C167.737 488.852 165.736 489.546 164.013 488.216L181.749 488.081C213.964 489.114 245.17 484.131 275.25 472.421C277.162 471.673 279.054 470.877 280.982 470.176C286.011 468.353 288.793 469.666 290.361 474.838C298.261 500.975 306.084 527.136 314.015 553.263C314.604 555.207 314.275 556.666 313.295 558.304C304.733 572.645 293.56 584.524 279.774 593.939C254.155 611.368 225.476 619.514 194.818 621.484Z" fill="#2D2E2D"/>
<path d="M296.574 275.122C296.519 277.555 297.45 279.053 299.676 280.535C306.403 285.022 312.803 289.996 319.331 294.781C320.728 297.215 320.32 299.765 319.822 302.322C320.194 321.707 320.567 341.091 320.94 360.476C321.91 411.588 322.942 462.699 321.17 513.812C320.93 520.735 320.244 527.644 319.762 534.6C317.767 534.445 318.028 532.744 317.714 531.723C309.717 505.731 302.122 479.633 296.984 452.893C295.299 444.129 295.845 435.221 295.551 426.381C294.876 406.105 294.077 385.825 294.42 365.522C295.152 358.671 294.678 351.798 294.709 344.935C294.732 339.732 295.138 334.511 294.428 329.32C294.177 311.219 294.954 293.155 296.574 275.122Z" fill="#2D2E2D"/>
<path d="M90.0849 136.203C93.0056 131.241 97.3535 127.637 101.836 124.25C116.37 113.267 133.011 107.514 150.865 104.883C151.892 104.621 153.169 103.758 153.203 105.864C152.007 106.968 150.436 107.154 148.963 107.557C136.633 110.93 125.485 116.521 115.941 125.118C110.132 130.351 106.379 136.724 104.899 144.476C102.751 155.725 101.889 167.116 101.217 178.505C100.054 198.24 100.464 218.011 100.307 237.77C100.251 244.848 101.375 251.849 101.148 258.911C101.06 261.602 102.497 262.13 104.812 261.907C112.73 261.149 120.682 260.752 128.591 260.05C135.89 259.402 143.215 259.303 150.49 259.043C160.993 258.664 171.498 257.74 182.03 258.02C190.387 257.45 198.675 259.213 207.026 258.724C209.844 259.003 212.688 258.624 215.498 259.053C216.604 259.374 217.719 259.614 218.892 259.599C232.106 259.424 245.24 260.63 258.375 261.929C260.185 262.107 262.12 262.478 262.35 259.758C262.636 256.582 262.209 253.386 262.672 250.223C263.29 248.495 263.253 246.693 263.241 244.9C263.144 228.856 263.69 212.801 263.068 196.784C262.394 179.391 261.994 161.943 258.632 144.733C256.862 135.675 252.344 128.675 245.249 122.988C236.605 116.062 227.017 111.087 216.36 108.13C214.522 107.619 212.583 107.279 211.117 105.872C210.892 105.028 211.057 104.531 212.081 104.793C234.48 108.293 255.005 115.751 270.974 132.764C271.963 133.818 273.542 134.69 272.999 136.599C273.244 138.08 272.729 139.405 272.047 140.649C269.249 145.757 268.487 151.215 268.548 156.998C268.809 181.253 269.477 205.5 269.557 229.761C269.588 239.1 270.07 248.478 270.11 257.84C270.117 259.607 270.364 261.477 269.05 262.988C268.45 266.25 270.498 270.705 268.222 272.507C266.356 273.982 262.115 272.43 258.924 272.268C234.841 271.043 210.753 269.909 186.631 269.762C183.33 268.764 180.007 269.594 176.701 269.692C158.599 270.231 140.496 270.767 122.399 271.433C114.059 271.74 105.726 272.261 97.4021 272.868C95.1978 273.028 94.4606 272.533 94.5465 270.273C94.6871 266.559 94.5346 262.834 94.5062 259.114C93.2715 257.723 93.4365 255.994 93.4517 254.349C93.6312 229.832 94.3051 205.322 94.4237 180.8C94.4632 172.617 94.7638 164.388 95.0248 156.183C95.1935 150.904 94.093 145.982 91.7835 141.292C90.9713 139.688 90.399 137.973 90.0849 136.203Z" fill="#020202"/>
<path d="M195.124 54.6488C194.25 54.4915 193.377 54.2026 192.502 54.195C161.893 53.9153 131.511 55.7919 101.825 63.9983C98.7591 64.8461 95.749 65.8981 92.7229 66.8529C92.5603 66.5544 92.3591 66.3544 92.3506 66.1469C91.9388 56.3261 91.9238 56.2513 101.447 53.3903C116.749 48.793 132.478 46.6558 148.356 45.5999C159.226 44.875 170.122 44.5587 181.006 44.0595L181.294 44.1996L181.606 44.1269C187.589 44.0966 193.584 43.6096 199.534 44.6639C219.543 45.6193 239.456 47.2357 258.889 52.5057C259.999 52.8074 261.136 53.0408 262.206 53.4441C273.367 57.681 271.194 54.5736 271.074 66.9035C246.417 58.5194 220.94 55.513 195.124 54.6488Z" fill="#020202"/>
<path d="M269.031 262.991C268.478 225.816 267.844 188.641 267.461 151.464C267.405 146.032 269.996 141.137 272.98 136.598C275.082 138.46 274.824 141.33 275.969 143.602C276.576 144.476 277.4 145.299 276.678 146.499C278.324 149.717 278.126 153.174 278.123 156.645C278.089 194.143 278.062 231.64 278.042 269.137C278.042 270.916 279.476 273.89 275.505 273.775C270.69 273.635 269.835 272.91 269.655 268.985C269.563 266.99 270.291 264.876 269.031 262.991Z" fill="#F9F9FA"/>
<path d="M248.958 34.1787C261.211 35.3374 272.615 39.4727 283.839 44.1984C293.397 48.2232 302.67 52.7999 311.229 58.7146C312.524 60.5887 312.951 62.4765 311.321 64.3983C294.844 55.6569 277.557 48.8855 259.879 43.0564C255.062 41.4696 251.18 38.885 248.958 34.1787Z" fill="#EB2127"/>
<path d="M280.57 168.017C282.067 175.967 282.318 184.053 282.552 192.082C283.113 211.316 283.976 230.563 283.283 249.804C283.023 257.069 283.48 264.403 282.089 271.615C281.644 270.953 281.414 270.263 281.845 269.476C281.249 269.682 281.705 270.093 281.631 270.394C281.391 271.4 282.187 273.115 280.518 273.167C278.737 273.223 279.368 271.464 279.363 270.472C279.31 260.332 279.333 250.191 279.334 240.052C279.337 217.847 279.345 195.642 279.358 173.437C279.363 171.565 278.887 169.534 280.57 168.017Z" fill="#797979"/>
<path d="M318.257 571.457C318.075 585.551 315.812 599.416 313.374 613.234C308.609 640.227 301.335 666.572 292.1 692.369C289.126 700.675 285.844 708.87 282.702 717.116C281.278 717.17 281.519 716.414 281.947 715.567C286.347 702.761 290.987 690.031 295.097 677.133C302.77 653.044 308.921 628.576 312.975 603.582C314.79 592.383 316.334 581.17 317.486 569.891C318.941 569.825 318.659 570.61 318.257 571.457Z" fill="white"/>
<path d="M280.57 168.017C279.994 169.844 279.697 171.747 279.688 173.662C279.723 205.43 279.733 237.196 279.719 268.96C279.719 270.158 279.429 271.445 280.54 273.119C281.792 270.568 280.862 268.223 282.089 266.151L282.088 271.606C281.917 272.591 282.799 274.196 280.823 274.157C279.292 274.127 278.633 273.194 278.732 271.59C278.85 269.671 278.761 267.74 278.761 265.815C278.761 231.15 278.765 196.485 278.774 161.82C278.774 160.099 278.454 158.326 279.338 156.111C279.929 160.419 280.712 164.162 280.57 168.017Z" fill="#706F6F"/>
<path d="M311.324 64.3992C311.294 62.5039 311.264 60.6093 311.233 58.7155C315.856 61.759 319.908 65.3992 323.033 70.0073C323.755 71.0705 324.468 72.1359 324.382 73.5103C319.781 70.8283 315.401 67.8319 311.324 64.3992Z" fill="#262122"/>
<path d="M281.947 715.567C281.982 716.188 282.082 716.779 282.702 717.116L273.448 738.704C272.761 738.881 272.378 738.755 272.692 737.941C275.776 730.483 278.861 723.025 281.947 715.567Z" fill="white"/>
<path d="M294.425 329.325C295.217 330.001 295.121 330.93 295.12 331.819C295.119 342.226 295.118 352.633 295.117 363.04C295.117 363.933 295.214 364.858 294.417 365.53C294.084 353.462 294.064 341.394 294.425 329.325Z" fill="#262626"/>
<path d="M318.261 556.806C318.154 551.112 318.03 545.415 319.613 539.833C319.257 547.032 320.702 554.263 319.042 561.431C318.012 560.019 319.225 558.229 318.261 556.806Z" fill="white"/>
<path d="M181.796 102.557L194.172 102.49C196.442 102.963 198.892 102.014 201.05 103.365C200.92 103.552 200.791 103.74 200.664 103.931C200.089 104.466 199.38 104.98 198.643 104.893C193.113 104.261 187.477 105.169 182.004 103.744C181.589 103.409 181.519 103.014 181.796 102.557Z" fill="#707171"/>
<path d="M318.261 556.806C319.641 558.159 318.718 559.901 319.043 561.431C318.593 564.759 319.851 568.22 318.258 571.457C318.211 570.831 318.109 570.233 317.483 569.892L318.261 556.806Z" fill="white"/>
<path d="M199.535 44.6606C193.553 44.7134 187.564 44.98 181.607 44.1237L182.707 43.7901C187.268 43.627 191.83 43.3484 196.383 43.9479C197.44 44.1609 198.642 43.7375 199.535 44.6606Z" fill="#FBB244"/>
<path d="M196.383 43.9512L182.706 43.7933C187.275 42.9736 191.838 42.7345 196.383 43.9512Z" fill="#FBB244"/>
<path d="M272.692 737.941L273.449 738.704L269.489 746.691C269.657 743.371 271.374 740.736 272.692 737.941Z" fill="white"/>
<path d="M319.819 302.322C319.655 299.808 319.491 297.295 319.328 294.781L321.331 295.502C319.667 297.514 321.567 300.324 319.819 302.322Z" fill="#FBB244"/>
<path d="M212.062 104.796L211.135 105.584C209.485 106.8 208.001 105.959 206.507 105.214C206.069 104.665 206.006 104.107 206.471 103.538L212.062 104.796Z" fill="#373839"/>
<path d="M267.786 748.198C268.301 750.464 267.593 751.759 265.557 753.619L267.786 748.198Z" fill="white"/>
<path d="M206.471 103.538C206.471 103.966 206.474 104.396 206.479 104.829C204.35 105.756 202.44 105.848 201.177 103.451L201.05 103.365L206.471 103.538Z" fill="#444444"/>
<path d="M276.678 146.503C276.441 145.537 276.204 144.571 275.968 143.605C278.072 144.114 277.726 145.223 276.678 146.503Z" fill="#9D9E9F"/>
<path d="M114.563 34.2776C112.54 39.4583 108.127 41.5584 103.262 43.1622C87.5727 48.3327 72.2654 54.4637 57.3946 61.6601C55.6718 62.4952 54.0078 63.4533 52.3171 64.3547C50.5079 62.456 51.4615 60.563 52.3306 58.6711C71.4093 46.2953 92.329 38.612 114.563 34.2776Z" fill="#EB2127"/>
<path d="M52.3309 58.6753L52.3174 64.3579C48.2006 67.78 43.7736 70.755 39.2065 73.5321C40.1882 69.3352 43.0145 66.4135 46.1071 63.7164C48.1168 61.9626 50.2517 60.3499 52.3309 58.6753Z" fill="#211C1D"/>
<path d="M181.796 102.557C181.805 102.842 181.815 103.125 181.826 103.404C183.136 104.896 183.014 106.741 183.015 108.522C183.033 157 183.027 205.477 182.997 253.954C182.997 255.731 183.149 257.584 181.788 259.058C166.273 259.617 150.758 260.017 135.243 260.787C124.625 261.312 114.015 262.164 103.441 263.261C100.68 263.548 100.017 263.333 99.8993 260.467C99.1014 240.962 98.9154 221.453 99.3415 201.94C99.7408 182.732 100.381 163.536 103.736 144.514C105.556 134.147 111.455 126.845 119.371 120.733C129.387 113.002 140.656 107.975 153.079 105.549C154.383 104.215 156.134 104.373 157.769 104.146C160.061 103.663 162.426 103.804 163.937 103.767C163.643 103.904 162.576 104.031 161.54 103.247C168.26 101.979 175.038 102.539 181.796 102.557Z" fill="#262525"/>
<path d="M44.3755 294.635C51.1236 289.716 57.8097 284.709 64.6583 279.935C66.547 278.618 66.7987 276.965 66.9605 275.056C67.1445 275.203 67.3296 275.349 67.5179 275.491C68.2615 276.446 68.1661 277.416 67.5839 278.404C68.4825 297.737 69.4367 317.066 69.2728 336.432C69.1034 356.305 68.9776 376.179 68.8953 396.053C68.8952 397.069 69.0074 398.086 69.0682 399.102C68.4554 405.594 68.475 412.071 69.5378 418.523C69.2742 421.37 69.6548 424.246 69.2018 427.087C68.1408 431.891 68.8443 436.754 68.7378 441.588C68.8668 445.398 68.0018 449.112 67.6525 452.875C67.0027 455.079 66.7713 457.372 66.2756 459.613C65.9009 461.217 65.4802 462.801 65.1783 464.418C60.2438 487.132 53.7472 509.419 46.8815 531.606C46.7669 531.973 46.6674 532.345 46.5336 532.707C46.0647 534.013 45.8216 535.951 44.1995 535.836C42.3944 535.707 42.7916 533.712 42.6527 532.381C42.57 531.488 42.4068 530.605 42.1651 529.741C41.9116 528.683 41.8935 527.602 41.8188 526.525C41.741 523.705 42.2175 520.857 41.3404 518.076C41.0624 516.712 41.099 515.328 41.0435 513.948C42.1795 508.066 41.9245 502.157 41.4373 496.242C41.4233 487.768 41.4468 479.295 41.3912 470.823C41.076 423.146 42.2235 375.488 43.1731 327.823C43.3583 318.574 43.6162 309.327 43.8399 300.079C44.6019 298.325 42.8527 296.32 44.3755 294.635Z" fill="#262525"/>
<path d="M43.0486 529.453C43.3523 531.335 43.657 533.219 43.9671 535.137C45.2639 535.137 45.0169 534 45.2513 533.259C52.2915 510.773 58.861 488.157 63.9517 465.136C64.032 464.777 64.2942 464.457 64.4718 464.119C64.5617 464.202 64.7436 464.333 64.7286 464.361C64.4889 464.814 64.5145 465.186 64.6215 464.69C64.9652 463.01 66.1371 461.444 65.3562 459.602L66.6795 453.117C68.1384 449.467 68.2747 445.701 67.6707 441.87C67.6606 436.883 67.4194 431.888 68.2407 426.933C69.3466 430.933 68.4922 434.948 68.7571 438.958C68.5567 432.22 69.1696 425.481 68.4385 418.743C68.4607 412.193 68.1041 405.63 69.0658 399.108C69.091 403.46 69.1001 407.814 69.1552 412.169C69.1658 413.017 68.8339 414.072 69.8686 414.572C70.9032 415.072 71.602 414.409 72.0708 413.6C72.8114 412.317 73.9562 412.784 74.764 413.15C75.8415 413.64 75.3556 414.794 74.9403 415.479C73.6636 417.588 73.5199 419.888 73.8053 422.171C74.3398 426.476 73.9669 430.764 74.0274 435.035C74.0772 438.644 75.6764 442.324 75.3004 446.147C75.205 447.118 75.6211 448.193 74.5189 449.284C72.8682 446.32 74.4961 443.053 73.3034 439.872C71.3921 442.203 72.5089 444.694 72.2422 446.946C72.0687 448.414 72.581 450.018 70.3157 450.475C68.5352 450.839 68.5724 453.01 68.6868 453.978C69.0149 456.768 68.7792 459.478 68.6943 462.237C68.6481 463.747 69.443 464.771 67.3414 465.873C66.1225 466.515 67.4341 468.608 69.1889 468.784C71.3097 468.998 73.0259 469.887 74.6082 471.191C70.3472 482.194 67.5327 493.651 64.0346 504.894C59.087 520.796 54.4626 536.798 49.5547 552.711C48.8279 555.064 49.0898 556.874 50.4378 558.808C53.1423 562.694 55.7355 566.658 58.3747 570.59C57.1013 571.427 54.5933 570.329 54.4935 573.213C54.4784 573.641 53.6376 572.274 52.925 572.154C52.6918 571.566 52.1836 570.927 52.2832 570.401C52.5166 569.145 52.383 567.891 51.2296 567.513C49.2651 566.871 50.4097 569.464 48.9726 570.034L48.9732 565.34C47.6276 570.393 49.369 575.149 50.295 579.972C50.8992 583.123 50.9481 586.026 48.2963 588.346C46.9738 587.848 46.8819 586.722 46.7622 585.532C45.8677 576.647 45.2429 567.738 44.4521 558.853C44.4335 553.645 44.5529 548.426 44.1052 543.218C44.0828 542.965 44.1256 542.733 43.902 542.55L43.6708 542.855C42.0333 546.005 43.2988 549.385 42.9046 552.635C42.7975 553.549 43.3419 554.87 41.5572 554.705C40.0453 554.565 40.5633 553.371 40.6297 552.649C40.8355 550.403 39.8513 548.028 41.3507 545.916C41.5455 545.643 41.7456 545.097 41.613 544.909C38.3703 540.272 40.3302 534.785 39.1484 529.801C38.5506 527.282 39.7375 524.702 39.2211 521.935C38.6116 518.672 37.1126 517.667 34.3134 518.248C32.4419 518.637 30.2099 518.354 28.7213 520.244C31.5394 522.326 32.1714 525.15 32.1443 528.415C32.0487 539.848 32.1265 551.281 32.0791 562.715C32.0725 564.294 32.7613 566.253 30.8502 567.234C28.9615 568.202 27.4166 567.041 25.9358 565.985L25.941 523.576C26.7649 523.054 27.5119 522.354 28.5006 522.414C27.5055 522.497 26.7651 521.78 25.9391 521.263C25.9335 520.752 25.9285 520.241 25.9243 519.73C27.2812 519 29.9754 519.693 29.1775 516.672L29.6741 515.831C30.9732 514.575 31.6005 513.069 31.3717 511.245C31.2841 510.353 31.4853 509.548 32.0868 508.861C32.2718 509.222 32.3498 510.616 32.8732 509.157C33.6835 506.897 34.1182 504.502 34.7562 501.991C35.8616 501.42 35.9918 504.62 36.6179 503.235C37.3211 501.678 40.3044 500.766 39.1446 499.476C37.6329 497.793 38.7844 496.985 38.9803 495.672C39.2202 494.068 39.184 492.387 38.5444 490.752C38.2235 489.93 37.7678 488.8 38.7801 488.052C38.8946 487.967 39.7838 488.001 40.0983 488.122C41.2111 488.55 40.5882 489.636 40.5592 490.383C40.3113 496.626 41.3067 502.917 39.8657 509.122C39.7062 509.813 39.9351 510.594 39.9831 511.333L41.1494 511.395C41.2464 506.342 41.3429 501.29 41.4391 496.236C42.3372 502.242 42.069 508.291 42.0971 514.33C41.321 517.268 41.9338 520.198 41.8553 523.13C41.6875 521.4 41.3903 519.672 42.2315 517.963C43.0155 520.827 42.8824 523.753 42.8414 526.674C42.1767 528.345 42.6559 530.028 42.537 531.236C42.3604 530.902 42.3295 530.133 43.0486 529.453Z" fill="#E38800"/>
<path d="M90.0847 136.203C93.6612 140.594 96.0756 145.797 96.03 151.251C95.7313 187.208 95.0464 223.161 94.4878 259.116C93.1938 262.192 93.845 265.431 93.9259 268.564C94.0026 271.656 93.4246 273.309 89.8818 273.27C88.4394 273.255 86.8857 273.771 85.3502 273.768C85.0797 273.346 84.9498 272.85 84.9791 272.351C85.1303 234.792 85.0054 197.233 85.0603 159.673C85.0605 157.881 84.9355 156.082 85.2482 154.301C85.2717 154.052 85.296 153.803 85.321 153.552C85.0763 151.021 86.0781 148.758 86.8435 146.444C86.2188 144.871 87.3082 143.663 87.7214 142.311L90.0847 136.203Z" fill="#CFCECE"/>
<path d="M80.7792 205.94C80.46 191.248 81.8207 176.652 83.2777 162.061C83.3131 161.703 83.5753 161.366 83.7315 161.019C85.0068 162.06 84.8665 163.533 84.8685 164.927C84.9135 199.189 84.9207 233.451 84.8901 267.712C84.8901 268.354 84.9232 268.995 84.8546 269.637C84.7068 270.995 84.913 273.079 83.2192 273.038C81.2932 272.991 82.4427 270.803 81.8489 269.95C81.7365 270.261 82.0189 271.043 81.4367 271.576C80.3361 268.501 80.8041 265.318 80.7959 262.163C81.7594 258.223 80.7059 254.295 80.7224 250.358C80.7754 236.933 80.6027 223.512 81.1104 210.087C81.1587 208.711 81.4446 207.279 80.7792 205.94Z" fill="#636363"/>
<path d="M81.4369 271.579L81.4375 266.24C82.5565 268.286 81.7419 270.722 83.719 273.432L83.7327 161.02C83.8042 159.604 83.8786 158.189 83.9558 156.775C86.3493 157.709 85.3036 159.815 85.3077 161.351C85.3836 188.717 85.3991 216.083 85.3544 243.45C85.3534 251.929 85.3502 260.409 85.3449 268.89C85.3447 270.546 85.5499 272.251 84.5685 273.758C82.5536 274.427 80.8726 274.616 81.4369 271.579Z" fill="#5C5C5C"/>
<path d="M84.5691 273.758C84.5865 235.983 84.5958 198.208 84.5968 160.431C84.597 159.205 85.0252 157.839 83.9553 156.775C83.7414 155.416 83.7972 154.175 85.3189 153.552L85.4259 153.489C85.9297 154.452 85.7306 155.5 85.7304 156.512C85.7358 194.309 85.7312 232.106 85.7166 269.905C85.7165 270.92 85.8854 271.958 85.4594 272.942C85.4219 273.218 85.3834 273.494 85.3459 273.77L84.5691 273.758Z" fill="#8C8B8B"/>
<path d="M80.7795 205.94C81.828 206.842 81.4919 208.072 81.4928 209.188C81.5093 225.763 81.5073 242.338 81.4867 258.913C81.4866 260.03 81.8235 261.258 80.793 262.17C79.5626 243.427 80.0079 224.684 80.7795 205.94Z" fill="#5E5E5E"/>
<path d="M161.545 103.251L165.744 103.691L157.826 104.886C157.178 104.137 155.983 104.957 155.391 104.043C157.351 103.093 159.472 103.368 161.545 103.251Z" fill="#4D4D4E"/>
<path d="M155.387 104.043C156.216 104.276 157.247 103.926 157.822 104.886L153.084 105.554C152.535 104.698 151.595 105.137 150.865 104.883C152.247 103.928 153.845 104.137 155.387 104.043Z" fill="#363637"/>
<path d="M67.5842 278.404C67.5615 277.433 67.5395 276.462 67.5182 275.491L67.8298 273.768C68.2319 275.388 69.0085 277.002 67.5842 278.404Z" fill="#E38800"/>
<path d="M87.7201 142.311C87.996 143.809 87.0692 145.053 86.8422 146.444C85.2931 144.676 86.4745 143.486 87.7201 142.311Z" fill="#848384"/>
<path d="M44.3756 294.635C44.2373 296.454 44.7828 298.344 43.8399 300.09L43.5352 298.364C43.2239 297.319 43.3792 296.167 42.7951 295.186C43.1547 294.513 43.7807 294.608 44.3756 294.635Z" fill="#262525"/>
<path d="M42.795 295.181C44.1442 295.983 43.5223 297.245 43.535 298.358L42.1893 295.477C42.359 295.323 42.5691 295.22 42.795 295.181Z" fill="#E38800"/>
<path d="M47.5205 249.558C47.4139 246.777 48.2543 243.151 49.9453 239.825C52.0109 235.767 55.4671 235.601 57.3798 239.637C60.9741 247.22 60.8918 255.022 56.9565 262.486C55.1081 265.992 52.3069 265.759 50.3224 262.341C48.1967 258.695 47.5595 254.708 47.5205 249.558Z" fill="#020202"/>
<path d="M31.3715 511.247C32.3107 513.333 31.9114 514.924 29.6739 515.833C30.239 514.305 30.8049 512.776 31.3715 511.247Z" fill="#E38800"/>
<path d="M45.1705 558.339C45.7973 568.385 46.2626 578.447 48.2955 588.348C48.7737 597.553 50.9854 606.489 52.6311 615.504C57.5071 642.204 64.9961 668.213 73.8141 693.855C76.3074 701.107 78.9046 708.324 81.4535 715.558C81.9135 716.426 82.1028 717.162 80.6882 717.102C76.4245 706.394 72.3074 695.636 68.6503 684.693C62.439 666.115 57.0217 647.326 52.9281 628.162C50.0482 614.673 47.7215 601.078 46.2123 587.385C45.2621 578.76 44.3087 570.088 44.4168 561.368C44.1655 560.237 43.1481 558.912 45.1705 558.339Z" fill="white"/>
<path d="M80.6883 717.102C81.3111 716.768 81.4257 716.185 81.4536 715.557C85.6147 725.579 90.3996 735.346 93.7871 745.681C88.4221 736.613 84.6847 726.798 80.6883 717.102Z" fill="white"/>
<path d="M97.637 755.669L93.7765 746.402C97.3073 748.191 96.8049 752.376 98.8975 755.02L97.637 755.669Z" fill="white"/>
<path d="M53.2014 571.594C52.1793 573.708 51.135 573.283 50.2116 573.133C50.0864 573.112 49.8906 572.439 50.0052 572.223C50.9106 570.572 51.9547 572.839 53.2014 571.594Z" fill="#E38800"/>
<path d="M45.1707 558.339C44.0642 559.139 44.5937 560.343 44.4213 561.373C42.8285 557.713 43.9825 553.87 43.7079 550.121C43.5306 547.711 43.6721 545.279 43.6713 542.857C43.7057 542.133 43.7393 541.409 43.7722 540.684C45.0769 546.527 45.4496 552.411 45.1707 558.339Z" fill="white"/>
<path d="M25.9384 521.265C26.8918 521.425 28.2357 521.458 28.2217 522.576C28.2141 523.241 26.8605 523.532 25.9403 523.578C26.4091 522.806 26.4084 522.035 25.9384 521.265Z" fill="#E38800"/>
<path d="M181.787 259.058L181.825 103.403C186.904 103.639 192.012 102.814 197.081 104.035C198.327 104.335 199.804 103.671 201.176 103.451C202.781 104.559 204.738 104.266 206.478 104.83L211.136 105.585C227.734 109.586 242.568 116.619 253.719 130.108C259.199 136.74 260.096 144.894 261.099 152.845C265.049 184.156 264.439 215.639 264.084 247.101C264.073 248.103 263.775 249.102 263.611 250.103C262.683 247.247 263.283 244.4 263.111 241.546C263.291 247.658 262.732 253.763 263.43 259.883C264.112 263.208 263.121 263.755 259.639 263.291C247.506 261.678 235.267 261.098 223.03 260.642C220.502 260.547 217.918 260.949 215.454 260.018C217.571 259.137 219.681 259.454 221.794 259.673C216.946 259.616 212.103 259.187 207.242 259.806L181.787 259.058Z" fill="#2D2E2D"/>
<path d="M263.432 259.883C261.877 253.756 263.173 247.583 263.617 241.416C263.616 244.312 263.616 247.207 263.615 250.102L263.432 259.883Z" fill="#7B7B7B"/>
<path d="M207.245 259.806C212.076 258.329 216.963 259.553 221.815 259.071C221.82 259.387 221.826 259.703 221.833 260.018L215.458 260.017L207.245 259.806Z" fill="#797979"/>
<path d="M68.4398 418.739C69.977 422.169 68.8894 425.776 69.0955 429.293C69.2941 432.688 69.1374 436.103 68.2382 439.505L68.2397 426.933C68.3057 424.202 68.3724 421.471 68.4398 418.739Z" fill="#E38800"/>
<path d="M67.6681 441.875C69.1272 445.867 68.3905 449.843 67.5533 453.812C67.4195 454.446 67.0856 454.169 66.8824 453.854C66.7519 453.649 66.7423 453.368 66.677 453.121C67.007 449.369 67.3374 445.62 67.6681 441.875Z" fill="#E38800"/>
<path d="M42.2312 517.972L42.2305 523.575C41.6263 520.482 40.607 517.359 42.0968 514.339L42.2312 517.972Z" fill="#E38800"/>
<path d="M65.3538 459.602C67.8145 461.876 64.8375 463.754 64.6671 465.88C64.6023 465.294 64.5368 464.706 64.4705 464.119C64.3455 462.532 64.8068 461.059 65.3538 459.602Z" fill="#E38800"/>
<path d="M43.0491 529.453C42.9477 530.291 42.8464 531.13 42.745 531.969C42.3386 530.177 41.5448 528.386 42.8408 526.683L43.0491 529.453Z" fill="#E38800"/>
<path d="M70.6495 428.516C70.9182 427.532 70.1854 425.787 71.9745 425.969C73.5345 426.129 72.9437 427.778 72.9532 428.802C72.9627 429.825 73.4633 431.573 71.8829 431.534C70.0061 431.487 70.9672 429.591 70.6495 428.516Z" fill="#E38800"/>
<path d="M39.8955 518.452C38.6866 516.791 39.1929 515.59 39.682 514.373C39.745 515.643 39.8133 516.911 39.8955 518.452Z" fill="#E38800"/>
<path d="M39.7545 518.003C40.8661 519.314 40.5204 520.265 40.4956 521.639C39.4311 520.302 40.0251 519.184 39.7545 518.003Z" fill="#E38800"/>
<path d="M85.4637 272.942C85.4312 240.573 85.3995 208.206 85.3685 175.838C85.3641 168.388 85.4067 160.938 85.428 153.485C86.6048 154.661 86.1156 156.159 86.1165 157.517C86.1377 194.64 86.1332 231.764 86.1029 268.89C86.1017 270.251 86.5959 271.741 85.4637 272.942Z" fill="#D6D4D4"/>
</g>
<defs>
<clipPath id="clip0_370_1612">
<rect width="363" height="771" fill="white" transform="translate(363.014 771.123) rotate(-179.993)"/>
</clipPath>
</defs>
</svg>
