<svg width="364" height="772" viewBox="0 0 364 772" fill="none" xmlns="http://www.w3.org/2000/svg">
<g clip-path="url(#clip0_370_1795)">
<path d="M204.874 770.301C204.858 770.548 204.845 770.794 204.836 771.041L177.842 771.038C177.603 770.549 177.71 770.152 178.163 769.849C179.468 769.095 180.917 769.219 182.337 769.151C188.436 768.963 194.525 769.063 200.619 769.092C202.122 769.099 203.7 769.04 204.874 770.301Z" fill="#DEE0E1"/>
<path d="M177.902 770.318C177.872 770.558 177.854 770.798 177.846 771.038L161.649 771.036C161.422 770.506 161.555 770.092 162.048 769.795C167.365 768.871 172.68 768.144 177.902 770.318Z" fill="#C0C0C2"/>
<path d="M161.576 770.336C161.605 770.57 161.627 770.803 161.646 771.036L155.476 771.035C155.476 770.803 155.46 770.571 155.435 770.341C157.481 768.74 159.528 768.738 161.576 770.336Z" fill="#DBDDDE"/>
<path d="M204.874 770.301L181.629 770.222C180.313 768.725 180.465 766.87 180.464 765.088C180.446 719.101 180.452 673.114 180.481 627.127C180.481 625.589 180.458 624.034 181.174 622.602C182.086 621.212 183.556 621.165 184.952 621.212C188.047 621.308 191.086 620.892 194.119 620.422C215.512 619.346 236.023 614.48 255.715 606.074C272.51 598.903 287.093 588.608 299.462 575.188C304.189 570.054 308.089 564.339 311.862 558.504C313.436 556.072 313.022 553.621 312.252 551.097C307.826 536.598 303.543 522.053 299.096 507.565C295.929 497.247 292.999 486.858 289.772 476.56C287.847 470.436 285.756 469.345 279.728 471.782C260.915 479.388 241.501 484.626 221.362 487.163C209.365 488.674 197.331 489.452 185.236 489.066C183.588 489.014 181.802 489.154 180.956 487.188C180.359 485.305 180.49 483.367 180.489 481.446C180.488 413.266 180.495 345.085 180.508 276.904C180.508 276.005 180.496 275.106 180.535 274.207C180.728 269.668 181.271 269.132 186.029 268.738C202.919 268.391 219.776 269.301 236.64 270.021C245.969 270.42 255.294 270.87 264.616 271.373C266.857 271.492 267.576 270.486 267.69 268.496C267.797 266.612 267.433 264.615 268.774 262.965C270.938 263.002 270.511 264.801 270.768 266.035C271.025 267.269 270.82 268.596 271.103 269.858C271.541 271.799 273.13 272.025 274.676 272.104C276.381 272.197 276.747 270.919 276.88 269.548C276.988 268.399 276.957 267.242 276.957 266.089C276.961 229.547 276.97 193.004 276.984 156.459C276.984 153.626 276.795 150.825 276.215 148.061C275.945 146.59 276.737 144.932 275.444 143.632C274.094 141.411 273.677 138.781 272.322 136.56C269.884 132.058 266.023 128.82 262.143 125.748C249.103 115.427 233.965 109.808 217.811 106.629C215.804 106.233 213.8 105.818 211.776 105.502C209.858 105.053 207.934 104.646 205.977 104.394C204.289 104.305 202.587 104.405 200.922 104.009C198.504 103.232 195.931 103.901 193.502 103.21C190.966 102.568 188.386 102.953 185.83 102.849C181.544 102.673 180.648 101.923 180.593 97.5656C180.462 87.0443 180.556 76.5219 180.552 66.0006C180.552 63.3064 180.514 60.6121 180.615 57.9179C180.722 55.1263 182.028 53.6804 184.917 53.6733C187.996 53.6651 191.077 53.6795 194.151 53.6338C218.404 53.917 242.269 56.9222 265.579 63.8633C266.953 64.272 269.016 66.1173 269.847 63.7569C270.617 61.5686 270.715 58.8605 268.362 57.074C267.117 56.1274 265.609 55.7025 264.147 55.2243C250.888 50.8866 237.195 48.8036 223.38 47.3611C215.598 46.5506 207.776 46.2544 199.988 45.5208C198.755 45.157 197.491 44.9216 196.236 44.6476C191.785 43.8684 187.326 44.1352 182.86 44.5059C182.408 44.558 181.95 44.5187 181.513 44.3902C181.294 44.316 181.099 44.1848 180.947 44.0099C180.796 43.835 180.694 43.6228 180.652 43.3954C181.025 37.8765 179.676 32.26 181.584 26.8258C186.416 24.8573 191.487 25.6858 196.389 26.0009C211.622 26.9835 226.809 28.5555 241.824 31.444C243.964 31.855 246.139 32.1248 248.166 32.9797C254.41 41.4963 264.429 43.0131 273.366 46.5897C286.217 51.7337 299.338 56.2789 311.341 63.348C315.803 66.7198 320.328 70.006 325.056 73.01C329.363 76.9369 331.311 82.3267 333.734 87.3657C338.901 98.1101 343.286 109.148 344.738 121.122C344.83 121.884 345.043 122.631 344.524 123.323C345.538 126.445 345.495 129.592 344.857 132.783C343.898 137.573 344.311 142.472 343.958 147.312C342.697 164.639 340.401 181.829 338.589 199.078C337.482 209.621 338.385 220.373 338.378 231.031C338.378 231.673 338.313 232.308 338.278 232.947C336.272 232.505 336.411 230.664 336.095 229.296C334.705 223.287 331.296 219.342 325.326 217.366C320.34 215.716 315.579 213.407 310.595 211.709C304.221 209.54 300.687 211.843 300.099 218.564C299.151 229.419 299.005 240.315 298.427 251.186C297.992 259.374 298.08 267.582 297.375 275.761C296.881 281.612 296.654 287.484 296.427 293.335C295.96 305.33 295.149 317.326 295.507 329.347C295.36 341.291 295.43 353.232 295.478 365.172C295.633 366.322 295.56 367.479 295.529 368.633C295.035 386.994 296.702 405.325 296.363 423.68C295.839 452.386 303.907 479.49 311.472 506.702C313.702 514.724 316.232 522.66 318.821 531.506C319.295 522.514 319.91 514.422 320.228 506.291C321.424 475.743 321.107 445.185 320.756 414.642C320.566 398.093 320.724 381.517 319.978 364.991C319.475 353.818 319.865 342.654 319.304 331.513C318.91 323.69 318.534 315.881 318.625 308.049C318.647 306.253 318.587 304.452 318.934 302.674C320.147 300.231 318.492 296.857 321.414 294.965C325.25 294.677 328.217 296.908 331.42 298.445C333.147 299.273 334.591 300.624 336.471 301.275C337.7 300.081 337.144 298.587 337.148 297.267C337.191 278.253 337.161 259.24 337.208 240.226C337.208 238.237 336.707 236.064 338.423 234.4C339.718 236.112 339.198 238.111 339.201 239.979C339.243 260.895 339.709 281.825 339.132 302.724C337.369 366.592 338.902 430.466 338.315 494.332C337.988 496.732 335.747 496.959 334.164 497.72C331.591 498.954 330.582 500.531 331.292 503.452C332.104 506.787 333.168 510.044 333.996 513.365C334.637 515.932 337.109 516.936 338.304 518.987C338.309 533.363 338.526 547.744 338.215 562.114C338.086 568.085 340.958 573.214 341.637 578.955C342.526 586.442 343.196 593.955 343.511 601.44C344.029 613.74 344.257 626.115 343.526 638.395C341.853 666.417 334.864 692.919 318.25 716.131C307.889 730.609 294.644 741.926 279.064 750.549C262.063 759.959 243.778 765.519 224.706 768.54C218.167 769.573 211.558 770.581 204.874 770.301Z" fill="#EB2127"/>
<path d="M344.526 123.33C341.677 106.79 335.486 91.4933 327.304 76.9269C326.537 75.5589 325.459 74.5181 324.377 73.4473C320.684 67.8006 316.287 62.8426 310.468 59.2835C295.74 49.7358 279.868 42.7422 263.053 37.7656C258.39 36.3842 253.403 36.2969 248.958 34.1166C226.809 29.5276 204.463 26.7911 181.804 27.0493C180.393 28.2192 178.688 28.0939 177.025 28.1183C156.421 28.4922 136.05 30.9423 115.859 34.956C93.5188 39.2882 72.4398 46.8881 53.208 59.2382C47.9869 63.4581 42.1742 67.1292 39.6727 73.8693C30.4829 87.5874 24.7158 102.731 20.88 118.695C20.4732 120.39 20.8988 122.693 18.3382 123.241C16.2657 104.689 22.0127 87.5511 27.857 70.4217C29.4241 65.8227 31.1602 61.2441 32.173 56.5178C33.8678 48.6129 38.6953 43.1395 44.7125 38.2715C61.6771 24.5468 81.3898 16.551 102.142 10.8774C125.127 4.59329 148.636 1.61846 172.423 0.719719C177.854 -0.508545 183.388 0.751042 188.841 0.0361695C189.996 0.873781 191.434 -0.0191322 192.616 0.653772C220.971 2.27228 248.95 5.98813 275.915 15.4025C291.459 20.8293 306.117 27.9201 318.983 38.4034C324.862 43.1915 329.292 48.6554 331.374 56.303C334.689 68.4858 338.861 80.4334 342.711 92.4696C345.861 102.325 345.277 112.481 345.199 122.596C345.198 122.843 344.76 123.086 344.526 123.33Z" fill="#010101"/>
<path d="M296.574 275.06C296.844 255.566 297.786 236.099 299.042 216.648C299.397 211.157 303.999 208.152 309.191 210.028C316.279 212.589 323.242 215.503 330.23 218.332C332.767 219.358 334.258 221.506 335.205 223.932C336.362 226.889 337.267 229.945 338.279 232.959C338.328 233.439 338.376 233.918 338.423 234.398L338.414 304.843C333.32 300.11 327.566 297.318 321.33 295.44C320.36 295.718 319.444 295.513 318.548 295.138C311.546 290.459 305.035 285.088 297.985 280.483C295.761 279.029 296.171 277.09 296.574 275.06Z" fill="#020202"/>
<path d="M338.304 518.985C335.522 518.405 334.007 516.609 333.284 513.945C332.221 510.032 331.132 506.122 329.958 502.241C329.226 499.823 330.104 498.497 332.347 497.535C334.415 496.652 336.333 495.412 338.316 494.327C344.95 491.073 351.665 487.982 358.17 484.489C361.089 482.93 361.658 483.957 362.3 486.58C364.193 494.292 362.481 501.198 357.375 507.008C352.269 512.818 346.504 517.933 338.304 518.985Z" fill="#020302"/>
<path d="M192.617 0.65695C191.333 0.586202 189.904 1.44489 188.842 0.0393482L192.619 0.127495C192.609 0.303818 192.609 0.480551 192.617 0.65695Z" fill="#CAC9C9"/>
<path d="M18.3353 123.244C19.9662 121.7 19.6198 119.524 20.0726 117.623C23.4364 103.381 28.8683 89.9713 36.0807 77.2572C36.9112 75.793 37.9075 74.5225 39.2034 73.4713C42.8601 69.2309 48.0286 66.9363 52.201 63.3569C65.012 56.14 78.7291 51.0014 92.4355 45.8445C96.4022 44.3476 100.345 42.7737 104.42 41.5848C108.7 40.3329 111.545 37.1684 114.564 34.2157C136.721 29.4214 159.118 26.8776 181.804 27.0514C181.385 32.6934 182.65 38.4135 181.007 43.9975C178.07 46.0346 174.684 45.8557 171.377 45.8296C152.33 45.6818 133.465 47.3319 114.807 51.1844C109.277 52.326 103.791 53.6601 98.4617 55.5676C97.2536 55.9953 96.0006 56.3674 94.9722 57.1555C93.5939 58.2099 92.7556 62.6207 93.7837 63.9289C95.1028 65.6061 96.617 64.2629 97.946 63.8567C115.709 58.4212 133.951 55.7869 152.411 54.3528C164.94 53.3799 177.473 52.575 190.046 52.8845C191.853 52.9286 194.005 52.3235 195.123 54.589C191.67 54.6367 188.216 54.7764 184.766 54.6947C182.714 54.6474 181.741 55.1778 181.752 57.4624C181.822 71.3018 181.82 85.1405 181.747 98.9785C181.735 101.225 182.639 101.76 184.709 101.822C187.863 101.92 191.091 101.157 194.172 102.427C192.019 104.451 189.347 103.382 186.903 103.603C185.267 103.748 183.607 103.634 181.959 103.653C175.397 104.037 168.813 103.275 162.258 103.99C160.165 104.592 157.94 104.076 155.853 104.738C154.297 105.166 152.643 104.971 151.103 105.495C133.22 108.64 116.278 114.154 101.723 125.477C97.6792 128.625 93.9893 132.192 90.9799 136.385C89.715 138.327 89.1604 140.59 88.18 142.66C87.1965 143.952 87.0744 145.417 87.3321 146.961C86.9637 149.122 86.3685 151.231 85.8675 153.363C85.2328 154.551 84.7266 155.772 84.8548 157.168C84.8268 158.666 84.8684 160.172 84.4958 161.644C82.6247 176.376 81.9081 191.171 81.8785 206.008C81.0352 224.501 80.376 242.993 81.8289 261.48C81.9559 264.434 81.5768 267.399 81.9252 270.347C82.1497 272.243 82.8878 273.463 85.1125 272.74C85.4956 272.688 85.8701 272.661 86.2531 272.639C87.2707 272.532 88.2648 272.295 89.2706 272.18C91.7199 271.899 92.8093 270.595 92.754 268.116C92.7029 265.837 92.5555 263.535 92.9282 261.276C93.1006 260.233 93.0355 258.539 95.0513 259.427C96.3403 262.252 95.6926 265.249 95.7885 268.167C95.8664 270.605 96.7415 271.483 99.3192 271.345C115.192 270.51 131.082 269.935 146.954 269.206C158.483 268.678 170.05 269.491 181.542 268.06C183.345 267.835 185.474 267.478 186.614 269.7C182.252 269.239 181.665 271.48 181.671 275.368C181.793 346.25 181.82 417.133 181.752 488.016C180.592 489.332 179.006 489.105 177.523 489.125C173.243 489.183 168.955 489.13 164.676 489.16C137.662 487.835 111.369 482.993 86.264 472.652C82.4229 471.07 78.7475 470.117 74.7326 471.574C73.0206 471.489 71.6383 470.419 70.0409 469.941C66.2617 468.812 66.4255 468.388 67.5195 464.464C68.1768 462.103 68.0551 459.398 67.8254 456.87C67.5582 453.937 67.6698 451.244 70.0733 449.118C71.1338 448.182 71.1319 446.842 71.1641 445.549C71.1986 444.14 71.0992 442.718 71.5028 441.343C71.7672 440.443 72.2456 439.525 73.2557 439.549C74.453 439.572 74.4582 440.695 74.487 441.568C74.5286 442.825 74.6568 444.093 74.6213 445.34C73.0732 435.223 72.3212 425.087 73.416 414.637C72.1 414.155 70.4743 416.395 69.0664 414.802C67.7537 413.317 68.1573 411.401 68.1201 409.633C68.0424 405.915 68.2119 402.193 67.9599 398.466C67.8723 370.771 68.0116 343.085 67.8844 315.4C67.8385 305.546 67.2908 295.696 66.5334 285.866C66.3752 283.816 66.3198 281.769 66.594 279.734C66.8628 278.286 67.3102 276.879 67.8186 275.49C67.9439 275.149 68.0327 274.805 67.9429 274.44C67.9525 274.908 67.7695 275.265 67.3307 275.476C67.122 275.475 66.9178 275.415 66.7411 275.304C66.5644 275.193 66.4221 275.035 66.3303 274.848C65.9278 274.037 65.7435 273.135 65.7957 272.232C66.2248 263.129 65.1195 254.073 64.8959 244.988C64.6648 235.66 64.3246 226.314 63.366 217.017C62.9107 212.604 59.61 209.915 55.286 211.108C47.6244 213.223 40.2613 216.257 33.1453 219.813C31.0052 220.882 29.8878 223.005 28.8582 225.101C28.2514 226.335 27.9623 227.827 26.4171 228.372C24.9385 227.501 25.6417 226.064 25.6322 224.905C25.5658 216.717 25.6224 208.529 25.5667 200.341C25.5604 199.414 26.1533 198.309 25.1123 197.52C23.3497 191.231 23.0359 184.704 22.3262 178.28C20.4458 161.265 19.1064 144.2 18.3081 127.084C18.2526 125.806 18.3266 124.524 18.3353 123.244Z" fill="#C32227"/>
<path d="M25.1607 494.216C25.1051 493.965 25.1052 493.704 25.1608 493.453C25.9368 492.135 25.5517 490.687 25.553 489.308C25.5831 429.856 25.5903 370.405 25.5748 310.952C25.5749 309.578 25.9956 308.126 25.1547 306.823C24.2026 305.613 24.299 304.186 24.2992 302.771C24.3068 281.575 24.3172 260.379 24.3305 239.183C24.3307 237.546 24.0452 235.821 25.1069 234.335C26.8283 235.998 26.3241 238.17 26.3271 240.16C26.362 260.709 26.3605 281.257 26.3355 302.07C31.1895 298.805 35.914 295.74 41.6183 294.788C43.5389 295.315 43.8651 297.034 44.4641 298.563C44.66 299.269 44.7882 299.992 44.8469 300.722C44.9129 320.991 44.277 341.244 43.5041 361.494C43.3023 366.756 43.5231 372.019 43.377 377.279C42.2882 416.666 42.7371 456.063 42.5686 495.447C42.261 499.282 42.451 503.137 42.3906 506.986C42.3766 507.885 42.4225 508.794 42.2073 509.671C41.9311 510.804 41.5896 512.166 40.1141 511.879C38.9179 511.648 38.8827 510.29 38.9781 509.298C39.4142 504.718 40.1423 500.166 39.8636 495.53C39.7408 493.498 39.8149 491.456 39.493 489.427C40.4899 492.757 39.2782 496.113 39.8449 499.493C40.2106 501.674 37.6531 503.616 35.3675 503.402C34.8432 503.353 35.1716 503.916 35.1427 504.172C34.9381 505.973 34.5912 507.744 33.7094 509.334C32.9313 510.737 32.0699 510.952 31.4089 509.189C31.0239 507.111 31.8427 505.198 32.3009 503.254C32.8854 500.776 32.0692 499.23 29.8469 497.986C28.1115 497.019 25.5413 496.911 25.1607 494.216Z" fill="#C32227"/>
<path d="M42.1894 295.415C35.9702 297.356 30.1352 300.013 25.0895 304.979L25.0981 234.336L25.3295 232.212C25.7951 230.877 25.4818 229.306 26.5637 228.16C28.1224 221.909 32.0081 218.068 38.1812 216.095C43.5315 214.385 48.6592 211.993 53.9571 210.1C59.4144 208.151 64.1167 210.98 64.4873 216.599C65.769 236.043 66.6751 255.506 66.9605 274.998C68.3277 277.494 66.9964 279.199 65.1301 280.534C58.4741 285.293 52.0502 290.372 45.2593 294.944C44.6074 295.255 43.9174 295.48 43.2069 295.613C42.8557 295.647 42.5022 295.578 42.1894 295.415Z" fill="#020202"/>
<path d="M25.161 494.216C25.7655 494.637 26.3326 495.132 26.9799 495.47C34.1988 499.231 34.1988 499.224 32.2461 507.295C32.1284 507.782 32.139 508.298 32.0854 508.8C31.3652 509.598 32.0114 510.473 31.9482 511.31C31.6698 512.905 31.0918 514.398 30.3876 515.849C30.1431 516.343 29.863 516.818 29.5495 517.272C28.3873 518.652 27.0337 519.542 25.1216 518.989C15.3922 517.905 3.66188 507.299 1.12824 497.298C-0.0953722 493.387 0.497885 489.515 1.34367 485.639C1.80189 483.524 2.62797 483.135 4.70153 484.175C11.4914 487.574 18.033 491.497 25.161 494.216Z" fill="#020302"/>
<path d="M25.1497 306.828C26.4646 307.939 25.9423 309.456 25.9421 310.8C25.9605 370.357 25.9533 429.914 25.9203 489.471C25.9201 490.818 26.4378 492.329 25.158 493.459C25.1233 488.458 25.0597 483.457 25.0592 478.457C25.0589 422.914 25.0656 367.372 25.0796 311.829C25.0787 310.158 25.1249 308.491 25.1497 306.828Z" fill="#C32227"/>
<path d="M26.562 228.16C26.2558 229.543 26.2032 231.001 25.3278 232.211C25.2579 220.645 25.188 209.081 25.118 197.516C26.5735 195.411 25.9473 197.731 25.9483 197.964C25.9826 206.672 25.9558 215.38 25.9965 224.089C26.0027 225.451 25.5371 226.922 26.562 228.16Z" fill="#C32227"/>
<path d="M181.734 622.295C181.722 669.422 181.711 716.549 181.698 763.677C181.698 765.858 181.654 768.04 181.63 770.222C180.386 770.254 179.142 770.286 177.898 770.318L161.577 770.336L155.435 770.336C135.194 768.68 115.426 765.03 96.8325 756.435C96.4955 755.905 96.8069 755.487 97.0563 755.056C97.0428 751.634 95.3172 748.953 93.3583 746.363C93.1737 746.037 93.0228 745.692 92.908 745.334C89.0679 735.215 84.4573 725.418 80.5595 715.322C68.7214 684.25 58.8962 652.574 52.3228 619.957C50.4529 610.68 48.8279 601.348 47.4481 591.963C47.2802 590.81 47.2846 589.661 47.5993 588.532C49.7269 585.183 49.8023 581.647 48.8461 577.879C48.1264 575.047 47.3991 572.171 47.3492 569.222C47.3184 567.523 46.8852 565.625 48.606 564.354C49.7423 564.758 49.7604 565.659 49.8287 566.564C49.8351 566.651 49.0861 567.206 50.0737 567.057C53.7396 566.497 53.3156 569.09 53.2682 571.356C53.2018 571.583 53.0595 571.771 52.9611 571.977C52.793 572.325 52.3083 572.223 52.166 572.58C52.4527 572.382 52.777 572.228 52.9814 571.912C54.9418 571.049 56.6422 569.258 59.1021 570.26C62.7172 573.523 65.9632 577.155 69.3932 580.603C84.3084 595.596 102.454 605.079 122.283 611.665C135.479 616.052 149.067 618.714 162.869 620.153C167.565 620.641 172.285 621.223 177.036 621.235C178.65 621.244 180.415 620.86 181.734 622.295Z" fill="#C32227"/>
<path d="M97.6368 755.607L96.8321 756.439C85.2144 752.018 74.8629 745.463 65.3311 737.58C39.922 716.569 27.066 688.803 21.9884 656.859C18.8108 636.858 19.3557 616.786 20.3608 596.675C20.7437 588.994 21.2337 581.358 22.7283 573.795C23.1384 571.723 23.787 569.866 25.0958 568.234C26.0365 567.644 24.9966 566.106 26.3106 565.693C30.6976 566.2 31.0015 566.008 31.0192 561.693C31.0687 550.668 31.0422 539.643 31.0392 528.617C31.0395 526.258 30.6514 524.043 29.205 522.077C28.6305 521.296 27.8505 520.498 28.5312 519.318C30.0049 516.764 37.8246 516.479 39.2046 519.079C40.2744 521.092 41.0552 523.464 40.8195 525.669C40.1478 531.98 40.604 538.103 42.113 544.268C42.7269 546.77 41.2178 549.478 41.791 552.161C41.525 549.405 42.2443 546.736 42.4629 544.022C42.5412 543.043 42.9029 542.162 44.1248 543.167C45.3687 546.874 44.4898 550.694 44.7344 554.454C44.8732 556.593 44.4909 558.757 45.1273 560.86C45.8752 570.293 46.5471 579.737 47.4394 589.165C48.5144 600.531 50.6691 611.726 52.8795 622.887C57.6434 646.944 64.5764 670.427 72.7132 693.551C75.3872 701.166 78.0838 708.78 81.2705 716.202C84.8538 726.257 89.4783 735.87 93.786 745.617C93.786 745.856 93.7784 746.097 93.7752 746.337C95.5372 749.231 97.5763 752.007 97.6368 755.607Z" fill="#C32227"/>
<path d="M25.9351 565.925C25.8986 566.781 26.0825 567.719 25.0959 568.231L25.1339 519.655C25.4664 519.334 25.8116 519.322 26.1697 519.616C26.5688 520.101 26.7913 520.664 26.9346 521.27C27.2287 522.553 27.0017 523.856 27.1053 525.151C27.1873 536.928 27.1581 548.7 27.1256 560.47C27.1211 562.348 27.4547 564.354 25.9351 565.925Z" fill="#C32227"/>
<path d="M25.9232 519.672L25.1346 519.656C25.0833 519.438 25.0789 519.211 25.1218 518.991C26.4637 518.182 28.3319 518.264 29.1764 516.613C30.3114 518.728 29.3494 519.631 25.9232 519.672Z" fill="#C32227"/>
<path d="M181.734 622.295C163.306 621.945 145.176 619.536 127.461 614.352C100.227 606.382 76.6 592.708 58.3751 570.531C53.4535 566.906 50.8112 561.639 48.3551 556.305C47.5988 554.662 48.4272 552.775 48.9603 551.046C56.4534 526.768 63.5901 502.375 71.0585 478.086C71.8164 475.626 71.8403 472.631 74.6086 471.127C77.4134 468.506 80.4629 469.139 83.5754 470.437C100.712 477.586 118.46 482.547 136.821 485.32C145.847 486.7 154.937 487.321 164.012 488.149C174.001 488.865 184.003 488.251 193.997 488.479C195.51 488.513 197.07 488.146 198.667 488.877C197.937 490.989 196.079 490.655 194.561 490.766C191.746 490.97 188.915 490.796 186.092 490.881C184.059 490.943 183.025 491.879 183.002 493.946C182.989 495.1 182.959 496.256 182.959 497.41C182.954 535.781 182.95 574.153 182.945 612.525C182.945 613.423 183.01 614.327 182.945 615.219C182.719 618.366 184.183 619.451 187.277 619.538C189.845 619.61 192.967 618.226 194.816 621.42L181.734 622.295Z" fill="#262525"/>
<path d="M194.818 621.422C191.652 619.86 188.284 620.834 185.022 620.762C182.567 620.707 181.668 620.043 181.672 617.47C181.742 575.863 181.749 534.257 181.694 492.652C181.694 490.272 182.515 489.504 184.831 489.575C189.165 489.709 193.506 489.614 197.843 488.849C188.427 488.848 179.011 488.891 169.595 488.808C167.737 488.79 165.736 489.484 164.013 488.154L181.749 488.019C213.964 489.052 245.17 484.069 275.25 472.359C277.162 471.611 279.054 470.815 280.982 470.114C286.011 468.291 288.793 469.604 290.361 474.776C298.261 500.913 306.084 527.074 314.015 553.201C314.604 555.145 314.275 556.604 313.295 558.242C304.733 572.583 293.56 584.462 279.774 593.877C254.155 611.306 225.476 619.452 194.818 621.422Z" fill="#2D2E2D"/>
<path d="M296.574 275.06C296.519 277.493 297.45 278.991 299.676 280.473C306.403 284.96 312.803 289.934 319.331 294.719C320.728 297.153 320.32 299.703 319.822 302.26C320.194 321.644 320.567 341.029 320.94 360.414C321.91 411.526 322.942 462.637 321.17 513.75C320.93 520.673 320.244 527.582 319.762 534.538C317.767 534.383 318.028 532.682 317.714 531.661C309.717 505.669 302.122 479.571 296.984 452.831C295.299 444.067 295.845 435.159 295.551 426.319C294.876 406.043 294.077 385.763 294.42 365.46C295.152 358.609 294.678 351.736 294.709 344.873C294.732 339.67 295.138 334.449 294.428 329.258C294.177 311.157 294.954 293.093 296.574 275.06Z" fill="#2D2E2D"/>
<path d="M90.0849 136.141C93.0056 131.179 97.3535 127.575 101.836 124.188C116.37 113.205 133.011 107.452 150.865 104.821C151.892 104.559 153.169 103.696 153.203 105.802C152.007 106.906 150.436 107.092 148.963 107.495C136.633 110.868 125.485 116.459 115.941 125.056C110.132 130.289 106.379 136.662 104.899 144.414C102.751 155.663 101.889 167.054 101.217 178.443C100.054 198.178 100.464 217.949 100.307 237.708C100.251 244.786 101.375 251.787 101.148 258.849C101.06 261.54 102.497 262.068 104.812 261.845C112.73 261.087 120.682 260.69 128.591 259.988C135.89 259.34 143.215 259.241 150.49 258.981C160.993 258.602 171.498 257.678 182.03 257.958C190.387 257.387 198.675 259.151 207.026 258.662C209.844 258.941 212.688 258.562 215.498 258.991C216.604 259.312 217.719 259.552 218.892 259.537C232.106 259.362 245.24 260.568 258.375 261.867C260.185 262.045 262.12 262.416 262.35 259.696C262.636 256.52 262.209 253.324 262.672 250.161C263.29 248.433 263.253 246.631 263.241 244.838C263.144 228.794 263.69 212.739 263.068 196.722C262.394 179.329 261.994 161.881 258.632 144.671C256.862 135.613 252.344 128.613 245.249 122.926C236.605 116 227.017 111.025 216.36 108.068C214.522 107.557 212.583 107.217 211.117 105.81C210.892 104.966 211.057 104.469 212.081 104.731C234.48 108.231 255.005 115.689 270.974 132.702C271.963 133.756 273.542 134.628 272.999 136.537C273.244 138.018 272.729 139.343 272.047 140.587C269.249 145.695 268.487 151.153 268.548 156.936C268.809 181.191 269.477 205.438 269.557 229.699C269.588 239.038 270.07 248.416 270.11 257.778C270.117 259.545 270.364 261.415 269.05 262.926C268.45 266.188 270.498 270.643 268.222 272.445C266.356 273.92 262.115 272.368 258.924 272.206C234.841 270.981 210.753 269.847 186.631 269.7C183.33 268.702 180.007 269.532 176.701 269.63C158.599 270.169 140.496 270.705 122.399 271.371C114.059 271.678 105.726 272.199 97.4021 272.806C95.1978 272.966 94.4606 272.471 94.5465 270.211C94.6871 266.497 94.5346 262.772 94.5062 259.052C93.2715 257.661 93.4365 255.932 93.4517 254.287C93.6312 229.77 94.3051 205.26 94.4237 180.738C94.4632 172.555 94.7638 164.326 95.0248 156.121C95.1935 150.842 94.093 145.92 91.7835 141.23C90.9713 139.626 90.399 137.911 90.0849 136.141Z" fill="#020202"/>
<path d="M195.124 54.5868C194.25 54.4295 193.377 54.1406 192.502 54.133C161.893 53.8533 131.511 55.7299 101.825 63.9363C98.7591 64.7841 95.749 65.8361 92.7229 66.7909C92.5603 66.4924 92.3591 66.2924 92.3506 66.0849C91.9388 56.2641 91.9238 56.1893 101.447 53.3283C116.749 48.731 132.478 46.5938 148.356 45.5379C159.226 44.813 170.122 44.4967 181.006 43.9975L181.294 44.1376L181.606 44.0649C187.589 44.0346 193.584 43.5476 199.534 44.6019C219.543 45.5573 239.456 47.1737 258.889 52.4437C259.999 52.7454 261.136 52.9787 262.206 53.3821C273.367 57.6189 271.194 54.5116 271.074 66.8415C246.417 58.4574 220.94 55.451 195.124 54.5868Z" fill="#020202"/>
<path d="M269.031 262.929C268.478 225.754 267.844 188.579 267.461 151.402C267.405 145.97 269.996 141.075 272.98 136.536C275.082 138.398 274.824 141.268 275.969 143.54C276.576 144.414 277.4 145.237 276.678 146.437C278.324 149.655 278.126 153.112 278.123 156.583C278.089 194.081 278.062 231.578 278.042 269.075C278.042 270.854 279.476 273.828 275.505 273.713C270.69 273.573 269.835 272.848 269.655 268.923C269.563 266.928 270.291 264.814 269.031 262.929Z" fill="#F9F9FA"/>
<path d="M248.958 34.1167C261.211 35.2754 272.615 39.4107 283.839 44.1363C293.397 48.1612 302.67 52.7379 311.229 58.6526C312.524 60.5266 312.951 62.4145 311.321 64.3363C294.844 55.5949 277.557 48.8235 259.879 42.9943C255.062 41.4076 251.18 38.823 248.958 34.1167Z" fill="#FFA800"/>
<path d="M280.57 167.955C282.067 175.905 282.318 183.991 282.552 192.02C283.113 211.254 283.976 230.501 283.283 249.742C283.023 257.007 283.48 264.341 282.089 271.553C281.644 270.891 281.414 270.201 281.845 269.414C281.249 269.62 281.705 270.031 281.631 270.332C281.391 271.338 282.187 273.053 280.518 273.105C278.737 273.161 279.368 271.402 279.363 270.41C279.31 260.27 279.333 250.129 279.334 239.99C279.337 217.785 279.345 195.58 279.358 173.375C279.363 171.503 278.887 169.472 280.57 167.955Z" fill="#797979"/>
<path d="M318.257 571.395C318.075 585.489 315.812 599.354 313.374 613.172C308.609 640.165 301.335 666.51 292.1 692.307C289.126 700.613 285.844 708.808 282.702 717.054C281.278 717.108 281.519 716.352 281.947 715.505C286.347 702.699 290.987 689.969 295.097 677.071C302.77 652.982 308.921 628.514 312.975 603.52C314.79 592.321 316.334 581.108 317.486 569.829C318.941 569.763 318.659 570.548 318.257 571.395Z" fill="white"/>
<path d="M280.57 167.955C279.994 169.782 279.697 171.685 279.688 173.6C279.723 205.368 279.733 237.134 279.719 268.898C279.719 270.096 279.429 271.383 280.54 273.057C281.792 270.506 280.862 268.161 282.089 266.089L282.088 271.544C281.917 272.529 282.799 274.134 280.823 274.095C279.292 274.065 278.633 273.132 278.732 271.528C278.85 269.609 278.761 267.678 278.761 265.752C278.761 231.088 278.765 196.423 278.774 161.758C278.774 160.037 278.454 158.264 279.338 156.049C279.929 160.357 280.712 164.1 280.57 167.955Z" fill="#706F6F"/>
<path d="M311.324 64.3372C311.294 62.4419 311.264 60.5473 311.233 58.6535C315.856 61.697 319.908 65.3372 323.033 69.9453C323.755 71.0085 324.468 72.0739 324.382 73.4482C319.781 70.7663 315.401 67.7699 311.324 64.3372Z" fill="#262122"/>
<path d="M281.947 715.505C281.982 716.126 282.082 716.717 282.702 717.054L273.448 738.642C272.761 738.819 272.378 738.693 272.692 737.879C275.776 730.421 278.861 722.963 281.947 715.505Z" fill="white"/>
<path d="M294.425 329.263C295.217 329.939 295.121 330.868 295.12 331.757C295.119 342.164 295.118 352.571 295.117 362.978C295.117 363.871 295.214 364.796 294.417 365.468C294.084 353.4 294.064 341.332 294.425 329.263Z" fill="#262626"/>
<path d="M318.261 556.744C318.154 551.05 318.03 545.353 319.613 539.771C319.257 546.97 320.702 554.201 319.042 561.369C318.012 559.957 319.225 558.167 318.261 556.744Z" fill="white"/>
<path d="M181.796 102.495L194.172 102.428C196.442 102.901 198.892 101.952 201.05 103.303C200.92 103.49 200.791 103.678 200.664 103.869C200.089 104.404 199.38 104.918 198.643 104.831C193.113 104.199 187.477 105.107 182.004 103.682C181.589 103.347 181.519 102.952 181.796 102.495Z" fill="#707171"/>
<path d="M318.261 556.744C319.641 558.097 318.718 559.839 319.043 561.369C318.593 564.697 319.851 568.158 318.258 571.395C318.211 570.769 318.109 570.17 317.483 569.83L318.261 556.744Z" fill="white"/>
<path d="M199.535 44.5986C193.553 44.6514 187.564 44.918 181.607 44.0617L182.707 43.7281C187.268 43.565 191.83 43.2864 196.383 43.8859C197.44 44.0989 198.642 43.6755 199.535 44.5986Z" fill="#EB2127"/>
<path d="M196.383 43.8892L182.706 43.7313C187.275 42.9115 191.838 42.6725 196.383 43.8892Z" fill="#EB2127"/>
<path d="M272.692 737.879L273.449 738.642L269.489 746.629C269.657 743.309 271.374 740.674 272.692 737.879Z" fill="white"/>
<path d="M319.819 302.26C319.655 299.746 319.491 297.233 319.328 294.719L321.331 295.44C319.667 297.452 321.567 300.262 319.819 302.26Z" fill="#EB2127"/>
<path d="M212.062 104.734L211.135 105.522C209.485 106.738 208.001 105.897 206.507 105.152C206.069 104.603 206.006 104.045 206.471 103.476L212.062 104.734Z" fill="#373839"/>
<path d="M267.786 748.136C268.301 750.402 267.593 751.697 265.557 753.557L267.786 748.136Z" fill="white"/>
<path d="M206.471 103.476C206.471 103.904 206.474 104.334 206.479 104.767C204.35 105.694 202.44 105.786 201.177 103.389L201.05 103.303L206.471 103.476Z" fill="#444444"/>
<path d="M276.678 146.441C276.441 145.475 276.204 144.509 275.968 143.543C278.072 144.052 277.726 145.161 276.678 146.441Z" fill="#9D9E9F"/>
<path d="M114.563 34.2156C112.54 39.3963 108.127 41.4964 103.262 43.1002C87.5727 48.2707 72.2654 54.4017 57.3946 61.598C55.6718 62.4332 54.0078 63.3913 52.3171 64.2927C50.5079 62.394 51.4615 60.501 52.3306 58.6091C71.4093 46.2333 92.329 38.55 114.563 34.2156Z" fill="#FFA800"/>
<path d="M52.3309 58.6132L52.3174 64.2959C48.2006 67.718 43.7736 70.693 39.2065 73.4701C40.1882 69.2732 43.0145 66.3515 46.1071 63.6544C48.1168 61.9006 50.2517 60.2879 52.3309 58.6132Z" fill="#211C1D"/>
<path d="M181.796 102.495C181.805 102.78 181.815 103.063 181.826 103.342C183.136 104.834 183.014 106.679 183.015 108.46C183.033 156.938 183.027 205.415 182.997 253.892C182.997 255.669 183.149 257.522 181.788 258.996C166.273 259.554 150.758 259.955 135.243 260.725C124.625 261.25 114.015 262.102 103.441 263.199C100.68 263.486 100.017 263.271 99.8993 260.405C99.1014 240.9 98.9154 221.391 99.3415 201.878C99.7408 182.67 100.381 163.474 103.736 144.452C105.556 134.085 111.455 126.783 119.371 120.671C129.387 112.94 140.656 107.913 153.079 105.487C154.383 104.153 156.134 104.311 157.769 104.084C160.061 103.601 162.426 103.742 163.937 103.705C163.643 103.842 162.576 103.969 161.54 103.185C168.26 101.917 175.038 102.477 181.796 102.495Z" fill="#262525"/>
<path d="M44.3755 294.573C51.1236 289.654 57.8097 284.647 64.6583 279.872C66.547 278.556 66.7987 276.903 66.9605 274.994C67.1445 275.141 67.3296 275.287 67.5179 275.429C68.2615 276.384 68.1661 277.354 67.5839 278.342C68.4825 297.675 69.4367 317.004 69.2728 336.37C69.1034 356.243 68.9776 376.117 68.8953 395.991C68.8952 397.007 69.0074 398.024 69.0682 399.04C68.4554 405.532 68.475 412.009 69.5378 418.461C69.2742 421.308 69.6548 424.184 69.2018 427.025C68.1408 431.829 68.8443 436.692 68.7378 441.526C68.8668 445.336 68.0018 449.05 67.6525 452.813C67.0027 455.017 66.7713 457.31 66.2756 459.551C65.9009 461.155 65.4802 462.739 65.1783 464.356C60.2438 487.07 53.7472 509.357 46.8815 531.544C46.7669 531.911 46.6674 532.283 46.5336 532.645C46.0647 533.951 45.8216 535.889 44.1995 535.774C42.3944 535.645 42.7916 533.65 42.6527 532.319C42.57 531.426 42.4068 530.543 42.1651 529.679C41.9116 528.621 41.8935 527.54 41.8188 526.463C41.741 523.643 42.2175 520.795 41.3404 518.014C41.0624 516.65 41.099 515.266 41.0435 513.886C42.1795 508.004 41.9245 502.095 41.4373 496.179C41.4233 487.706 41.4468 479.233 41.3912 470.761C41.076 423.084 42.2235 375.426 43.1731 327.761C43.3583 318.512 43.6162 309.265 43.8399 300.017C44.6019 298.263 42.8527 296.258 44.3755 294.573Z" fill="#262525"/>
<path d="M43.0486 529.391C43.3523 531.273 43.657 533.157 43.9671 535.075C45.2639 535.075 45.0169 533.938 45.2513 533.197C52.2915 510.711 58.861 488.095 63.9517 465.074C64.032 464.715 64.2942 464.395 64.4718 464.057C64.5617 464.14 64.7436 464.271 64.7286 464.299C64.4889 464.752 64.5145 465.124 64.6215 464.628C64.9652 462.948 66.1371 461.382 65.3562 459.54L66.6795 453.055C68.1384 449.405 68.2747 445.639 67.6707 441.808C67.6606 436.821 67.4194 431.826 68.2407 426.871C69.3466 430.871 68.4922 434.886 68.7571 438.896C68.5567 432.158 69.1696 425.419 68.4385 418.681C68.4607 412.131 68.1041 405.568 69.0658 399.046C69.091 403.398 69.1001 407.752 69.1552 412.107C69.1658 412.955 68.8339 414.01 69.8686 414.51C70.9032 415.01 71.602 414.347 72.0708 413.538C72.8114 412.255 73.9562 412.722 74.764 413.088C75.8415 413.578 75.3556 414.732 74.9403 415.417C73.6636 417.526 73.5199 419.826 73.8053 422.109C74.3398 426.414 73.9669 430.702 74.0274 434.973C74.0772 438.582 75.6764 442.262 75.3004 446.085C75.205 447.056 75.6211 448.131 74.5189 449.222C72.8682 446.258 74.4961 442.991 73.3034 439.81C71.3921 442.141 72.5089 444.632 72.2422 446.884C72.0687 448.352 72.581 449.956 70.3157 450.413C68.5352 450.777 68.5724 452.948 68.6868 453.916C69.0149 456.706 68.7792 459.415 68.6943 462.175C68.6481 463.685 69.443 464.709 67.3414 465.811C66.1225 466.453 67.4341 468.546 69.1889 468.722C71.3097 468.936 73.0259 469.825 74.6082 471.129C70.3472 482.132 67.5327 493.589 64.0346 504.832C59.087 520.734 54.4626 536.736 49.5547 552.649C48.8279 555.002 49.0898 556.812 50.4378 558.746C53.1423 562.632 55.7355 566.596 58.3747 570.528C57.1013 571.365 54.5933 570.267 54.4935 573.151C54.4784 573.579 53.6376 572.212 52.925 572.092C52.6918 571.504 52.1836 570.865 52.2832 570.339C52.5166 569.083 52.383 567.829 51.2296 567.451C49.2651 566.809 50.4097 569.402 48.9726 569.972L48.9732 565.278C47.6276 570.331 49.369 575.087 50.295 579.91C50.8992 583.061 50.9481 585.964 48.2963 588.284C46.9738 587.786 46.8819 586.66 46.7622 585.47C45.8677 576.585 45.2429 567.676 44.4521 558.791C44.4335 553.583 44.5529 548.364 44.1052 543.156C44.0828 542.903 44.1256 542.671 43.902 542.488L43.6708 542.793C42.0333 545.943 43.2988 549.323 42.9046 552.573C42.7975 553.487 43.3419 554.808 41.5572 554.643C40.0453 554.503 40.5633 553.309 40.6297 552.587C40.8355 550.341 39.8513 547.966 41.3507 545.854C41.5455 545.581 41.7456 545.035 41.613 544.847C38.3703 540.21 40.3302 534.723 39.1484 529.739C38.5506 527.22 39.7375 524.64 39.2211 521.873C38.6116 518.61 37.1126 517.605 34.3134 518.186C32.4419 518.575 30.2099 518.292 28.7213 520.182C31.5394 522.264 32.1714 525.088 32.1443 528.353C32.0487 539.786 32.1265 551.219 32.0791 562.653C32.0725 564.232 32.7613 566.191 30.8502 567.172C28.9615 568.14 27.4166 566.979 25.9358 565.923L25.941 523.514C26.7649 522.992 27.5119 522.292 28.5006 522.352C27.5055 522.435 26.7651 521.718 25.9391 521.201C25.9335 520.69 25.9285 520.179 25.9243 519.668C27.2812 518.938 29.9754 519.631 29.1775 516.61L29.6741 515.769C30.9732 514.513 31.6005 513.007 31.3717 511.183C31.2841 510.291 31.4853 509.486 32.0868 508.799C32.2718 509.16 32.3498 510.554 32.8732 509.095C33.6835 506.835 34.1182 504.44 34.7562 501.929C35.8616 501.358 35.9918 504.558 36.6179 503.173C37.3211 501.616 40.3044 500.704 39.1446 499.414C37.6329 497.731 38.7844 496.923 38.9803 495.61C39.2202 494.006 39.184 492.325 38.5444 490.69C38.2235 489.868 37.7678 488.738 38.7801 487.99C38.8946 487.905 39.7838 487.939 40.0983 488.06C41.2111 488.488 40.5882 489.574 40.5592 490.321C40.3113 496.564 41.3067 502.855 39.8657 509.06C39.7062 509.751 39.9351 510.532 39.9831 511.271L41.1494 511.333C41.2464 506.28 41.3429 501.228 41.4391 496.174C42.3372 502.18 42.069 508.229 42.0971 514.268C41.321 517.206 41.9338 520.136 41.8553 523.068C41.6875 521.338 41.3903 519.61 42.2315 517.901C43.0155 520.765 42.8824 523.691 42.8414 526.612C42.1767 528.283 42.6559 529.966 42.537 531.174C42.3604 530.84 42.3295 530.071 43.0486 529.391Z" fill="#C32227"/>
<path d="M90.0847 136.141C93.6612 140.532 96.0756 145.735 96.03 151.189C95.7313 187.146 95.0464 223.099 94.4878 259.054C93.1938 262.13 93.845 265.369 93.9259 268.502C94.0026 271.594 93.4246 273.247 89.8818 273.208C88.4394 273.193 86.8857 273.709 85.3502 273.706C85.0797 273.284 84.9498 272.788 84.9791 272.288C85.1303 234.73 85.0054 197.171 85.0603 159.611C85.0605 157.819 84.9355 156.02 85.2482 154.239C85.2717 153.99 85.296 153.741 85.321 153.49C85.0763 150.959 86.0781 148.696 86.8435 146.382C86.2188 144.809 87.3082 143.601 87.7214 142.249L90.0847 136.141Z" fill="#CFCECE"/>
<path d="M80.7792 205.878C80.46 191.186 81.8207 176.59 83.2777 161.999C83.3131 161.641 83.5753 161.304 83.7315 160.957C85.0068 161.998 84.8665 163.471 84.8685 164.865C84.9135 199.127 84.9207 233.389 84.8901 267.65C84.8901 268.291 84.9232 268.933 84.8546 269.575C84.7068 270.933 84.913 273.017 83.2192 272.976C81.2932 272.929 82.4427 270.741 81.8489 269.888C81.7365 270.199 82.0189 270.981 81.4367 271.514C80.3361 268.439 80.8041 265.256 80.7959 262.101C81.7594 258.161 80.7059 254.233 80.7224 250.296C80.7754 236.871 80.6027 223.449 81.1104 210.025C81.1587 208.649 81.4446 207.217 80.7792 205.878Z" fill="#636363"/>
<path d="M81.4369 271.517L81.4375 266.178C82.5565 268.224 81.7419 270.66 83.719 273.37L83.7327 160.958C83.8042 159.542 83.8786 158.127 83.9558 156.713C86.3493 157.647 85.3036 159.753 85.3077 161.289C85.3836 188.655 85.3991 216.021 85.3544 243.388C85.3534 251.867 85.3502 260.347 85.3449 268.828C85.3447 270.484 85.5499 272.189 84.5685 273.696C82.5536 274.365 80.8726 274.554 81.4369 271.517Z" fill="#5C5C5C"/>
<path d="M84.5691 273.696C84.5865 235.921 84.5958 198.146 84.5968 160.369C84.597 159.143 85.0252 157.777 83.9553 156.713C83.7414 155.354 83.7972 154.113 85.3189 153.49L85.4259 153.427C85.9297 154.39 85.7306 155.438 85.7304 156.45C85.7358 194.246 85.7312 232.044 85.7166 269.843C85.7165 270.858 85.8854 271.896 85.4594 272.88C85.4219 273.156 85.3834 273.432 85.3459 273.708L84.5691 273.696Z" fill="#8C8B8B"/>
<path d="M80.7795 205.878C81.828 206.78 81.4919 208.01 81.4928 209.126C81.5093 225.701 81.5073 242.276 81.4867 258.851C81.4866 259.968 81.8235 261.196 80.793 262.108C79.5626 243.365 80.0079 224.622 80.7795 205.878Z" fill="#5E5E5E"/>
<path d="M161.545 103.189L165.744 103.629L157.826 104.824C157.178 104.075 155.983 104.895 155.391 103.981C157.351 103.031 159.472 103.306 161.545 103.189Z" fill="#4D4D4E"/>
<path d="M155.387 103.981C156.216 104.214 157.247 103.864 157.822 104.824L153.084 105.492C152.535 104.636 151.595 105.075 150.865 104.821C152.247 103.866 153.845 104.075 155.387 103.981Z" fill="#363637"/>
<path d="M67.5842 278.342C67.5615 277.371 67.5395 276.4 67.5182 275.429L67.8298 273.706C68.2319 275.326 69.0085 276.94 67.5842 278.342Z" fill="#C32227"/>
<path d="M87.7201 142.249C87.996 143.746 87.0692 144.991 86.8422 146.382C85.2931 144.614 86.4745 143.424 87.7201 142.249Z" fill="#848384"/>
<path d="M44.3756 294.573C44.2373 296.392 44.7828 298.282 43.8399 300.028L43.5352 298.302C43.2239 297.257 43.3792 296.105 42.7951 295.124C43.1547 294.451 43.7807 294.546 44.3756 294.573Z" fill="#262525"/>
<path d="M42.795 295.119C44.1442 295.921 43.5223 297.183 43.535 298.296L42.1893 295.415C42.359 295.261 42.5691 295.158 42.795 295.119Z" fill="#C32227"/>
<path d="M47.5205 249.496C47.4139 246.715 48.2543 243.089 49.9453 239.763C52.0109 235.705 55.4671 235.539 57.3798 239.575C60.9741 247.158 60.8918 254.96 56.9565 262.424C55.1081 265.929 52.3069 265.697 50.3224 262.279C48.1967 258.633 47.5595 254.646 47.5205 249.496Z" fill="#020202"/>
<path d="M31.3715 511.185C32.3107 513.271 31.9114 514.862 29.6739 515.771C30.239 514.243 30.8049 512.714 31.3715 511.185Z" fill="#C32227"/>
<path d="M45.1705 558.277C45.7973 568.323 46.2626 578.385 48.2955 588.286C48.7737 597.491 50.9854 606.427 52.6311 615.442C57.5071 642.142 64.9961 668.151 73.8141 693.793C76.3074 701.045 78.9046 708.262 81.4535 715.496C81.9135 716.364 82.1028 717.1 80.6882 717.04C76.4245 706.332 72.3074 695.574 68.6503 684.631C62.439 666.053 57.0217 647.264 52.9281 628.1C50.0482 614.611 47.7215 601.016 46.2123 587.323C45.2621 578.698 44.3087 570.026 44.4168 561.306C44.1655 560.175 43.1481 558.85 45.1705 558.277Z" fill="white"/>
<path d="M80.6883 717.04C81.3111 716.706 81.4257 716.123 81.4536 715.495C85.6147 725.517 90.3996 735.284 93.7871 745.619C88.4221 736.551 84.6847 726.736 80.6883 717.04Z" fill="white"/>
<path d="M97.637 755.607L93.7765 746.34C97.3073 748.129 96.8049 752.314 98.8975 754.958L97.637 755.607Z" fill="white"/>
<path d="M53.2014 571.532C52.1793 573.646 51.135 573.221 50.2116 573.07C50.0864 573.05 49.8906 572.377 50.0052 572.161C50.9106 570.51 51.9547 572.777 53.2014 571.532Z" fill="#C32227"/>
<path d="M45.1707 558.277C44.0642 559.077 44.5937 560.281 44.4213 561.311C42.8285 557.651 43.9825 553.808 43.7079 550.059C43.5306 547.649 43.6721 545.217 43.6713 542.795C43.7057 542.071 43.7393 541.347 43.7722 540.622C45.0769 546.465 45.4496 552.349 45.1707 558.277Z" fill="white"/>
<path d="M25.9384 521.203C26.8918 521.363 28.2357 521.396 28.2217 522.514C28.2141 523.179 26.8605 523.47 25.9403 523.516C26.4091 522.744 26.4084 521.973 25.9384 521.203Z" fill="#C32227"/>
<path d="M181.787 258.996L181.825 103.341C186.904 103.577 192.012 102.752 197.081 103.973C198.327 104.273 199.804 103.609 201.176 103.389C202.781 104.497 204.738 104.204 206.478 104.768L211.136 105.523C227.734 109.524 242.568 116.557 253.719 130.046C259.199 136.678 260.096 144.832 261.099 152.783C265.049 184.094 264.439 215.577 264.084 247.039C264.073 248.041 263.775 249.04 263.611 250.041C262.683 247.185 263.283 244.338 263.111 241.484C263.291 247.596 262.732 253.701 263.43 259.821C264.112 263.146 263.121 263.693 259.639 263.229C247.506 261.616 235.267 261.036 223.03 260.58C220.502 260.485 217.918 260.887 215.454 259.956C217.571 259.075 219.681 259.392 221.794 259.611C216.946 259.554 212.103 259.125 207.242 259.744L181.787 258.996Z" fill="#2D2E2D"/>
<path d="M263.432 259.821C261.877 253.694 263.173 247.521 263.617 241.354C263.616 244.25 263.616 247.145 263.615 250.04L263.432 259.821Z" fill="#7B7B7B"/>
<path d="M207.245 259.744C212.076 258.267 216.963 259.491 221.815 259.009C221.82 259.325 221.826 259.641 221.833 259.956L215.458 259.955L207.245 259.744Z" fill="#797979"/>
<path d="M68.4398 418.677C69.977 422.107 68.8894 425.714 69.0955 429.231C69.2941 432.626 69.1374 436.041 68.2382 439.443L68.2397 426.871C68.3057 424.14 68.3724 421.409 68.4398 418.677Z" fill="#C32227"/>
<path d="M67.6681 441.813C69.1272 445.805 68.3905 449.781 67.5533 453.75C67.4195 454.384 67.0856 454.107 66.8824 453.792C66.7519 453.587 66.7423 453.306 66.677 453.059C67.007 449.307 67.3374 445.558 67.6681 441.813Z" fill="#C32227"/>
<path d="M42.2312 517.91L42.2305 523.513C41.6263 520.42 40.607 517.297 42.0968 514.277L42.2312 517.91Z" fill="#C32227"/>
<path d="M65.3538 459.54C67.8145 461.814 64.8375 463.692 64.6671 465.818C64.6023 465.232 64.5368 464.644 64.4705 464.057C64.3455 462.47 64.8068 460.997 65.3538 459.54Z" fill="#C32227"/>
<path d="M43.0491 529.391C42.9477 530.229 42.8464 531.068 42.745 531.907C42.3386 530.115 41.5448 528.324 42.8408 526.621L43.0491 529.391Z" fill="#C32227"/>
<path d="M70.6495 428.454C70.9182 427.47 70.1854 425.725 71.9745 425.907C73.5345 426.067 72.9437 427.716 72.9532 428.74C72.9627 429.763 73.4633 431.511 71.8829 431.472C70.0061 431.425 70.9672 429.529 70.6495 428.454Z" fill="#C32227"/>
<path d="M39.8955 518.39C38.6866 516.729 39.1929 515.528 39.682 514.311C39.745 515.581 39.8133 516.849 39.8955 518.39Z" fill="#C32227"/>
<path d="M39.7545 517.941C40.8661 519.252 40.5204 520.203 40.4956 521.577C39.4311 520.24 40.0251 519.122 39.7545 517.941Z" fill="#C32227"/>
<path d="M85.4637 272.88C85.4312 240.511 85.3995 208.144 85.3685 175.776C85.3641 168.326 85.4067 160.876 85.428 153.422C86.6048 154.599 86.1156 156.097 86.1165 157.455C86.1377 194.578 86.1332 231.702 86.1029 268.828C86.1017 270.189 86.5959 271.679 85.4637 272.88Z" fill="#D6D4D4"/>
</g>
<defs>
<clipPath id="clip0_370_1795">
<rect width="363" height="771" fill="white" transform="translate(363.014 771.061) rotate(-179.993)"/>
</clipPath>
</defs>
</svg>
