<svg width="364" height="772" viewBox="0 0 364 772" fill="none" xmlns="http://www.w3.org/2000/svg">
<g clip-path="url(#clip0_370_1874)">
<path d="M204.874 770.421C204.858 770.668 204.845 770.914 204.836 771.161L177.842 771.157C177.603 770.668 177.71 770.272 178.163 769.968C179.468 769.214 180.917 769.338 182.337 769.27C188.436 769.083 194.525 769.183 200.619 769.211C202.122 769.218 203.7 769.159 204.874 770.421Z" fill="#DEE0E1"/>
<path d="M177.902 770.437C177.872 770.677 177.854 770.917 177.846 771.157L161.649 771.155C161.422 770.625 161.555 770.212 162.048 769.915C167.365 768.99 172.68 768.263 177.902 770.437Z" fill="#C0C0C2"/>
<path d="M161.576 770.456C161.605 770.689 161.627 770.922 161.646 771.155L155.476 771.155C155.476 770.922 155.46 770.69 155.435 770.46C157.481 768.859 159.528 768.858 161.576 770.456Z" fill="#DBDDDE"/>
<path d="M204.874 770.421L181.629 770.342C180.313 768.844 180.465 766.99 180.464 765.208C180.446 719.221 180.452 673.234 180.481 627.247C180.481 625.709 180.458 624.154 181.174 622.722C182.086 621.331 183.556 621.284 184.952 621.332C188.047 621.427 191.086 621.011 194.119 620.541C215.512 619.466 236.023 614.6 255.715 606.193C272.51 599.023 287.093 588.727 299.462 575.307C304.189 570.174 308.089 564.459 311.862 558.623C313.436 556.191 313.022 553.74 312.252 551.217C307.826 536.717 303.543 522.173 299.096 507.684C295.929 497.367 292.999 486.977 289.772 476.679C287.847 470.556 285.756 469.465 279.728 471.901C260.915 479.507 241.501 484.745 221.362 487.282C209.365 488.793 197.331 489.571 185.236 489.186C183.588 489.133 181.802 489.273 180.956 487.307C180.359 485.425 180.49 483.487 180.489 481.566C180.488 413.385 180.495 345.204 180.508 277.023C180.508 276.125 180.496 275.225 180.535 274.327C180.728 269.788 181.271 269.252 186.029 268.858C202.919 268.51 219.776 269.42 236.64 270.14C245.969 270.539 255.294 270.99 264.616 271.492C266.857 271.611 267.576 270.606 267.69 268.615C267.797 266.732 267.433 264.735 268.774 263.085C270.938 263.121 270.511 264.92 270.768 266.155C271.025 267.389 270.82 268.715 271.103 269.977C271.541 271.919 273.13 272.144 274.676 272.224C276.381 272.316 276.747 271.038 276.88 269.668C276.988 268.518 276.957 267.362 276.957 266.209C276.961 229.667 276.97 193.123 276.984 156.578C276.984 153.745 276.795 150.944 276.215 148.18C275.945 146.709 276.737 145.052 275.444 143.751C274.094 141.53 273.677 138.9 272.322 136.68C269.884 132.178 266.023 128.94 262.143 125.867C249.103 115.547 233.965 109.927 217.811 106.749C215.804 106.353 213.8 105.938 211.776 105.622C209.858 105.172 207.934 104.766 205.977 104.513C204.289 104.424 202.587 104.524 200.922 104.128C198.504 103.352 195.931 104.021 193.502 103.33C190.966 102.688 188.386 103.072 185.83 102.968C181.544 102.792 180.648 102.042 180.593 97.685C180.462 87.1636 180.556 76.6413 180.552 66.12C180.552 63.4258 180.514 60.7315 180.615 58.0373C180.722 55.2457 182.028 53.7998 184.917 53.7927C187.996 53.7845 191.077 53.7989 194.151 53.7532C218.404 54.0364 242.269 57.0416 265.579 63.9827C266.953 64.3914 269.016 66.2367 269.847 63.8763C270.617 61.688 270.715 58.9799 268.362 57.1934C267.117 56.2467 265.609 55.8219 264.147 55.3437C250.888 51.006 237.195 48.923 223.38 47.4805C215.598 46.67 207.776 46.3738 199.988 45.6402C198.755 45.2764 197.491 45.041 196.236 44.767C191.785 43.9878 187.326 44.2546 182.86 44.6252C182.408 44.6774 181.95 44.6381 181.513 44.5095C181.294 44.4354 181.099 44.3042 180.947 44.1293C180.796 43.9544 180.694 43.7422 180.652 43.5147C181.025 37.9959 179.676 32.3794 181.584 26.9452C186.416 24.9767 191.487 25.8052 196.389 26.1202C211.622 27.1029 226.809 28.6749 241.824 31.5634C243.964 31.9744 246.139 32.2442 248.166 33.099C254.41 41.6157 264.429 43.1325 273.366 46.7091C286.217 51.8531 299.338 56.3983 311.341 63.4674C315.803 66.8392 320.328 70.1254 325.056 73.1294C329.363 77.0563 331.311 82.446 333.734 87.485C338.901 98.2294 343.286 109.268 344.738 121.242C344.83 122.003 345.043 122.75 344.524 123.442C345.538 126.564 345.495 129.712 344.857 132.902C343.898 137.693 344.311 142.591 343.958 147.431C342.697 164.758 340.401 181.949 338.589 199.197C337.482 209.74 338.385 220.492 338.378 231.151C338.378 231.792 338.313 232.428 338.278 233.066C336.272 232.624 336.411 230.784 336.095 229.416C334.705 223.407 331.296 219.462 325.326 217.485C320.34 215.836 315.579 213.527 310.595 211.829C304.221 209.659 300.687 211.962 300.099 218.683C299.151 229.538 299.005 240.434 298.427 251.305C297.992 259.493 298.08 267.701 297.375 275.88C296.881 281.732 296.654 287.604 296.427 293.454C295.96 305.449 295.149 317.445 295.507 329.466C295.36 341.41 295.43 353.352 295.478 365.291C295.633 366.441 295.56 367.598 295.529 368.752C295.035 387.114 296.702 405.444 296.363 423.8C295.839 452.506 303.907 479.609 311.472 506.821C313.702 514.843 316.232 522.78 318.821 531.625C319.295 522.634 319.91 514.541 320.228 506.41C321.424 475.863 321.107 445.304 320.756 414.762C320.566 398.212 320.724 381.636 319.978 365.11C319.475 353.938 319.865 342.773 319.304 331.633C318.91 323.809 318.534 316 318.625 308.169C318.647 306.373 318.587 304.572 318.934 302.793C320.147 300.35 318.492 296.977 321.414 295.084C325.25 294.797 328.217 297.027 331.42 298.564C333.147 299.392 334.591 300.744 336.471 301.394C337.7 300.201 337.144 298.706 337.148 297.386C337.191 278.373 337.161 259.359 337.208 240.346C337.208 238.356 336.707 236.184 338.423 234.52C339.718 236.231 339.198 238.23 339.201 240.099C339.243 261.014 339.709 281.944 339.132 302.844C337.369 366.711 338.902 430.585 338.315 494.452C337.988 496.852 335.747 497.078 334.164 497.84C331.591 499.074 330.582 500.65 331.292 503.571C332.104 506.906 333.168 510.163 333.996 513.484C334.637 516.051 337.109 517.056 338.304 519.106C338.309 533.482 338.526 547.864 338.215 562.233C338.086 568.205 340.958 573.334 341.637 579.074C342.526 586.561 343.196 594.075 343.511 601.56C344.029 613.86 344.257 626.235 343.526 638.514C341.853 666.537 334.864 693.038 318.25 716.25C307.889 730.729 294.644 742.045 279.064 750.668C262.063 760.078 243.778 765.638 224.706 768.659C218.167 769.693 211.558 770.701 204.874 770.421Z" fill="#24782D"/>
<path d="M344.526 123.449C341.677 106.909 335.486 91.6127 327.304 77.0463C326.537 75.6783 325.459 74.6375 324.377 73.5667C320.684 67.92 316.287 62.962 310.468 59.4029C295.74 49.8552 279.868 42.8615 263.053 37.8849C258.39 36.5036 253.403 36.4163 248.958 34.236C226.809 29.647 204.463 26.9105 181.804 27.1687C180.393 28.3386 178.688 28.2133 177.025 28.2377C156.421 28.6116 136.05 31.0616 115.859 35.0754C93.5188 39.4076 72.4398 47.0075 53.208 59.3576C47.9869 63.5774 42.1742 67.2486 39.6727 73.9886C30.4829 87.7068 24.7158 102.85 20.88 118.814C20.4732 120.509 20.8988 122.812 18.3382 123.36C16.2657 104.808 22.0127 87.6705 27.857 70.541C29.4241 65.9421 31.1602 61.3635 32.173 56.6372C33.8678 48.7323 38.6953 43.2588 44.7125 38.3909C61.6771 24.6662 81.3898 16.6704 102.142 10.9968C125.127 4.71267 148.636 1.73784 172.423 0.839104C177.854 -0.38916 183.388 0.870426 188.841 0.155554C189.996 0.993166 191.434 0.100253 192.616 0.773157C220.971 2.39166 248.95 6.10751 275.915 15.5219C291.459 20.9486 306.117 28.0395 318.983 38.5228C324.862 43.3109 329.292 48.7748 331.374 56.4224C334.689 68.6052 338.861 80.5527 342.711 92.589C345.861 102.444 345.277 112.601 345.199 122.716C345.198 122.963 344.76 123.206 344.526 123.449Z" fill="#010101"/>
<path d="M296.574 275.179C296.844 255.685 297.786 236.218 299.042 216.767C299.397 211.276 303.999 208.271 309.191 210.147C316.279 212.708 323.242 215.623 330.23 218.452C332.767 219.478 334.258 221.625 335.205 224.051C336.362 227.009 337.267 230.065 338.279 233.079C338.328 233.558 338.376 234.038 338.423 234.517L338.414 304.962C333.32 300.23 327.566 297.438 321.33 295.56C320.36 295.838 319.444 295.632 318.548 295.258C311.546 290.579 305.035 285.208 297.985 280.602C295.761 279.148 296.171 277.209 296.574 275.179Z" fill="#020202"/>
<path d="M338.304 519.104C335.522 518.524 334.007 516.728 333.284 514.065C332.221 510.151 331.132 506.242 329.958 502.36C329.226 499.943 330.104 498.617 332.347 497.654C334.415 496.771 336.333 495.532 338.316 494.446C344.95 491.193 351.665 488.101 358.17 484.609C361.089 483.05 361.658 484.077 362.3 486.699C364.193 494.411 362.481 501.317 357.375 507.127C352.269 512.938 346.504 518.053 338.304 519.104Z" fill="#020302"/>
<path d="M192.617 0.776335C191.333 0.705587 189.904 1.56427 188.842 0.158733L192.619 0.24688C192.609 0.423203 192.609 0.599936 192.617 0.776335Z" fill="#CAC9C9"/>
<path d="M42.1894 295.534C35.9702 297.476 30.1352 300.132 25.0895 305.098L25.0981 234.456L25.3295 232.332C25.7951 230.997 25.4818 229.426 26.5637 228.279C28.1224 222.029 32.0081 218.187 38.1812 216.215C43.5315 214.504 48.6592 212.112 53.9571 210.22C59.4144 208.271 64.1167 211.099 64.4873 216.719C65.769 236.162 66.6751 255.625 66.9605 275.117C68.3277 277.614 66.9964 279.318 65.1301 280.653C58.4741 285.413 52.0502 290.491 45.2593 295.063C44.6074 295.375 43.9174 295.6 43.2069 295.732C42.8557 295.766 42.5022 295.697 42.1894 295.534Z" fill="#020202"/>
<path d="M25.161 494.335C25.7655 494.757 26.3326 495.251 26.9799 495.589C34.1988 499.351 34.1988 499.343 32.2461 507.415C32.1284 507.901 32.139 508.417 32.0854 508.92C31.3652 509.718 32.0114 510.593 31.9482 511.429C31.6698 513.025 31.0918 514.518 30.3876 515.968C30.1431 516.462 29.863 516.938 29.5495 517.391C28.3873 518.771 27.0337 519.662 25.1216 519.109C15.3922 518.024 3.66188 507.419 1.12824 497.417C-0.0953722 493.507 0.497885 489.635 1.34367 485.759C1.80189 483.643 2.62797 483.254 4.70153 484.294C11.4914 487.694 18.033 491.617 25.161 494.335Z" fill="#020302"/>
<path d="M25.1497 306.948C26.4646 308.058 25.9423 309.576 25.9421 310.919C25.9605 370.477 25.9533 430.034 25.9203 489.591C25.9201 490.937 26.4378 492.449 25.158 493.578C25.1233 488.578 25.0597 483.577 25.0592 478.576C25.0589 423.034 25.0656 367.491 25.0796 311.949C25.0787 310.277 25.1249 308.611 25.1497 306.948Z" fill="#134E1A"/>
<path d="M26.562 228.279C26.2558 229.662 26.2032 231.121 25.3278 232.33C25.2579 220.765 25.188 209.2 25.118 197.636C26.5735 195.53 25.9473 197.85 25.9483 198.083C25.9826 206.791 25.9558 215.5 25.9965 224.208C26.0027 225.571 25.5371 227.041 26.562 228.279Z" fill="#134E1A"/>
<path d="M25.9351 566.044C25.8986 566.9 26.0825 567.838 25.0959 568.35L25.1339 519.774C25.4664 519.454 25.8116 519.441 26.1697 519.736C26.5688 520.22 26.7913 520.784 26.9346 521.389C27.2287 522.673 27.0017 523.975 27.1053 525.271C27.1873 537.048 27.1581 548.819 27.1256 560.59C27.1211 562.467 27.4547 564.473 25.9351 566.044Z" fill="#134E1A"/>
<path d="M25.9232 519.791L25.1346 519.775C25.0833 519.557 25.0789 519.331 25.1218 519.111C26.4637 518.301 28.3319 518.384 29.1764 516.732C30.3114 518.847 29.3494 519.751 25.9232 519.791Z" fill="#134E1A"/>
<path d="M181.734 622.414C163.306 622.065 145.176 619.656 127.461 614.472C100.227 606.501 76.6 592.827 58.3751 570.651C53.4535 567.025 50.8112 561.758 48.3551 556.424C47.5988 554.781 48.4272 552.895 48.9603 551.165C56.4534 526.887 63.5901 502.494 71.0585 478.205C71.8164 475.745 71.8403 472.751 74.6086 471.246C77.4134 468.625 80.4629 469.259 83.5754 470.556C100.712 477.705 118.46 482.666 136.821 485.439C145.847 486.819 154.937 487.441 164.012 488.269C174.001 488.984 184.003 488.37 193.997 488.598C195.51 488.633 197.07 488.265 198.667 488.997C197.937 491.108 196.079 490.774 194.561 490.885C191.746 491.089 188.915 490.916 186.092 491.001C184.059 491.063 183.025 491.998 183.002 494.066C182.989 495.22 182.959 496.375 182.959 497.529C182.954 535.901 182.95 574.272 182.945 612.644C182.945 613.543 183.01 614.446 182.945 615.338C182.719 618.485 184.183 619.571 187.277 619.658C189.845 619.73 192.967 618.345 194.816 621.539L181.734 622.414Z" fill="#262525"/>
<path d="M194.818 621.541C191.652 619.979 188.284 620.953 185.022 620.881C182.567 620.826 181.668 620.162 181.672 617.59C181.742 575.982 181.749 534.376 181.694 492.772C181.694 490.392 182.515 489.623 184.831 489.695C189.165 489.828 193.506 489.733 197.843 488.968C188.427 488.967 179.011 489.011 169.595 488.927C167.737 488.91 165.736 489.604 164.013 488.273L181.749 488.138C213.964 489.171 245.17 484.189 275.25 472.478C277.162 471.73 279.054 470.934 280.982 470.233C286.011 468.41 288.793 469.724 290.361 474.895C298.261 501.032 306.084 527.194 314.015 553.321C314.604 555.264 314.275 556.723 313.295 558.362C304.733 572.703 293.56 584.581 279.774 593.996C254.155 611.425 225.476 619.572 194.818 621.541Z" fill="#2D2E2D"/>
<path d="M296.574 275.179C296.519 277.613 297.45 279.11 299.676 280.593C306.403 285.079 312.803 290.054 319.331 294.839C320.728 297.272 320.32 299.823 319.822 302.379C320.194 321.764 320.567 341.149 320.94 360.534C321.91 411.645 322.942 462.756 321.17 513.87C320.93 520.793 320.244 527.701 319.762 534.657C317.767 534.502 318.028 532.802 317.714 531.78C309.717 505.789 302.122 479.69 296.984 452.951C295.299 444.186 295.845 435.278 295.551 426.438C294.876 406.162 294.077 385.882 294.42 365.58C295.152 358.728 294.678 351.855 294.709 344.993C294.732 339.789 295.138 334.569 294.428 329.377C294.177 311.277 294.954 293.212 296.574 275.179Z" fill="#2D2E2D"/>
<path d="M90.0849 136.261C93.0056 131.298 97.3535 127.694 101.836 124.307C116.37 113.325 133.011 107.572 150.865 104.94C151.892 104.678 153.169 103.816 153.203 105.921C152.007 107.025 150.436 107.211 148.963 107.614C136.633 110.987 125.485 116.578 115.941 125.176C110.132 130.408 106.379 136.781 104.899 144.533C102.751 155.783 101.889 167.173 101.217 178.562C100.054 198.298 100.464 218.069 100.307 237.828C100.251 244.905 101.375 251.906 101.148 258.969C101.06 261.66 102.497 262.187 104.812 261.964C112.73 261.207 120.682 260.81 128.591 260.107C135.89 259.46 143.215 259.36 150.49 259.1C160.993 258.722 171.498 257.798 182.03 258.077C190.387 257.507 198.675 259.271 207.026 258.782C209.844 259.06 212.688 258.682 215.498 259.11C216.604 259.431 217.719 259.672 218.892 259.656C232.106 259.481 245.24 260.687 258.375 261.986C260.185 262.165 262.12 262.535 262.35 259.815C262.636 256.64 262.209 253.444 262.672 250.28C263.29 248.553 263.253 246.751 263.241 244.957C263.144 228.913 263.69 212.858 263.068 196.841C262.394 179.448 261.994 162 258.632 144.791C256.862 135.732 252.344 128.732 245.249 123.046C236.605 116.119 227.017 111.145 216.36 108.187C214.522 107.677 212.583 107.336 211.117 105.93C210.892 105.086 211.057 104.588 212.081 104.851C234.48 108.351 255.005 115.808 270.974 132.822C271.963 133.875 273.542 134.747 272.999 136.656C273.244 138.138 272.729 139.463 272.047 140.707C269.249 145.814 268.487 151.272 268.548 157.055C268.809 181.31 269.477 205.557 269.557 229.818C269.588 239.157 270.07 248.535 270.11 257.897C270.117 259.664 270.364 261.534 269.05 263.045C268.45 266.307 270.498 270.762 268.222 272.564C266.356 274.04 262.115 272.487 258.924 272.325C234.841 271.1 210.753 269.967 186.631 269.819C183.33 268.821 180.007 269.652 176.701 269.75C158.599 270.289 140.496 270.824 122.399 271.491C114.059 271.798 105.726 272.319 97.4021 272.925C95.1978 273.085 94.4606 272.59 94.5465 270.33C94.6871 266.616 94.5346 262.891 94.5062 259.171C93.2715 257.781 93.4365 256.051 93.4517 254.406C93.6312 229.89 94.3051 205.38 94.4237 180.858C94.4632 172.674 94.7638 164.445 95.0248 156.241C95.1935 150.961 94.093 146.039 91.7835 141.35C90.9713 139.746 90.399 138.031 90.0849 136.261Z" fill="#020202"/>
<path d="M195.124 54.7062C194.25 54.5489 193.377 54.26 192.502 54.2524C161.893 53.9727 131.511 55.8493 101.825 64.0557C98.7591 64.9034 95.749 65.9555 92.7229 66.9102C92.5603 66.6118 92.3591 66.4118 92.3506 66.2043C91.9388 56.3835 91.9238 56.3086 101.447 53.4476C116.749 48.8504 132.478 46.7132 148.356 45.6573C159.226 44.9324 170.122 44.6161 181.006 44.1168L181.294 44.257L181.606 44.1843C187.589 44.154 193.584 43.667 199.534 44.7213C219.543 45.6767 239.456 47.2931 258.889 52.5631C259.999 52.8648 261.136 53.0981 262.206 53.5015C273.367 57.7383 271.194 54.631 271.074 66.9609C246.417 58.5768 220.94 55.5704 195.124 54.7062Z" fill="#020202"/>
<path d="M269.031 263.048C268.478 225.873 267.844 188.698 267.461 151.521C267.405 146.089 269.996 141.194 272.98 136.655C275.082 138.517 274.824 141.387 275.969 143.659C276.576 144.534 277.4 145.357 276.678 146.556C278.324 149.774 278.126 153.232 278.123 156.703C278.089 194.2 278.062 231.697 278.042 269.194C278.042 270.974 279.476 273.947 275.505 273.832C270.69 273.693 269.835 272.967 269.655 269.042C269.563 267.047 270.291 264.933 269.031 263.048Z" fill="#F9F9FA"/>
<path d="M248.958 34.236C261.211 35.3948 272.615 39.5301 283.839 44.2557C293.397 48.2806 302.67 52.8573 311.229 58.772C312.524 60.646 312.951 62.5339 311.321 64.4557C294.844 55.7143 277.557 48.9429 259.879 43.1137C255.062 41.527 251.18 38.9424 248.958 34.236Z" fill="#EB2127"/>
<path d="M280.57 168.074C282.067 176.025 282.318 184.111 282.552 192.14C283.113 211.374 283.976 230.621 283.283 249.861C283.023 257.127 283.48 264.461 282.089 271.673C281.644 271.01 281.414 270.321 281.845 269.533C281.249 269.74 281.705 270.151 281.631 270.451C281.391 271.458 282.187 273.172 280.518 273.224C278.737 273.281 279.368 271.521 279.363 270.529C279.31 260.389 279.333 250.249 279.334 240.109C279.337 217.905 279.345 195.7 279.358 173.495C279.363 171.622 278.887 169.592 280.57 168.074Z" fill="#797979"/>
<path d="M318.257 571.515C318.075 585.608 315.812 599.474 313.374 613.291C308.609 640.284 301.335 666.629 292.1 692.427C289.126 700.733 285.844 708.927 282.702 717.173C281.278 717.228 281.519 716.471 281.947 715.624C286.347 702.818 290.987 690.089 295.097 677.19C302.77 653.101 308.921 628.634 312.975 603.639C314.79 592.44 316.334 581.227 317.486 569.949C318.941 569.883 318.659 570.668 318.257 571.515Z" fill="white"/>
<path d="M280.57 168.074C279.994 169.901 279.697 171.804 279.688 173.719C279.723 205.487 279.733 237.253 279.719 269.018C279.719 270.216 279.429 271.502 280.54 273.176C281.792 270.625 280.862 268.281 282.089 266.208L282.088 271.663C281.917 272.648 282.799 274.253 280.823 274.215C279.292 274.185 278.633 273.252 278.732 271.648C278.85 269.729 278.761 267.797 278.761 265.872C278.761 231.207 278.765 196.542 278.774 161.877C278.774 160.156 278.454 158.384 279.338 156.169C279.929 160.476 280.712 164.22 280.57 168.074Z" fill="#706F6F"/>
<path d="M311.324 64.4566C311.294 62.5613 311.264 60.6667 311.233 58.7729C315.856 61.8163 319.908 65.4566 323.033 70.0646C323.755 71.1279 324.468 72.1932 324.382 73.5676C319.781 70.8857 315.401 67.8893 311.324 64.4566Z" fill="#262122"/>
<path d="M281.947 715.624C281.982 716.246 282.082 716.836 282.702 717.173L273.448 738.761C272.761 738.939 272.378 738.812 272.692 737.998C275.776 730.54 278.861 723.082 281.947 715.624Z" fill="white"/>
<path d="M294.425 329.383C295.217 330.059 295.121 330.987 295.12 331.877C295.119 342.284 295.118 352.691 295.117 363.097C295.117 363.991 295.214 364.916 294.417 365.587C294.084 353.519 294.064 341.452 294.425 329.383Z" fill="#262626"/>
<path d="M318.261 556.864C318.154 551.169 318.03 545.473 319.613 539.891C319.257 547.089 320.702 554.32 319.042 561.488C318.012 560.076 319.225 558.286 318.261 556.864Z" fill="white"/>
<path d="M181.796 102.615L194.172 102.548C196.442 103.021 198.892 102.071 201.05 103.422C200.92 103.61 200.791 103.798 200.664 103.988C200.089 104.523 199.38 105.037 198.643 104.951C193.113 104.319 187.477 105.226 182.004 103.801C181.589 103.466 181.519 103.071 181.796 102.615Z" fill="#707171"/>
<path d="M318.261 556.864C319.641 558.217 318.718 559.958 319.043 561.489C318.593 564.816 319.851 568.277 318.258 571.515C318.211 570.889 318.109 570.29 317.483 569.95L318.261 556.864Z" fill="white"/>
<path d="M199.535 44.718C193.553 44.7708 187.564 45.0374 181.607 44.181L182.707 43.8475C187.268 43.6844 191.83 43.4058 196.383 44.0053C197.44 44.2183 198.642 43.7949 199.535 44.718Z" fill="#24782D"/>
<path d="M196.383 44.0085L182.706 43.8507C187.275 43.0309 191.838 42.7919 196.383 44.0085Z" fill="#24782D"/>
<path d="M272.692 737.999L273.449 738.761L269.489 746.748C269.657 743.428 271.374 740.793 272.692 737.999Z" fill="white"/>
<path d="M319.819 302.379C319.655 299.866 319.491 297.352 319.328 294.839L321.331 295.56C319.667 297.571 321.567 300.381 319.819 302.379Z" fill="#24782D"/>
<path d="M212.062 104.854L211.135 105.642C209.485 106.858 208.001 106.017 206.507 105.271C206.069 104.722 206.006 104.164 206.471 103.595L212.062 104.854Z" fill="#373839"/>
<path d="M267.786 748.255C268.301 750.522 267.593 751.817 265.557 753.676L267.786 748.255Z" fill="white"/>
<path d="M206.471 103.595C206.471 104.023 206.474 104.453 206.479 104.886C204.35 105.813 202.44 105.905 201.177 103.508L201.05 103.422L206.471 103.595Z" fill="#444444"/>
<path d="M276.678 146.561C276.441 145.594 276.204 144.628 275.968 143.662C278.072 144.171 277.726 145.281 276.678 146.561Z" fill="#9D9E9F"/>
<path d="M114.563 34.335C112.54 39.5157 108.127 41.6158 103.262 43.2196C87.5727 48.3901 72.2654 54.5211 57.3946 61.7174C55.6718 62.5525 54.0078 63.5106 52.3171 64.4121C50.5079 62.5134 51.4615 60.6204 52.3306 58.7284C71.4093 46.3527 92.329 38.6694 114.563 34.335Z" fill="#EB2127"/>
<path d="M52.3309 58.7326L52.3174 64.4153C48.2006 67.8374 43.7736 70.8124 39.2065 73.5895C40.1882 69.3926 43.0145 66.4709 46.1071 63.7738C48.1168 62.02 50.2517 60.4073 52.3309 58.7326Z" fill="#211C1D"/>
<path d="M181.796 102.615C181.805 102.9 181.815 103.182 181.826 103.462C183.136 104.954 183.014 106.799 183.015 108.58C183.033 157.057 183.027 205.535 182.997 254.012C182.997 255.788 183.149 257.642 181.788 259.115C166.273 259.674 150.758 260.074 135.243 260.844C124.625 261.369 114.015 262.222 103.441 263.319C100.68 263.605 100.017 263.39 99.8993 260.525C99.1014 241.019 98.9154 221.51 99.3415 201.997C99.7408 182.79 100.381 163.593 103.736 144.571C105.556 134.204 111.455 126.902 119.371 120.791C129.387 113.06 140.656 108.032 153.079 105.607C154.383 104.272 156.134 104.431 157.769 104.203C160.061 103.72 162.426 103.861 163.937 103.824C163.643 103.961 162.576 104.088 161.54 103.304C168.26 102.036 175.038 102.597 181.796 102.615Z" fill="#262525"/>
<path d="M44.3755 294.693C51.1236 289.774 57.8097 284.767 64.6583 279.992C66.547 278.675 66.7987 277.022 66.9605 275.114C67.1445 275.26 67.3296 275.406 67.5179 275.548C68.2615 276.503 68.1661 277.473 67.5839 278.462C68.4825 297.794 69.4367 317.123 69.2728 336.489C69.1034 356.362 68.9776 376.236 68.8953 396.111C68.8952 397.127 69.0074 398.143 69.0682 399.159C68.4554 405.651 68.475 412.128 69.5378 418.58C69.2742 421.427 69.6548 424.304 69.2018 427.144C68.1408 431.949 68.8443 436.811 68.7378 441.645C68.8668 445.455 68.0018 449.17 67.6525 452.932C67.0027 455.137 66.7713 457.43 66.2756 459.67C65.9009 461.275 65.4802 462.859 65.1783 464.476C60.2438 487.19 53.7472 509.476 46.8815 531.664C46.7669 532.03 46.6674 532.403 46.5336 532.764C46.0647 534.07 45.8216 536.008 44.1995 535.893C42.3944 535.765 42.7916 533.769 42.6527 532.439C42.57 531.546 42.4068 530.662 42.1651 529.799C41.9116 528.74 41.8935 527.66 41.8188 526.583C41.741 523.762 42.2175 520.914 41.3404 518.133C41.0624 516.769 41.099 515.385 41.0435 514.005C42.1795 508.123 41.9245 502.215 41.4373 496.299C41.4233 487.826 41.4468 479.353 41.3912 470.881C41.076 423.204 42.2235 375.545 43.1731 327.88C43.3583 318.632 43.6162 309.384 43.8399 300.137C44.6019 298.383 42.8527 296.377 44.3755 294.693Z" fill="#262525"/>
<path fill-rule="evenodd" clip-rule="evenodd" d="M181.698 763.796C181.71 716.669 181.722 669.542 181.734 622.415C180.649 621.234 179.262 621.285 177.906 621.334C177.613 621.345 177.322 621.356 177.035 621.354C172.938 621.344 168.864 620.91 164.808 620.477L164.808 620.477L164.808 620.477C164.161 620.408 163.515 620.339 162.869 620.272C149.067 618.834 135.479 616.171 122.283 611.784C102.453 605.199 84.3082 595.716 69.393 580.722C68.251 579.574 67.1294 578.406 66.0079 577.238L66.0072 577.237C63.7602 574.897 61.5131 572.556 59.1018 570.379C58.7204 570.224 58.3573 570.136 58.0087 570.101C57.361 569.134 56.7156 568.165 56.0703 567.196C54.2115 564.406 52.3528 561.616 50.4383 558.865C49.0903 556.931 48.8284 555.122 49.5552 552.769C51.8496 545.329 54.0821 537.87 56.3146 530.411C58.8575 521.915 61.4005 513.419 64.0351 504.951C65.1576 501.343 66.2098 497.713 67.262 494.083C69.4467 486.546 71.6314 479.009 74.4463 471.67C74.5408 471.681 74.6363 471.689 74.7328 471.693C78.7477 470.236 82.423 471.19 86.2642 472.772C111.37 483.112 137.662 487.954 164.676 489.279C166.516 489.266 168.357 489.269 170.2 489.271L170.211 489.271C172.649 489.274 175.087 489.277 177.523 489.245C177.728 489.242 177.934 489.244 178.141 489.246C179.436 489.258 180.752 489.27 181.752 488.135C181.82 417.252 181.793 346.37 181.671 275.487C181.665 271.599 182.252 269.359 186.614 269.819C185.515 267.678 183.497 267.932 181.738 268.154L181.543 268.179C174.348 269.075 167.125 269.092 159.899 269.108C155.583 269.118 151.266 269.128 146.954 269.326C141.056 269.596 135.155 269.846 129.253 270.096L129.249 270.096L129.245 270.096L129.241 270.096C119.266 270.518 109.289 270.94 99.3193 271.464C96.7417 271.602 95.8665 270.725 95.7887 268.286C95.7621 267.477 95.7927 266.662 95.8233 265.846C95.9031 263.72 95.983 261.588 95.0515 259.547C93.2726 258.763 93.1142 259.99 92.983 261.006C92.9656 261.142 92.9486 261.273 92.9283 261.396C92.6137 263.303 92.6698 265.241 92.7256 267.17L92.7256 267.17L92.7257 267.171C92.7359 267.526 92.7462 267.881 92.7541 268.236C92.8095 270.715 91.7201 272.018 89.2708 272.299C88.7886 272.355 88.3091 272.438 87.8284 272.521C87.3064 272.612 86.783 272.702 86.2533 272.758C85.8702 272.78 85.4957 272.807 85.1126 272.859C82.888 273.582 82.1498 272.363 81.9254 270.466C81.7199 268.728 81.7674 266.984 81.815 265.239C81.8481 264.025 81.8812 262.812 81.8291 261.6C80.3761 243.112 81.0354 224.62 81.8787 206.128C81.9083 191.291 82.6249 176.496 84.496 161.764C84.8149 160.503 84.8304 159.218 84.8458 157.934L84.8486 157.704C84.8504 157.565 84.8524 157.426 84.855 157.288C84.7267 155.892 85.233 154.67 85.8677 153.482C86.0148 152.856 86.17 152.232 86.3253 151.608C86.6987 150.107 87.0721 148.607 87.3322 147.08C87.0746 145.536 87.1967 144.071 88.1802 142.779C88.5478 142.003 88.8555 141.2 89.1632 140.397L89.1634 140.397C89.6764 139.058 90.1895 137.718 90.9801 136.504C93.9895 132.311 97.6793 128.745 101.723 125.596C116.278 114.274 133.22 108.76 151.104 105.614C151.928 105.334 152.786 105.259 153.644 105.185L153.645 105.185C154.388 105.121 155.131 105.056 155.853 104.858C156.924 104.518 158.031 104.489 159.137 104.459L159.138 104.459C160.189 104.431 161.239 104.403 162.259 104.11C165.95 103.707 169.651 103.772 173.351 103.838C176.222 103.889 179.093 103.94 181.96 103.772C182.519 103.765 183.08 103.774 183.641 103.783C184.732 103.801 185.823 103.818 186.903 103.722C187.622 103.657 188.361 103.704 189.101 103.751C190.874 103.863 192.652 103.975 194.172 102.547C192.007 101.654 189.769 101.765 187.535 101.876L187.535 101.876L187.533 101.876L187.532 101.876L187.531 101.876C186.587 101.923 185.645 101.97 184.709 101.941C182.639 101.879 181.735 101.344 181.747 99.0979C181.82 85.2599 181.822 71.4212 181.752 57.5817C181.741 55.2972 182.715 54.7668 184.766 54.8141C187.204 54.8718 189.644 54.819 192.083 54.7662C193.097 54.7443 194.11 54.7224 195.124 54.7084C194.211 52.8583 192.608 52.9226 191.067 52.9844L191.066 52.9844L191.066 52.9844L191.066 52.9844C190.72 52.9982 190.378 53.012 190.047 53.0039C177.473 52.6944 164.94 53.4993 152.411 54.4721C133.951 55.9063 115.709 58.5406 97.9462 63.976C97.6466 64.0676 97.3376 64.2068 97.0235 64.3483C95.9444 64.8344 94.8056 65.3474 93.7838 64.0483C92.7557 62.7401 93.5941 58.3293 94.9724 57.2749C95.8713 56.586 96.9419 56.2149 98.0041 55.8468C98.157 55.7938 98.3098 55.7408 98.4619 55.687C103.791 53.7795 109.277 52.4454 114.807 51.3038C133.465 47.4513 152.331 45.8012 171.377 45.949L171.541 45.9504L171.919 45.9541L172.016 45.9552C175.118 45.9889 178.259 46.0229 181.007 44.1169C182.048 40.5807 181.922 36.99 181.796 33.3991C181.723 31.3195 181.651 29.2399 181.804 27.1709C159.118 26.9969 136.721 29.5408 114.564 34.3351C114.252 34.6404 113.941 34.948 113.631 35.2554C110.941 37.9217 108.258 40.5817 104.42 41.7043C101.018 42.6969 97.7072 43.958 94.398 45.2186L94.3958 45.2195C93.7426 45.4683 93.0894 45.7172 92.4357 45.9639L92.0615 46.1047C78.4797 51.2144 64.8956 56.325 52.2011 63.4763C50.5427 64.899 48.727 66.1187 46.9113 67.3383L46.9108 67.3387C44.1586 69.1874 41.4067 71.0359 39.2036 73.5907C37.9076 74.6419 36.9113 75.9124 36.0808 77.3766C28.8685 90.0907 23.4365 103.5 20.0728 117.742C19.9422 118.29 19.8781 118.862 19.8138 119.434C19.6553 120.846 19.4961 122.265 18.3355 123.364C18.3326 123.793 18.3223 124.222 18.3121 124.651C18.2917 125.502 18.2714 126.354 18.3083 127.203C19.1065 144.319 20.4459 161.385 22.3263 178.4C22.4797 179.788 22.6147 181.182 22.7497 182.576C23.2394 187.634 23.7308 192.709 25.1124 197.639C25.8775 198.219 25.76 198.97 25.6465 199.695C25.6056 199.957 25.5651 200.215 25.5668 200.461C25.5934 204.369 25.5944 208.276 25.5954 212.185C25.5965 216.465 25.5976 220.745 25.6323 225.024C25.6346 225.306 25.5949 225.604 25.5546 225.906C25.4289 226.848 25.2978 227.832 26.4173 228.491C27.646 228.058 28.0804 227.026 28.512 226.001C28.6231 225.737 28.7341 225.473 28.8584 225.221C29.888 223.124 31.0053 221.001 33.1455 219.932C40.2615 216.377 47.6246 213.342 55.2861 211.227C59.6102 210.034 62.9108 212.724 63.3661 217.137C64.3248 226.433 64.665 235.779 64.896 245.107C64.9776 248.423 65.1767 251.734 65.3757 255.046C65.722 260.808 66.0683 266.57 65.7958 272.351C65.7436 273.255 65.9279 274.157 66.3305 274.967C66.4223 275.155 66.5645 275.313 66.7412 275.424C66.918 275.535 67.1222 275.594 67.3309 275.595C67.7696 275.385 67.9526 275.027 67.9431 274.559C68.0329 274.925 67.944 275.268 67.8188 275.609C67.3104 276.999 66.8629 278.405 66.5942 279.853C66.32 281.889 66.3754 283.936 66.5335 285.985C67.2909 295.815 67.8387 305.665 67.8845 315.519C67.9532 330.472 67.9442 345.426 67.9351 360.381L67.9351 360.381L67.9351 360.382L67.9351 360.382L67.9351 360.388C67.9274 373.119 67.9197 385.851 67.96 398.586C68.1189 400.935 68.1103 403.282 68.1016 405.628C68.0966 407.003 68.0915 408.378 68.1202 409.752C68.1278 410.113 68.1171 410.479 68.1063 410.847C68.0763 411.872 68.0459 412.907 68.4108 413.845C68.4126 414.035 68.4144 414.224 68.4162 414.413C68.4301 415.876 68.444 417.339 68.439 418.801C68.8576 422.658 68.8356 426.516 68.778 430.374C68.7087 429.245 68.5527 428.117 68.2412 426.99C67.5666 431.06 67.6088 435.157 67.651 439.254C67.6602 440.145 67.6694 441.037 67.6711 441.928C68.2752 445.759 68.1389 449.525 66.68 453.174L65.3567 459.66C65.9052 460.953 65.4903 462.111 65.0756 463.268C64.943 463.638 64.8103 464.008 64.7093 464.382C64.6819 464.352 64.6309 464.31 64.5795 464.268C64.5407 464.236 64.5016 464.204 64.4723 464.176C64.416 464.283 64.3512 464.389 64.2864 464.494C64.1467 464.721 64.007 464.948 63.9522 465.193C58.8615 488.214 52.292 510.83 45.2518 533.316C45.1957 533.494 45.1671 533.694 45.1384 533.896C45.0471 534.537 44.9536 535.194 43.9676 535.194L43.7987 534.149C43.5466 532.59 43.2975 531.05 43.0491 529.51C42.7928 529.753 42.6318 530.006 42.5387 530.248C42.5335 530.149 42.5276 530.049 42.5217 529.947C42.4641 528.966 42.3984 527.846 42.8419 526.731C42.8456 526.465 42.8502 526.199 42.8547 525.932C42.8996 523.277 42.9445 520.623 42.232 518.021C41.9782 518.536 41.828 519.054 41.7467 519.572C41.6652 517.845 41.6405 516.118 42.0976 514.388C42.0919 513.164 42.0984 511.94 42.1048 510.716C42.1058 510.54 42.1067 510.364 42.1076 510.189C42.1428 510.055 42.1755 509.921 42.2074 509.79C42.3824 509.077 42.3847 508.343 42.387 507.61C42.3873 507.525 42.3876 507.44 42.3881 507.356C42.3886 507.272 42.3894 507.189 42.3907 507.106C42.4109 505.818 42.4031 504.529 42.3952 503.241L42.3952 503.239L42.3952 503.238L42.3952 503.238L42.3952 503.238C42.3796 500.677 42.364 498.117 42.5686 495.566C42.6169 484.283 42.6145 472.999 42.6121 461.714C42.6062 433.61 42.6002 405.501 43.377 377.399C43.445 374.954 43.4336 372.509 43.4223 370.063C43.4092 367.246 43.3961 364.43 43.5041 361.613C44.277 341.363 44.9129 321.11 44.8469 300.842C44.7882 300.111 44.66 299.388 44.4641 298.682C44.3776 298.461 44.2968 298.237 44.2161 298.012C43.7377 296.682 43.2617 295.359 41.6184 294.907C35.914 295.86 31.1896 298.924 26.3356 302.189C26.3606 281.376 26.3621 260.828 26.3271 240.28C26.3266 239.912 26.3433 239.538 26.3601 239.162C26.4345 237.504 26.5104 235.81 25.1069 234.455C24.2304 235.681 24.2722 237.071 24.3133 238.44C24.322 238.729 24.3306 239.017 24.3306 239.303C24.3173 260.498 24.3069 281.694 24.2993 302.891C24.2993 303.01 24.2986 303.129 24.2979 303.248C24.2903 304.544 24.2827 305.834 25.1548 306.942C25.7862 307.921 25.7063 308.983 25.6272 310.034C25.601 310.382 25.5749 310.73 25.5748 311.072C25.5904 370.524 25.5831 429.976 25.553 489.427C25.5527 489.77 25.5763 490.118 25.6 490.467C25.6715 491.519 25.7438 492.582 25.1609 493.573C25.1052 493.824 25.1052 494.084 25.1608 494.335C25.4439 496.34 26.9388 496.913 28.4003 497.473C28.9034 497.666 29.4026 497.857 29.847 498.105C32.0693 499.349 32.8855 500.896 32.3009 503.373C32.1966 503.816 32.0736 504.257 31.9503 504.699L31.9502 504.699L31.9501 504.699L31.9497 504.701C31.5319 506.199 31.1118 507.705 31.4089 509.309C31.4654 509.459 31.5234 509.596 31.5826 509.718C31.3773 510.206 31.3166 510.737 31.3722 511.303C31.601 513.126 30.9737 514.632 29.6746 515.889L29.178 516.729C29.7549 518.913 28.5064 519.156 27.2576 519.399C26.7792 519.492 26.3007 519.586 25.9248 519.788C25.929 520.298 25.934 520.809 25.9396 521.321C26.1131 521.429 26.2828 521.546 26.4518 521.663C27.0116 522.05 27.5644 522.433 28.2249 522.474C27.5579 522.528 26.9962 522.915 26.4277 523.307C26.267 523.418 26.1058 523.529 25.9415 523.633L25.9363 566.003C25.5888 566.279 25.5736 566.714 25.5585 567.148C25.5422 567.616 25.5259 568.084 25.0961 568.353C23.7873 569.985 23.1386 571.842 22.7286 573.915C21.2339 581.478 20.744 589.113 20.361 596.795C19.356 616.906 18.811 636.977 21.9886 656.978C27.0662 688.923 39.9222 716.689 65.3313 737.699C74.8631 745.582 85.2147 752.138 96.8323 756.559L96.8351 756.556C115.428 765.15 135.195 768.799 155.435 770.455L161.577 770.456L177.898 770.438L181.63 770.342C181.638 769.651 181.647 768.96 181.657 768.269C181.677 766.778 181.698 765.287 181.698 763.796ZM43.6453 542.962C43.7829 543.032 43.9357 543.133 44.1052 543.27C44.1012 543.223 44.0994 543.177 44.0976 543.131C44.0899 542.934 44.0828 542.755 43.9025 542.607L43.6713 542.912C43.6626 542.929 43.6539 542.946 43.6453 542.962ZM47.2867 587.646C47.337 588.192 47.3879 588.738 47.4396 589.284L47.4449 589.34C47.4843 589.11 47.5354 588.88 47.5991 588.651C47.6946 588.501 47.7861 588.35 47.8734 588.199C47.6208 588.045 47.4311 587.857 47.2867 587.646ZM36.1403 503.514C36.2604 503.681 36.3835 503.711 36.5358 503.454C36.4047 503.48 36.2726 503.5 36.1403 503.514ZM64.6673 464.546C64.495 464.935 64.5252 465.196 64.622 464.747C64.6358 464.68 64.651 464.613 64.6673 464.546ZM68.7154 436.227C68.6949 437.156 68.6962 438.086 68.7576 439.015C68.7299 438.086 68.7178 437.156 68.7154 436.227ZM67.1069 466.101C66.8707 466.336 66.8193 466.664 66.9072 467.012C66.9531 466.742 67.0212 466.44 67.1069 466.101ZM52.8797 623.006C52.0774 618.955 51.2825 614.9 50.5438 610.833C51.1098 613.92 51.7027 617.001 52.3226 620.077C56.6554 641.576 62.4012 662.667 69.2049 683.445C62.5845 663.628 56.9431 643.526 52.8797 623.006ZM52.7095 572.329C52.6616 572.352 52.6113 572.372 52.5613 572.391C52.3987 572.455 52.238 572.518 52.1657 572.699C52.2293 572.655 52.2946 572.614 52.3602 572.572L52.3603 572.572C52.4797 572.496 52.5996 572.419 52.7095 572.329Z" fill="#134E1A"/>
<path d="M90.0847 136.26C93.6612 140.651 96.0756 145.854 96.03 151.309C95.7313 187.265 95.0464 223.219 94.4878 259.173C93.1938 262.249 93.845 265.489 93.9259 268.622C94.0026 271.714 93.4246 273.366 89.8818 273.327C88.4394 273.312 86.8857 273.828 85.3502 273.825C85.0797 273.404 84.9498 272.908 84.9791 272.408C85.1303 234.849 85.0054 197.29 85.0603 159.73C85.0605 157.939 84.9355 156.14 85.2482 154.358C85.2717 154.11 85.296 153.86 85.321 153.609C85.0763 151.079 86.0781 148.816 86.8435 146.501C86.2188 144.929 87.3082 143.72 87.7214 142.368L90.0847 136.26Z" fill="#CFCECE"/>
<path d="M80.7792 205.997C80.46 191.305 81.8207 176.709 83.2777 162.118C83.3131 161.76 83.5753 161.423 83.7315 161.077C85.0068 162.118 84.8665 163.59 84.8685 164.984C84.9135 199.246 84.9207 233.508 84.8901 267.769C84.8901 268.411 84.9232 269.053 84.8546 269.694C84.7068 271.053 84.913 273.136 83.2192 273.095C81.2932 273.048 82.4427 270.86 81.8489 270.007C81.7365 270.319 82.0189 271.1 81.4367 271.633C80.3361 268.558 80.8041 265.375 80.7959 262.221C81.7594 258.281 80.7059 254.352 80.7224 250.415C80.7754 236.991 80.6027 223.569 81.1104 210.145C81.1587 208.768 81.4446 207.336 80.7792 205.997Z" fill="#636363"/>
<path d="M81.4369 271.636L81.4375 266.297C82.5565 268.343 81.7419 270.78 83.719 273.489L83.7327 161.078C83.8042 159.662 83.8786 158.247 83.9558 156.833C86.3493 157.767 85.3036 159.873 85.3077 161.409C85.3836 188.774 85.3991 216.141 85.3544 243.507C85.3534 251.987 85.3502 260.467 85.3449 268.947C85.3447 270.604 85.5499 272.309 84.5685 273.815C82.5536 274.485 80.8726 274.674 81.4369 271.636Z" fill="#5C5C5C"/>
<path d="M84.5691 273.815C84.5865 236.041 84.5958 198.265 84.5968 160.489C84.597 159.262 85.0252 157.896 83.9553 156.833C83.7414 155.473 83.7972 154.233 85.3189 153.609L85.4259 153.546C85.9297 154.509 85.7306 155.557 85.7304 156.569C85.7358 194.366 85.7312 232.164 85.7166 269.962C85.7165 270.977 85.8854 272.016 85.4594 272.999C85.4219 273.275 85.3834 273.551 85.3459 273.827L84.5691 273.815Z" fill="#8C8B8B"/>
<path d="M80.7795 205.997C81.828 206.9 81.4919 208.13 81.4928 209.245C81.5093 225.821 81.5073 242.396 81.4867 258.97C81.4866 260.087 81.8235 261.315 80.793 262.227C79.5626 243.484 80.0079 224.741 80.7795 205.997Z" fill="#5E5E5E"/>
<path d="M161.545 103.308L165.744 103.749L157.826 104.943C157.178 104.195 155.983 105.015 155.391 104.1C157.351 103.151 159.472 103.426 161.545 103.308Z" fill="#4D4D4E"/>
<path d="M155.387 104.1C156.216 104.334 157.247 103.984 157.822 104.943L153.084 105.611C152.535 104.756 151.595 105.194 150.865 104.94C152.247 103.985 153.845 104.194 155.387 104.1Z" fill="#363637"/>
<path d="M67.5842 278.462C67.5615 277.49 67.5395 276.519 67.5182 275.548L67.8298 273.825C68.2319 275.445 69.0085 277.06 67.5842 278.462Z" fill="#134E1A"/>
<path d="M87.7201 142.368C87.996 143.866 87.0692 145.111 86.8422 146.501C85.2931 144.733 86.4745 143.544 87.7201 142.368Z" fill="#848384"/>
<path d="M44.3756 294.693C44.2373 296.511 44.7828 298.401 43.8399 300.147L43.5352 298.421C43.2239 297.376 43.3792 296.224 42.7951 295.243C43.1547 294.571 43.7807 294.666 44.3756 294.693Z" fill="#262525"/>
<path d="M42.795 295.238C44.1442 296.04 43.5223 297.302 43.535 298.416L42.1893 295.534C42.359 295.38 42.5691 295.277 42.795 295.238Z" fill="#134E1A"/>
<path d="M47.5205 249.615C47.4139 246.834 48.2543 243.209 49.9453 239.882C52.0109 235.825 55.4671 235.658 57.3798 239.694C60.9741 247.278 60.8918 255.079 56.9565 262.543C55.1081 266.049 52.3069 265.816 50.3224 262.398C48.1967 258.753 47.5595 254.765 47.5205 249.615Z" fill="#020202"/>
<path d="M31.3715 511.305C32.3107 513.391 31.9114 514.981 29.6739 515.891C30.239 514.362 30.8049 512.833 31.3715 511.305Z" fill="#134E1A"/>
<path d="M45.1705 558.396C45.7973 568.443 46.2626 578.504 48.2955 588.405C48.7737 597.61 50.9854 606.547 52.6311 615.561C57.5071 642.261 64.9961 668.271 73.8141 693.913C76.3074 701.164 78.9046 708.381 81.4535 715.615C81.9135 716.483 82.1028 717.219 80.6882 717.159C76.4245 706.451 72.3074 695.693 68.6503 684.75C62.439 666.172 57.0217 647.383 52.9281 628.219C50.0482 614.731 47.7215 601.135 46.2123 587.443C45.2621 578.817 44.3087 570.145 44.4168 561.425C44.1655 560.295 43.1481 558.969 45.1705 558.396Z" fill="white"/>
<path d="M80.6883 717.159C81.3111 716.826 81.4257 716.243 81.4536 715.615C85.6147 725.636 90.3996 735.403 93.7871 745.739C88.4221 736.67 84.6847 726.855 80.6883 717.159Z" fill="white"/>
<path d="M97.637 755.727L93.7765 746.459C97.3073 748.248 96.8049 752.433 98.8975 755.078L97.637 755.727Z" fill="white"/>
<path d="M53.2014 571.651C52.1793 573.766 51.135 573.341 50.2116 573.19C50.0864 573.17 49.8906 572.497 50.0052 572.281C50.9106 570.629 51.9547 572.896 53.2014 571.651Z" fill="#134E1A"/>
<path d="M45.1707 558.396C44.0642 559.196 44.5937 560.4 44.4213 561.43C42.8285 557.77 43.9825 553.927 43.7079 550.178C43.5306 547.769 43.6721 545.336 43.6713 542.914C43.7057 542.19 43.7393 541.466 43.7722 540.742C45.0769 546.585 45.4496 552.469 45.1707 558.396Z" fill="white"/>
<path d="M25.9384 521.323C26.8918 521.482 28.2357 521.515 28.2217 522.633C28.2141 523.298 26.8605 523.589 25.9403 523.635C26.4091 522.864 26.4084 522.093 25.9384 521.323Z" fill="#134E1A"/>
<path d="M181.787 259.115L181.825 103.461C186.904 103.697 192.012 102.872 197.081 104.093C198.327 104.392 199.804 103.728 201.176 103.508C202.781 104.616 204.738 104.323 206.478 104.887L211.136 105.642C227.734 109.643 242.568 116.676 253.719 130.166C259.199 136.798 260.096 144.951 261.099 152.902C265.049 184.213 264.439 215.696 264.084 247.158C264.073 248.16 263.775 249.159 263.611 250.16C262.683 247.305 263.283 244.457 263.111 241.604C263.291 247.715 262.732 253.82 263.43 259.94C264.112 263.266 263.121 263.812 259.639 263.349C247.506 261.735 235.267 261.155 223.03 260.699C220.502 260.605 217.918 261.007 215.454 260.076C217.571 259.195 219.681 259.512 221.794 259.73C216.946 259.674 212.103 259.244 207.242 259.863L181.787 259.115Z" fill="#2D2E2D"/>
<path d="M263.432 259.94C261.877 253.814 263.173 247.64 263.617 241.473C263.616 244.369 263.616 247.264 263.615 250.159L263.432 259.94Z" fill="#7B7B7B"/>
<path d="M207.245 259.863C212.076 258.386 216.963 259.611 221.815 259.129C221.82 259.445 221.826 259.76 221.833 260.075L215.458 260.075L207.245 259.863Z" fill="#797979"/>
<path d="M68.4398 418.796C69.977 422.227 68.8894 425.833 69.0955 429.351C69.2941 432.746 69.1374 436.161 68.2382 439.562L68.2397 426.99C68.3057 424.259 68.3724 421.528 68.4398 418.796Z" fill="#134E1A"/>
<path d="M67.6681 441.932C69.1272 445.925 68.3905 449.9 67.5533 453.869C67.4195 454.504 67.0856 454.226 66.8824 453.911C66.7519 453.707 66.7423 453.425 66.677 453.178C67.007 449.426 67.3374 445.677 67.6681 441.932Z" fill="#134E1A"/>
<path d="M42.2312 518.029L42.2305 523.633C41.6263 520.54 40.607 517.416 42.0968 514.396L42.2312 518.029Z" fill="#134E1A"/>
<path d="M65.3538 459.66C67.8145 461.934 64.8375 463.812 64.6671 465.938C64.6023 465.351 64.5368 464.764 64.4705 464.176C64.3455 462.589 64.8068 461.116 65.3538 459.66Z" fill="#134E1A"/>
<path d="M43.0491 529.51C42.9477 530.349 42.8464 531.188 42.745 532.027C42.3386 530.234 41.5448 528.444 42.8408 526.74L43.0491 529.51Z" fill="#134E1A"/>
<path d="M70.6495 428.573C70.9182 427.589 70.1854 425.845 71.9745 426.027C73.5345 426.186 72.9437 427.836 72.9532 428.859C72.9627 429.883 73.4633 431.63 71.8829 431.592C70.0061 431.544 70.9672 429.648 70.6495 428.573Z" fill="#134E1A"/>
<path d="M39.8955 518.509C38.6866 516.848 39.1929 515.647 39.682 514.43C39.745 515.701 39.8133 516.968 39.8955 518.509Z" fill="#134E1A"/>
<path d="M39.7545 518.06C40.8661 519.372 40.5204 520.322 40.4956 521.697C39.4311 520.36 40.0251 519.241 39.7545 518.06Z" fill="#134E1A"/>
<path d="M85.4637 272.999C85.4312 240.631 85.3995 208.263 85.3685 175.896C85.3641 168.445 85.4067 160.996 85.428 153.542C86.6048 154.719 86.1156 156.216 86.1165 157.574C86.1377 194.697 86.1332 231.822 86.1029 268.947C86.1017 270.309 86.5959 271.798 85.4637 272.999Z" fill="#D6D4D4"/>
</g>
<defs>
<clipPath id="clip0_370_1874">
<rect width="363" height="771" fill="white" transform="translate(363.014 771.18) rotate(-179.993)"/>
</clipPath>
</defs>
</svg>
